<?xml version="1.0" encoding="UTF-8"?>
<!-- Generator: Adobe Illustrator 23.0.0, SVG Export Plug-In . SVG Version: 6.00 Build 0)  -->
<svg version="1.1" id="Layer_1" xmlns="http://www.w3.org/2000/svg" xmlns:xlink="http://www.w3.org/1999/xlink" x="0px" y="0px" viewBox="0 0 630.9 358.5" style="enable-background:new 0 0 630.9 358.5;" xml:space="preserve">
<style type="text/css">
	.st0{fill:#C3C7CD;}
	.st1{fill:#1E3160;}
	.st2{fill:#C12037;}
	.st3{fill:#FFFFFF;}
	.st4{fill:#093C69;}
</style>
<g>
	<g>
		<path class="st0" d="M495.8,165.9c0-10.2-3.4-19.8-9.5-28.2c-1.2,0.6-2.5,1.3-3.7,1.9c0,0-6.8,3.7-17.9,9.6    c6.2,6.7,9.8,14.8,9.8,23.6c0,22.6-24.1,41-53.7,41c-18.7,0-35.2-7.3-44.8-18.3c-5.4,2.7-10.7,5.3-15.8,7.9    c14.1,12.9,35.2,21,58.9,21C461.5,224.4,495.8,198.2,495.8,165.9z"/>
		<path class="st0" d="M319.8,197.2L318.3,303c-13.6-19.9-23-40.8-23-58.8c0-13,4.2-24.4,10.3-34.1c-10.2,10.3-19.6,24.9-19.6,43.6    c0,22.7,15.8,46.6,32,64.7c17-18.2,33.6-42,33.6-64.7C351.7,223.8,319.8,197.2,319.8,197.2z"/>
		<path class="st0" d="M152.2,139.6c-1.3-0.6-2.5-1.3-3.7-1.9c-6,8.4-9.5,18-9.5,28.2c0,32.3,34.3,58.5,76.7,58.5    c23.7,0,44.9-8.2,58.9-21c-5.2-2.5-10.5-5.2-15.8-7.9c-9.6,11-26.1,18.3-44.8,18.3c-29.7,0-53.7-18.3-53.7-41    c0-8.8,3.6-16.9,9.8-23.6C159,143.3,152.2,139.6,152.2,139.6z"/>
		<path class="st0" d="M578.8,93.9v-8.7c0-2.8-2.2-5-5-5h-7.7c9.1-21.5-2.4-39.7-2.4-39.7s-5.4,8.6-12.9,11.4    c6.9-27.5-10.3-51.9-10.3-51.9s-3.3,22.9-67.8,47.1c-47.3-12.8-101.5-19.8-157.2-19.8c-54.9,0-108.3,6.8-155,19.2    c-63-24-66.3-46.5-66.3-46.5S77,24.3,83.9,51.8c-7.4-2.8-12.9-11.4-12.9-11.4s-12.8,19.4-1.1,42c-43.1,25.1-69.7,57.7-69.7,95.2    c0,83.4,131.9,142.3,283.3,149.6c8.3,8.7,15.9,15.4,20.8,19.5l13.3,11.2l13.4-11.2c5.2-4.3,13-11.1,21.5-19.8    c149.3-8.4,278.4-66.9,278.4-149.4C630.9,145.6,611.4,117.1,578.8,93.9z M344.8,313.9c-10.5,11.3-20.6,20.1-27.1,25.4    c-6.5-5.4-16.2-14.1-26.2-25.2c-154.1-5.6-275.3-64.5-275.3-136.4c0-33.6,26.5-64.4,70.4-88.2c-9.1-13-10.5-23.2-9.1-28.1    C92,73,105.8,74.8,105.8,74.8c-16.8-17.5-14-48.2-10.7-53.5c2.6,3.5,21,21.5,66.7,38.6l0.4,0.2c44.9-12.3,97.3-19.3,153.4-19.3    c56.9,0,110.2,7.3,155.5,19.9l2-0.7c45.6-17.1,64.1-35.1,66.7-38.6c3.4,5.3,6.2,36-10.7,53.5c0,0,13.7-1.8,28.2-13.4    c1.5,5,0,15.8-10.1,29.5c42.3,23.6,67.8,53.8,67.8,86.7C614.9,248.7,496.4,307.2,344.8,313.9z"/>
	</g>
	<path class="st1" d="M547.1,90.9c10.1-13.7,11.6-24.5,10.1-29.5C542.7,73,529,74.8,529,74.8c16.8-17.5,14-48.2,10.7-53.5   c-2.6,3.5-21,21.5-66.7,38.6l-2,0.7C425.7,48,372.5,40.8,315.6,40.8c-56.1,0-108.5,7-153.4,19.3l-0.4-0.2   c-45.6-17.1-64.1-35.1-66.7-38.6c-3.4,5.3-6.2,36,10.7,53.5c0,0-13.7-1.8-28.2-13.4c-1.4,4.9-0.1,15.1,9.1,28.1   c-43.9,23.8-70.4,54.6-70.4,88.2c0,71.9,121.2,130.9,275.3,136.4c10,11.1,19.7,19.8,26.2,25.2c6.4-5.4,16.6-14.2,27.1-25.4   c151.6-6.7,270.1-65.1,270.1-136.2C614.9,144.7,589.4,114.5,547.1,90.9z M442.9,91.9c53.2-15.9,86.6-46.6,86.6-46.6   s0.5,45.1-89.1,75.6c-60.9,20.7-100.2,49.1-114.5,67.5C324.5,137.7,416.5,99.9,442.9,91.9z M433.6,178.5c0,8.4-8.9,15.2-19.9,15.2   c-7.7,0-14.5-3.4-17.7-8.3c11.2-5.8,22.3-11.5,32.6-16.9C431.7,171.1,433.6,174.6,433.6,178.5z M105.3,45.4   c0,0,33.4,30.7,86.6,46.6c26.4,7.9,118.4,45.8,117,96.5c-14.3-18.4-53.6-46.7-114.5-67.5C104.8,90.5,105.3,45.4,105.3,45.4z    M214,213.8c18.7,0,35.2-7.3,44.8-18.3c5.4,2.7,10.7,5.3,15.8,7.9c-14.1,12.9-35.2,21-58.9,21c-42.4,0-76.7-26.2-76.7-58.5   c0-10.2,3.4-19.8,9.5-28.2c1.2,0.6,2.5,1.3,3.7,1.9c0,0,6.8,3.7,17.9,9.6c-6.2,6.7-9.8,14.8-9.8,23.6   C160.3,195.4,184.3,213.8,214,213.8z M201.2,178.5c0-3.9,1.9-7.4,5-10.1c10.3,5.4,21.4,11.2,32.6,16.9c-3.3,4.9-10,8.3-17.7,8.3   C210.1,193.6,201.2,186.8,201.2,178.5z M70.2,177.5c0-23.8,14.4-46,39.1-64.7c2.1,1.7,4.2,3.3,6.5,5c-10,13.1-15.7,28.3-15.7,44.6   c0,6.4,0.9,12.6,2.5,18.5L85,173c-6.3,52.2,86.9,95.6,158.3,80.3l-10.5,20l26.6-9.1c4.3,11.1,10.4,21.6,17.2,31.1   C159.5,286.3,70.2,237,70.2,177.5z M318.1,318.3c-16.2-18.1-32-42-32-64.7c0-18.7,9.4-33.3,19.6-43.6c-6.1,9.7-10.3,21.2-10.3,34.1   c0,18,9.4,38.9,23,58.8l1.5-105.8c0,0,31.8,26.6,31.8,56.4C351.7,276.3,335,300.1,318.1,318.3z M376,195.4   c9.6,11,26.1,18.3,44.8,18.3c29.7,0,53.7-18.3,53.7-41c0-8.8-3.6-16.9-9.8-23.6c11-5.9,17.9-9.6,17.9-9.6c1.3-0.6,2.5-1.3,3.7-1.9   c6,8.4,9.5,18,9.5,28.2c0,32.3-34.3,58.5-76.7,58.5c-23.7,0-44.9-8.2-58.9-21C365.4,200.8,370.7,198.1,376,195.4z M360.6,294.9   c6.6-9.1,12.7-19,17-29.5l23.4,8.1l-10.3-20c71.4,15.2,164.4-28.3,158.1-80.4l-17.7,7.9c1.7-6,2.5-12.2,2.5-18.5   c0-16-5.6-31.1-15.3-44.1c1.9-1.4,3.7-2.7,5.4-4.1c23.6,18.3,37.3,40,37.3,63.3C561,235.9,474.6,284.6,360.6,294.9z"/>
	<g>
		<path class="st2" d="M194.3,120.9c60.9,20.7,100.2,49.1,114.5,67.5c1.4-50.7-90.6-88.5-117-96.5c-53.2-15.9-86.6-46.6-86.6-46.6    S104.8,90.5,194.3,120.9z"/>
		<path class="st2" d="M440.4,120.9c89.5-30.5,89.1-75.6,89.1-75.6S496.1,76,442.9,91.9c-26.4,7.9-118.4,45.8-117,96.5    C340.3,170,379.5,141.7,440.4,120.9z"/>
	</g>
	<g>
		<path class="st3" d="M232.8,273.4l10.5-20C171.8,268.6,78.6,225.1,85,173l17.7,7.9c-1.7-6-2.5-12.2-2.5-18.5    c0-16.2,5.7-31.5,15.7-44.6c-2.3-1.7-4.5-3.4-6.5-5c-24.7,18.6-39.1,40.8-39.1,64.7c0,59.5,89.4,108.8,206.3,117.9    c-6.8-9.5-12.8-20-17.2-31.1L232.8,273.4z"/>
		<path class="st3" d="M523.7,114.2c-1.7,1.3-3.5,2.7-5.4,4.1c9.7,13,15.3,28.1,15.3,44.1c0,6.4-0.9,12.6-2.5,18.5l17.7-7.9    c6.3,52.1-86.7,95.5-158.1,80.4l10.3,20l-23.4-8.1c-4.4,10.5-10.4,20.5-17,29.5c114-10.3,200.4-58.9,200.4-117.4    C561,154.3,547.3,132.6,523.7,114.2z"/>
		<path class="st3" d="M238.8,185.3c-11.2-5.8-22.3-11.5-32.6-16.9c-3.1,2.7-5,6.2-5,10.1c0,8.4,8.9,15.2,19.9,15.2    C228.8,193.6,235.5,190.2,238.8,185.3z"/>
		<path class="st3" d="M396,185.3c3.3,4.9,10,8.3,17.7,8.3c11,0,19.9-6.8,19.9-15.2c0-3.9-1.9-7.4-5-10.1    C418.3,173.8,407.2,179.5,396,185.3z"/>
	</g>
	<g>
		<path class="st4" d="M571.8,95.9c-1.4,1.3-3,2-4.9,2c-2,0-3.6-0.7-5-2c-1.3-1.3-2-3-2-5c0-2,0.7-3.7,2.2-5.1    c1.4-1.3,3-1.9,4.8-1.9c1.9,0,3.6,0.7,5,2.1c1.4,1.4,2.1,3,2.1,5C573.9,92.9,573.2,94.6,571.8,95.9z M562.8,86.9    c-1.1,1.1-1.7,2.5-1.7,4.1c0,1.6,0.6,3,1.7,4.1c1.1,1.1,2.5,1.7,4.1,1.7c1.6,0,2.9-0.6,4.1-1.7c1.1-1.1,1.7-2.5,1.7-4.1    c0-1.6-0.6-2.9-1.7-4.1c-1.1-1.2-2.5-1.7-4.1-1.7C565.3,85.1,564,85.7,562.8,86.9z M563.9,94.8V87c0.5,0,1.2,0,2.2,0s1.5,0,1.6,0    c0.6,0,1.1,0.2,1.5,0.4c0.7,0.4,1,1,1,1.9c0,0.7-0.2,1.1-0.5,1.4c-0.4,0.3-0.8,0.5-1.3,0.5c0.5,0.1,0.9,0.3,1.1,0.4    c0.5,0.4,0.7,0.9,0.7,1.7v0.7c0,0.1,0,0.2,0,0.2c0,0.1,0,0.2,0.1,0.2l0.1,0.2h-1.9c-0.1-0.2-0.1-0.6-0.1-1.1c0-0.5-0.1-0.8-0.1-1    c-0.1-0.3-0.3-0.5-0.6-0.6c-0.2-0.1-0.4-0.1-0.7-0.1l-0.4,0h-0.4v2.7H563.9z M567.6,88.6c-0.3-0.1-0.7-0.2-1.2-0.2h-0.5v2.3h0.8    c0.5,0,0.8-0.1,1.1-0.3c0.3-0.2,0.4-0.5,0.4-0.9C568.2,89,568,88.7,567.6,88.6z"/>
	</g>
</g>
<script xmlns="">try {
                        Object.defineProperty(screen, "availTop", { value: 0 });
                    } catch (e) {}
                    try {
                        Object.defineProperty(screen, "availLeft", { value: 0 });
                    } catch (e) {}
                    try {
                        Object.defineProperty(screen, "availWidth", { value: 1440 });
                    } catch (e) {}
                    try {
                        Object.defineProperty(screen, "availHeight", { value: 900 });
                    } catch (e) {}
                    try {
                        Object.defineProperty(screen, "colorDepth", { value: 24 });
                    } catch (e) {}
                    try {
                        Object.defineProperty(screen, "pixelDepth", { value: 24 });
                    } catch (e) {}
                    try {
                        Object.defineProperty(navigator, "hardwareConcurrency", { value: 8 });
                    } catch (e) {}
                    try {
                        Object.defineProperty(navigator, "appVersion", { value: "5.0 (Macintosh)" });
                    } catch (e) {}
                    try {
                        Object.defineProperty(navigator, "doNotTrack", { value: "unspecified" });
                    } catch (e) {}
                    
            try {
                window.screenY = 0
            } catch (e) { }
        
            try {
                window.screenTop = 0
            } catch (e) { }
        
            try {
                window.top.window.outerHeight = window.screen.height
            } catch (e) { }
        
            try {
                window.screenX = 0
            } catch (e) { }
        
            try {
                window.screenLeft = 0
            } catch (e) { }
        
            try {
                window.top.window.outerWidth = window.screen.width
            } catch (e) { }
        </script></svg>