<?xml version="1.0" encoding="UTF-8" standalone="no"?>
<!-- Created with Inkscape (http://www.inkscape.org/) -->
<svg xmlns:svg="http://www.w3.org/2000/svg" xmlns="http://www.w3.org/2000/svg" version="1.0" width="475.1463" height="217.65488" id="svg2403" xml:space="preserve"><defs id="defs2406"><clipPath id="clipPath2418"><path d="M 0,0 L 612,0 L 612,792 L 0,792 L 0,0 z" id="path2420"/></clipPath><clipPath id="clipPath2464"><path d="M 0,0 L 612,0 L 612,792 L 0,792 L 0,0 z" id="path2466"/></clipPath><radialGradient cx="212.786" cy="387.328" r="6.5391998" fx="212.786" fy="387.328" id="radialGradient2496" gradientUnits="userSpaceOnUse" gradientTransform="matrix(0.3958282,3.0365e-2,-3.0365e-2,0.3958282,-26.370865,-18.689774)" spreadMethod="pad"><stop id="stop2498" style="stop-color:#ffc222;stop-opacity:1" offset="0"/><stop id="stop2500" style="stop-color:#1468b3;stop-opacity:1" offset="0.95504802"/><stop id="stop2502" style="stop-color:#1468b3;stop-opacity:1" offset="1"/></radialGradient><clipPath id="clipPath2510"><path d="M 37.4,124.116 L 122.235,124.116 L 122.235,163.071 L 37.4,163.071 L 37.4,124.116 z" id="path2512"/></clipPath><linearGradient x1="222.515" y1="391.29401" x2="247.474" y2="427.19901" id="linearGradient2596" gradientUnits="userSpaceOnUse" gradientTransform="matrix(0.4032135,2.72217e-2,-2.63977e-2,0.3913422,-27.654846,-17.059769)" spreadMethod="pad"><stop id="stop2598" style="stop-color:#ffc222;stop-opacity:1" offset="0"/><stop id="stop2600" style="stop-color:#1468b3;stop-opacity:1" offset="0.91011"/><stop id="stop2602" style="stop-color:#1468b3;stop-opacity:1" offset="0.91011"/><stop id="stop2604" style="stop-color:#1468b3;stop-opacity:1" offset="1"/></linearGradient><linearGradient x1="191.543" y1="411.48599" x2="278.80499" y2="411.48599" id="linearGradient2620" gradientUnits="userSpaceOnUse" gradientTransform="matrix(0.3969879,0,0,0.3969879,-38.58934,-14.056427)" spreadMethod="pad"><stop id="stop2622" style="stop-color:#ffc222;stop-opacity:1" offset="0"/><stop id="stop2624" style="stop-color:#1468b3;stop-opacity:1" offset="0.91011"/><stop id="stop2626" style="stop-color:#1468b3;stop-opacity:1" offset="0.91011"/><stop id="stop2628" style="stop-color:#1468b3;stop-opacity:1" offset="1"/></linearGradient><clipPath id="clipPath2636"><path d="M 37.4,124.116 L 122.235,124.116 L 122.235,163.071 L 37.4,163.071 L 37.4,124.116 z" id="path2638"/></clipPath><clipPath id="clipPath2712"><path d="M 0,0 L 612,0 L 612,792 L 0,792 L 0,0 z" id="path2714"/></clipPath><clipPath id="clipPath2832"><path d="M 113.846,371.35 L 129.196,371.35 L 129.196,448 L 113.846,448 L 113.846,371.35 z" id="path2834"/></clipPath><clipPath id="clipPath2864"><path d="M 0,455.519 L 331.875,455.519 L 331.875,732.162 L 0,732.162 L 0,455.519 z" id="path2866"/></clipPath><clipPath id="clipPath2878"><path d="M 0,0 L 612,0 L 612,792 L 0,792 L 0,0 z" id="path2880"/></clipPath></defs><g transform="matrix(1.25,0,0,-1.25,-46.784088,419.91703)" id="g2412"><g transform="matrix(4.4821038,0,0,4.4821038,-130.32565,-394.49242)" id="g2484"><g id="g2486"><g id="g2492"><g id="g2494"><path d="M 45.741,142.115 C 44.82,141.619 44.474,140.472 44.969,139.55 L 44.969,139.55 C 45.462,138.627 46.61,138.281 47.531,138.775 L 47.531,138.775 C 48.455,139.271 48.802,140.419 48.306,141.342 L 48.306,141.342 C 47.964,141.979 47.311,142.341 46.636,142.341 L 46.636,142.341 C 46.334,142.341 46.027,142.268 45.741,142.115" id="path2504" style="fill:url(#radialGradient2496);stroke:none"/></g></g></g></g><g transform="matrix(4.4821038,0,0,4.4821038,-130.32565,-394.49242)" id="g2506"><g clip-path="url(#clipPath2510)" id="g2508"><g transform="translate(53.0339,134.2168)" id="g2514"><path d="M 0,0 L 0.664,0 L 2.167,-2.742 L 2.175,-2.742 L 2.175,0 L 2.664,0 L 2.664,-3.405 L 2.04,-3.405 L 0.499,-0.606 L 0.488,-0.606 L 0.488,-3.405 L 0,-3.405 L 0,0 z" id="path2516" style="fill:#000000;fill-opacity:1;fill-rule:nonzero;stroke:none"/></g><g transform="translate(58.3564,134.2168)" id="g2518"><path d="M 0,0 L 0.513,0 L 1.952,-3.405 L 1.42,-3.405 L 1.074,-2.547 L -0.595,-2.547 L -0.941,-3.405 L -1.453,-3.405 L 0,0 M 0.24,-0.459 L -0.438,-2.146 L 0.917,-2.146 L 0.24,-0.459 z" id="path2520" style="fill:#000000;fill-opacity:1;fill-rule:nonzero;stroke:none"/></g><g transform="translate(61.8346,133.7877)" id="g2522"><path d="M 0,0 L -1.058,0 L -1.058,0.429 L 1.546,0.429 L 1.546,0 L 0.488,0 L 0.488,-2.976 L 0,-2.976 L 0,0 z" id="path2524" style="fill:#000000;fill-opacity:1;fill-rule:nonzero;stroke:none"/></g><path d="M 64.586,134.217 L 65.074,134.217 L 65.074,130.812 L 64.586,130.812 L 64.586,134.217 z" id="path2526" style="fill:#000000;fill-opacity:1;fill-rule:nonzero;stroke:none"/><g transform="translate(68.0743,134.2746)" id="g2528"><path d="M 0,0 C 1.034,0 1.639,-0.751 1.639,-1.76 C 1.639,-2.795 1.039,-3.522 0,-3.522 C -1.039,-3.522 -1.639,-2.795 -1.639,-1.76 C -1.639,-0.751 -1.034,0 0,0 M 0,-3.093 C 0.785,-3.093 1.122,-2.439 1.122,-1.76 C 1.122,-1.068 0.751,-0.424 0,-0.429 C -0.751,-0.424 -1.122,-1.068 -1.122,-1.76 C -1.122,-2.439 -0.786,-3.093 0,-3.093" id="path2530" style="fill:#000000;fill-opacity:1;fill-rule:nonzero;stroke:none"/></g><g transform="translate(71.0451,134.2168)" id="g2532"><path d="M 0,0 L 0.664,0 L 2.165,-2.742 L 2.176,-2.742 L 2.176,0 L 2.664,0 L 2.664,-3.405 L 2.039,-3.405 L 0.497,-0.606 L 0.488,-0.606 L 0.488,-3.405 L 0,-3.405 L 0,0 z" id="path2534" style="fill:#000000;fill-opacity:1;fill-rule:nonzero;stroke:none"/></g><g transform="translate(76.3187,134.2168)" id="g2536"><path d="M 0,0 L 0.513,0 L 1.952,-3.405 L 1.419,-3.405 L 1.073,-2.547 L -0.595,-2.547 L -0.941,-3.405 L -1.454,-3.405 L 0,0 M 0.239,-0.459 L -0.44,-2.146 L 0.917,-2.146 L 0.239,-0.459 z" id="path2538" style="fill:#000000;fill-opacity:1;fill-rule:nonzero;stroke:none"/></g><g transform="translate(79.4748,134.2168)" id="g2540"><path d="M 0,0 L 0.488,0 L 0.488,-2.976 L 1.912,-2.976 L 1.912,-3.405 L 0,-3.405 L 0,0 z" id="path2542" style="fill:#000000;fill-opacity:1;fill-rule:nonzero;stroke:none"/></g><g transform="translate(84.7046,134.2168)" id="g2544"><path d="M 0,0 L 0.487,0 L 0.487,-2.976 L 1.912,-2.976 L 1.912,-3.405 L 0,-3.405 L 0,0 z" id="path2546" style="fill:#000000;fill-opacity:1;fill-rule:nonzero;stroke:none"/></g><g transform="translate(88.9435,134.2168)" id="g2548"><path d="M 0,0 L 0.512,0 L 1.951,-3.405 L 1.42,-3.405 L 1.073,-2.547 L -0.595,-2.547 L -0.941,-3.405 L -1.453,-3.405 L 0,0 M 0.239,-0.459 L -0.439,-2.146 L 0.918,-2.146 L 0.239,-0.459 z" id="path2550" style="fill:#000000;fill-opacity:1;fill-rule:nonzero;stroke:none"/></g><g transform="translate(92.0267,134.2168)" id="g2552"><path d="M 0,0 L 0.922,0 C 1.629,0 2.117,-0.23 2.117,-0.859 C 2.117,-1.327 1.844,-1.561 1.414,-1.669 L 1.414,-1.679 C 1.878,-1.717 2.205,-2.02 2.205,-2.498 C 2.205,-3.229 1.6,-3.405 0.907,-3.405 L 0,-3.405 L 0,0 M 0.488,-1.454 L 0.756,-1.454 C 1.229,-1.454 1.629,-1.411 1.629,-0.908 C 1.629,-0.503 1.282,-0.4 1.001,-0.4 L 0.488,-0.4 L 0.488,-1.454 M 0.488,-3.005 L 0.854,-3.005 C 1.293,-3.005 1.688,-2.913 1.688,-2.454 C 1.688,-1.928 1.224,-1.854 0.805,-1.854 L 0.488,-1.854 L 0.488,-3.005 z" id="path2554" style="fill:#000000;fill-opacity:1;fill-rule:nonzero;stroke:none"/></g><g transform="translate(97.1437,134.2746)" id="g2556"><path d="M 0,0 C 1.035,0 1.64,-0.751 1.64,-1.76 C 1.64,-2.795 1.039,-3.522 0,-3.522 C -1.039,-3.522 -1.639,-2.795 -1.639,-1.76 C -1.639,-0.751 -1.034,0 0,0 M 0,-3.093 C 0.786,-3.093 1.122,-2.439 1.122,-1.76 C 1.122,-1.068 0.752,-0.424 0,-0.429 C -0.751,-0.424 -1.122,-1.068 -1.122,-1.76 C -1.122,-2.439 -0.785,-3.093 0,-3.093" id="path2558" style="fill:#000000;fill-opacity:1;fill-rule:nonzero;stroke:none"/></g><g transform="translate(100.1152,134.2168)" id="g2560"><path d="M 0,0 L 0.834,0 C 1.507,0 2.155,-0.108 2.155,-0.923 C 2.155,-1.337 1.849,-1.629 1.453,-1.698 L 1.453,-1.707 C 1.604,-1.766 1.678,-1.84 1.785,-2.049 L 2.429,-3.405 L 1.873,-3.405 L 1.351,-2.225 C 1.199,-1.893 1.039,-1.893 0.781,-1.893 L 0.487,-1.893 L 0.487,-3.405 L 0,-3.405 L 0,0 M 0.487,-1.464 L 0.902,-1.464 C 1.366,-1.464 1.639,-1.259 1.639,-0.932 C 1.639,-0.625 1.405,-0.429 0.956,-0.429 L 0.487,-0.429 L 0.487,-1.464 z" id="path2562" style="fill:#000000;fill-opacity:1;fill-rule:nonzero;stroke:none"/></g><g transform="translate(104.9201,134.2168)" id="g2564"><path d="M 0,0 L 0.512,0 L 1.952,-3.405 L 1.419,-3.405 L 1.073,-2.547 L -0.595,-2.547 L -0.941,-3.405 L -1.453,-3.405 L 0,0 M 0.239,-0.459 L -0.44,-2.146 L 0.917,-2.146 L 0.239,-0.459 z" id="path2566" style="fill:#000000;fill-opacity:1;fill-rule:nonzero;stroke:none"/></g><g transform="translate(108.3984,133.7877)" id="g2568"><path d="M 0,0 L -1.059,0 L -1.059,0.429 L 1.546,0.429 L 1.546,0 L 0.488,0 L 0.488,-2.976 L 0,-2.976 L 0,0 z" id="path2570" style="fill:#000000;fill-opacity:1;fill-rule:nonzero;stroke:none"/></g><g transform="translate(112.4624,134.2746)" id="g2572"><path d="M 0,0 C 1.034,0 1.639,-0.751 1.639,-1.76 C 1.639,-2.795 1.039,-3.522 0,-3.522 C -1.04,-3.522 -1.639,-2.795 -1.639,-1.76 C -1.639,-0.751 -1.035,0 0,0 M 0,-3.093 C 0.785,-3.093 1.121,-2.439 1.121,-1.76 C 1.121,-1.068 0.751,-0.424 0,-0.429 C -0.752,-0.424 -1.122,-1.068 -1.122,-1.76 C -1.122,-2.439 -0.786,-3.093 0,-3.093" id="path2574" style="fill:#000000;fill-opacity:1;fill-rule:nonzero;stroke:none"/></g><g transform="translate(115.4332,134.2168)" id="g2576"><path d="M 0,0 L 0.834,0 C 1.507,0 2.155,-0.108 2.155,-0.923 C 2.155,-1.337 1.849,-1.629 1.453,-1.698 L 1.453,-1.707 C 1.605,-1.766 1.678,-1.84 1.785,-2.049 L 2.429,-3.405 L 1.873,-3.405 L 1.351,-2.225 C 1.2,-1.893 1.039,-1.893 0.781,-1.893 L 0.487,-1.893 L 0.487,-3.405 L 0,-3.405 L 0,0 M 0.487,-1.464 L 0.903,-1.464 C 1.365,-1.464 1.639,-1.259 1.639,-0.932 C 1.639,-0.625 1.405,-0.429 0.956,-0.429 L 0.487,-0.429 L 0.487,-1.464 z" id="path2578" style="fill:#000000;fill-opacity:1;fill-rule:nonzero;stroke:none"/></g><g transform="translate(120.0249,132.2362)" id="g2580"><path d="M 0,0 L -1.332,1.981 L -0.761,1.981 L 0.254,0.454 L 1.243,1.981 L 1.814,1.981 L 0.487,0 L 0.487,-1.425 L 0,-1.425 L 0,0 z" id="path2582" style="fill:#000000;fill-opacity:1;fill-rule:nonzero;stroke:none"/></g></g></g><g transform="matrix(4.4821038,0,0,4.4821038,-130.32565,-394.49242)" id="g2584"><g id="g2586"><g id="g2592"><g id="g2594"><path d="M 61.672,162.563 C 57.839,160.974 51.424,153.378 47.743,143.872 L 47.743,143.872 C 47.696,143.755 47.748,143.671 47.828,143.654 L 47.828,143.654 C 47.968,143.626 48.007,143.686 48.063,143.803 L 48.063,143.803 C 53.575,155.711 60.444,161.761 63.325,161.552 L 63.325,161.552 C 65.193,161.419 66.261,159.511 66.301,156.438 L 66.301,156.438 C 66.303,156.372 66.343,156.268 66.436,156.261 L 66.436,156.261 C 66.54,156.253 66.607,156.32 66.615,156.43 L 66.615,156.43 C 66.925,160.419 65.888,162.351 64.243,162.851 L 64.243,162.851 C 63.996,162.927 63.73,162.965 63.448,162.965 L 63.448,162.965 C 62.914,162.965 62.32,162.83 61.672,162.563" id="path2606" style="fill:url(#linearGradient2596);stroke:none"/></g></g></g></g><g transform="matrix(4.4821038,0,0,4.4821038,-130.32565,-394.49242)" id="g2608"><g id="g2610"><g id="g2616"><g id="g2618"><path d="M 64.941,154.344 C 60.912,154.209 55.843,153.117 50.666,151.267 L 50.666,151.267 C 45.738,149.503 41.462,147.293 37.572,144.536 L 37.572,144.536 C 37.429,144.436 37.4,144.328 37.45,144.249 L 37.45,144.249 C 37.5,144.169 37.64,144.18 37.753,144.249 L 37.753,144.249 C 41.53,146.596 44.224,148.201 50.042,150.282 L 50.042,150.282 C 54.921,152.025 59.807,153.067 63.801,153.216 L 63.801,153.216 C 67.333,153.347 69.872,152.754 70.59,151.631 L 70.59,151.631 C 71.616,150.029 70.86,148.284 68.067,145.799 L 68.067,145.799 C 67.966,145.713 67.958,145.603 68,145.548 L 68,145.548 C 68.027,145.511 68.102,145.465 68.26,145.567 L 68.26,145.567 C 72.832,148.551 72.374,151.169 72.137,151.895 L 72.137,151.895 C 71.619,153.495 69.359,154.357 65.74,154.357 L 65.74,154.357 C 65.481,154.357 65.215,154.353 64.941,154.344" id="path2630" style="fill:url(#linearGradient2620);stroke:none"/></g></g></g></g><g transform="matrix(4.4821038,0,0,4.4821038,-130.32565,-394.49242)" id="g2632"><g clip-path="url(#clipPath2636)" id="g2634"><g transform="translate(78.7088,126.7288)" id="g2640"><path d="M 0,0 L 1.438,0 L 1.438,-0.324 L 0.368,-0.324 L 0.368,-1.074 L 1.343,-1.074 L 1.343,-1.398 L 0.368,-1.398 L 0.368,-2.244 L 1.438,-2.244 L 1.438,-2.567 L 0,-2.567 L 0,0 z" id="path2642" style="fill:#000000;fill-opacity:1;fill-rule:nonzero;stroke:none"/></g><g transform="translate(82.4421,126.3423)" id="g2644"><path d="M 0,0 C -0.188,0.074 -0.29,0.108 -0.481,0.108 C -0.688,0.108 -0.931,0.033 -0.931,-0.235 C -0.931,-0.728 0.174,-0.614 0.174,-1.46 C 0.174,-2.008 -0.25,-2.226 -0.765,-2.226 C -0.946,-2.226 -1.122,-2.173 -1.291,-2.119 L -1.254,-1.777 C -1.129,-1.828 -0.908,-1.902 -0.72,-1.902 C -0.511,-1.902 -0.217,-1.784 -0.217,-1.482 C -0.217,-0.908 -1.32,-1.067 -1.32,-0.268 C -1.32,0.188 -0.96,0.43 -0.497,0.43 C -0.327,0.43 -0.125,0.401 0.052,0.338 L 0,0 z" id="path2646" style="fill:#000000;fill-opacity:1;fill-rule:nonzero;stroke:none"/></g><g transform="translate(84.1677,126.4051)" id="g2648"><path d="M 0,0 L -0.798,0 L -0.798,0.324 L 1.166,0.324 L 1.166,0 L 0.368,0 L 0.368,-2.243 L 0,-2.243 L 0,0 z" id="path2650" style="fill:#000000;fill-opacity:1;fill-rule:nonzero;stroke:none"/></g><path d="M 85.882,124.573 L 86.295,124.573 L 86.295,124.162 L 85.882,124.162 L 85.882,124.573 z" id="path2652" style="fill:#000000;fill-opacity:1;fill-rule:nonzero;stroke:none"/><g transform="translate(88.1305,126.3058)" id="g2654"><path d="M 0,0 L -0.394,-0.338 L -0.588,-0.093 L 0.04,0.423 L 0.367,0.423 L 0.367,-2.144 L 0,-2.144 L 0,0 z" id="path2656" style="fill:#000000;fill-opacity:1;fill-rule:nonzero;stroke:none"/></g><g transform="translate(90.0615,124.5256)" id="g2658"><path d="M 0,0 C 0.133,-0.071 0.291,-0.107 0.456,-0.107 C 0.934,-0.107 1.166,0.334 1.173,0.828 L 1.166,0.823 C 0.993,0.655 0.817,0.589 0.603,0.589 C 0.106,0.589 -0.169,0.938 -0.169,1.398 C -0.169,1.928 0.188,2.247 0.655,2.247 C 1.372,2.247 1.519,1.6 1.519,1.015 C 1.519,0.32 1.291,-0.409 0.478,-0.409 C 0.302,-0.409 0.041,-0.368 -0.052,-0.328 L 0,0 M 0.651,0.891 C 0.956,0.891 1.129,1.118 1.129,1.405 C 1.129,1.648 0.979,1.946 0.676,1.946 C 0.368,1.946 0.22,1.681 0.22,1.405 C 0.22,1.166 0.36,0.891 0.651,0.891" id="path2660" style="fill:#000000;fill-opacity:1;fill-rule:nonzero;stroke:none"/></g><g transform="translate(93.5782,124.7454)" id="g2662"><path d="M 0,0 L -1.195,0 L -1.195,0.302 L -0.158,1.983 L 0.368,1.983 L 0.368,0.302 L 0.692,0.302 L 0.692,0 L 0.368,0 L 0.368,-0.584 L 0,-0.584 L 0,0 M 0,1.682 L -0.007,1.682 L -0.81,0.302 L 0,0.302 L 0,1.682 z" id="path2664" style="fill:#000000;fill-opacity:1;fill-rule:nonzero;stroke:none"/></g><g transform="translate(95.4328,125.6468)" id="g2666"><path d="M 0,0 L 0.205,0 C 0.47,0 0.842,0.093 0.842,0.42 C 0.842,0.713 0.606,0.825 0.337,0.825 C 0.106,0.825 -0.078,0.761 -0.232,0.685 L -0.255,1.013 C -0.086,1.075 0.172,1.126 0.389,1.126 C 0.842,1.126 1.231,0.912 1.231,0.427 C 1.231,0.103 0.974,-0.102 0.68,-0.158 L 0.68,-0.166 C 1.022,-0.235 1.254,-0.438 1.254,-0.801 C 1.254,-1.39 0.75,-1.53 0.242,-1.53 C 0.036,-1.53 -0.184,-1.478 -0.347,-1.43 L -0.324,-1.089 C -0.191,-1.155 0.017,-1.228 0.239,-1.228 C 0.518,-1.228 0.864,-1.118 0.864,-0.791 C 0.864,-0.408 0.555,-0.301 0.224,-0.301 L 0,-0.301 L 0,0 z" id="path2668" style="fill:#000000;fill-opacity:1;fill-rule:nonzero;stroke:none"/></g><path d="M 53.072,125.322 L 76.159,125.322 L 76.159,125.657 L 53.072,125.657 L 53.072,125.322 z" id="path2670" style="fill:#000000;fill-opacity:1;fill-rule:nonzero;stroke:none"/><path d="M 99.204,125.322 L 121.867,125.322 L 121.867,125.657 L 99.204,125.657 L 99.204,125.322 z" id="path2672" style="fill:#000000;fill-opacity:1;fill-rule:nonzero;stroke:none"/><g transform="translate(53.0708,146.8765)" id="g2674"><path d="M 0,0 L 2.034,0 L 2.034,-8.508 L 5.971,-8.508 L 5.971,-10.105 L 0,-10.105 L 0,0 z" id="path2676" style="fill:#000000;fill-opacity:1;fill-rule:nonzero;stroke:none"/></g><g transform="translate(72.6505,142.683)" id="g2678"><path d="M 0,0 C -0.595,0.203 -1.031,0.319 -1.741,0.319 C -2.266,0.319 -2.89,0.13 -2.89,-0.508 C -2.89,-1.7 0.493,-0.944 0.493,-3.645 C 0.493,-5.388 -1.061,-6.086 -2.643,-6.086 C -3.384,-6.086 -4.139,-5.954 -4.849,-5.766 L -4.734,-4.169 C -4.124,-4.473 -3.486,-4.661 -2.818,-4.661 C -2.322,-4.661 -1.538,-4.473 -1.538,-3.748 C -1.538,-2.28 -4.923,-3.282 -4.923,-0.582 C -4.923,1.03 -3.516,1.742 -1.989,1.742 C -1.075,1.742 -0.478,1.598 0.13,1.466 L 0,0 z" id="path2680" style="fill:#000000;fill-opacity:1;fill-rule:nonzero;stroke:none"/></g><g transform="translate(79.193,146.9087)" id="g2682"><path d="M 0,0 L 2.295,0 L 6.273,-10.137 L 4.023,-10.137 L 3.152,-7.813 L -0.958,-7.813 L -1.844,-10.137 L -3.95,-10.137 L 0,0 M 1.118,-2.033 L 1.09,-2.033 L -0.377,-6.216 L 2.585,-6.216 L 1.118,-2.033 z" id="path2684" style="fill:#000000;fill-opacity:1;fill-rule:nonzero;stroke:none"/></g><path d="M 86.083,146.896 L 88.029,146.896 L 88.029,136.771 L 86.083,136.771 L 86.083,146.896 z" id="path2686" style="fill:#000000;fill-opacity:1;fill-rule:nonzero;stroke:none"/><g transform="translate(89.696,143.8588)" id="g2688"><path d="M 0,0 C 0.754,0.349 1.772,0.566 2.601,0.566 C 4.879,0.566 5.823,-0.377 5.823,-2.585 L 5.823,-3.543 C 5.823,-4.298 5.837,-4.865 5.852,-5.417 C 5.867,-5.983 5.895,-6.508 5.938,-7.088 L 4.225,-7.088 C 4.154,-6.694 4.154,-6.202 4.139,-5.969 L 4.109,-5.969 C 3.66,-6.796 2.687,-7.262 1.802,-7.262 C 0.48,-7.262 -0.814,-6.463 -0.814,-5.038 C -0.814,-3.921 -0.276,-3.267 0.463,-2.904 C 1.205,-2.541 2.164,-2.468 2.978,-2.468 L 4.05,-2.468 C 4.05,-1.265 3.514,-0.857 2.367,-0.857 C 1.538,-0.857 0.712,-1.176 0.058,-1.67 L 0,0 M 2.28,-5.837 C 2.874,-5.837 3.34,-5.577 3.645,-5.17 C 3.964,-4.749 4.05,-4.211 4.05,-3.629 L 3.209,-3.629 C 2.339,-3.629 1.045,-3.776 1.045,-4.924 C 1.045,-5.564 1.583,-5.837 2.28,-5.837" id="path2690" style="fill:#000000;fill-opacity:1;fill-rule:nonzero;stroke:none"/></g><g transform="translate(96.7095,144.2507)" id="g2692"><path d="M 0,0 L 1.816,0 L 1.816,-1.044 L 1.844,-1.044 C 2.455,-0.129 3.34,0.174 4.066,0.174 C 5.111,0.174 5.853,-0.218 6.273,-1.146 C 6.724,-0.247 7.697,0.174 8.612,0.174 C 10.456,0.174 10.978,-1.088 10.978,-2.759 L 10.978,-7.479 L 9.033,-7.479 L 9.033,-3.02 C 9.033,-2.322 9.033,-1.336 7.915,-1.336 C 6.622,-1.336 6.462,-2.875 6.462,-3.847 L 6.462,-7.479 L 4.516,-7.479 L 4.516,-3.02 C 4.516,-2.322 4.516,-1.336 3.399,-1.336 C 2.107,-1.336 1.947,-2.875 1.947,-3.847 L 1.947,-7.479 L 0,-7.479 L 0,0 z" id="path2694" style="fill:#000000;fill-opacity:1;fill-rule:nonzero;stroke:none"/></g><g transform="translate(116.5536,140.5147)" id="g2696"><path d="M 0,0 C 0,-2.167 -1.768,-3.924 -4.105,-3.924 C -6.419,-3.924 -8.211,-2.167 -8.211,0 C -8.211,2.165 -6.431,3.919 -4.105,3.919 C -1.768,3.919 0,2.165 0,0 M -2.07,-0.036 C -2.07,1.242 -2.892,2.277 -4.071,2.277 C -5.254,2.277 -6.073,1.242 -6.073,-0.036 C -6.073,-1.316 -5.24,-2.353 -4.071,-2.353 C -2.906,-2.353 -2.068,-1.316 -2.07,-0.036" id="path2698" style="fill:#000000;fill-opacity:1;fill-rule:nonzero;stroke:none"/></g><g transform="translate(67.3556,140.5147)" id="g2700"><path d="M 0,0 C 0,-2.167 -1.768,-3.924 -4.104,-3.924 C -6.42,-3.924 -8.212,-2.167 -8.212,0 C -8.212,2.165 -6.429,3.919 -4.104,3.919 C -1.768,3.919 0,2.165 0,0 M -2.091,-0.036 C -2.091,1.242 -2.914,2.277 -4.093,2.277 C -5.276,2.277 -6.095,1.242 -6.095,-0.036 C -6.095,-1.316 -5.261,-2.353 -4.093,-2.353 C -2.927,-2.353 -2.09,-1.316 -2.091,-0.036" id="path2702" style="fill:#000000;fill-opacity:1;fill-rule:nonzero;stroke:none"/></g><g transform="translate(121.7415,142.683)" id="g2704"><path d="M 0,0 C -0.597,0.203 -1.032,0.319 -1.742,0.319 C -2.267,0.319 -2.889,0.13 -2.889,-0.508 C -2.889,-1.7 0.494,-0.944 0.494,-3.645 C 0.494,-5.388 -1.06,-6.086 -2.644,-6.086 C -3.384,-6.086 -4.139,-5.954 -4.849,-5.766 L -4.735,-4.169 C -4.124,-4.473 -3.486,-4.661 -2.817,-4.661 C -2.325,-4.661 -1.539,-4.473 -1.539,-3.748 C -1.539,-2.28 -4.923,-3.282 -4.923,-0.582 C -4.923,1.03 -3.515,1.742 -1.99,1.742 C -1.075,1.742 -0.479,1.598 0.131,1.466 L 0,0 z" id="path2706" style="fill:#000000;fill-opacity:1;fill-rule:nonzero;stroke:none"/></g></g></g></g></svg>