<?xml version="1.0" encoding="UTF-8"?>
<!-- Generator: Adobe Illustrator 22.0.1, SVG Export Plug-In . SVG Version: 6.00 Build 0)  -->
<svg version="1.1" id="Layer_1" xmlns="http://www.w3.org/2000/svg" xmlns:xlink="http://www.w3.org/1999/xlink" x="0px" y="0px" width="250.1px" height="172.39px" viewBox="0 0 250.1 172.39" enable-background="new 0 0 250.1 172.39" xml:space="preserve">
<g>
	<path fill="#231F20" d="M200.73,6.8c-1.28-0.28-31.91-6.75-78.06-6.75c-46.51,0-72.35,6.54-73.43,6.81l-5.3,1.37l-0.31,8.2l0,0.17   c0,104.27,75.53,152.07,76.29,152.55l5.14,3.19l5.16-3.17c0.77-0.47,76.3-48.26,76.3-152.5V8.04L200.73,6.8z"/>
	<path fill="#FED402" d="M125.05,7.4V3.44c-0.79-0.01-1.59-0.01-2.38-0.01c-46.08,0-71.52,6.43-72.58,6.7l-2.86,0.74l-0.21,5.68   c0,102.21,73.94,149.25,74.69,149.71l-0.01,0.02c0.31,0.17,0.71,0.42,1.3,0.79l2.07,1.28v-4.66l0.02,0.01l1.3-0.8   c0.73-0.45,72.8-45.99,72.8-146.25v-2.68C199.18,13.97,169.69,7.62,125.05,7.4"/>
	<path fill="#004679" d="M188.37,31.79l-0.05,1.36c-1.38,36.02-12.53,68.28-33.15,95.9c-11.48,15.39-23.19,25.43-29.15,30.06   l-0.93,0.72l-0.01-0.01v3.9l-1.29-0.8c-0.73-0.45-72.82-46.17-72.82-146.31l0.1-2.62c0,0,28.01-6.56,73.98-6.56l0,19.55   c28.61,0.15,51.01,2.93,61.98,4.61L188.37,31.79z M148.1,12.6c0,0-1.3,3.31-1.42,3.63c-0.35-0.01-3.87-0.14-3.87-0.14   s2.68,2.18,2.96,2.4c-0.14,0.33-1.54,3.82-1.54,3.82s3.32-2.09,3.6-2.27c0.27,0.2,3.32,2.53,3.32,2.53s-1.08-3.57-1.18-3.91   c0.3-0.2,3.3-2.18,3.3-2.18s-3.64-0.13-3.99-0.14c-0.1-0.33-0.95-2.99-0.95-2.99L148.1,12.6z M182.31,16.55c0,0,0.6,2.73,0.68,3.06   c0.34,0.04,3.96,0.5,3.96,0.5s-3.17,1.71-3.49,1.88c0.07,0.35,0.83,4.01,0.83,4.01s-2.83-2.6-3.08-2.83   c-0.31,0.16-3.79,1.95-3.79,1.95s1.71-3.34,1.87-3.66c-0.26-0.24-2.73-2.65-2.73-2.65s3.5,0.45,3.84,0.49   c0.15-0.31,1.74-3.49,1.74-3.49L182.31,16.55z"/>
	<path fill="#FFFFFF" d="M122.66,30c-26.34,0-45.75,2.21-57.74,4.15c1.55,34.87,12.48,66.16,32.51,93.01   c10.7,14.35,21.59,23.98,27.66,28.8c6.07-4.81,16.95-14.41,27.65-28.74c19.98-26.77,30.91-58,32.48-92.84   C173.59,32.66,151.07,30,122.66,30z M149.43,124.75c-9.07,12.15-18.21,20.74-24.33,25.86c-6.13-5.14-15.28-13.76-24.36-25.93   c-10.26-13.76-19.18-32.96-24.47-49.02c0.22-0.01,23.75-2.79,46.78-2.79c24.42,0.01,50.68,2.81,50.86,2.81   C168.62,91.78,159.7,110.99,149.43,124.75z M141.46,125.73l-14.94,17.08l-0.27,0.62h-2.36l-0.29-0.62l-14.94-17.08l-1.62-4.82   l16.1,18.5l-10.67-20.97l11.25,20.32l-4.95-22.8l5.9,22.54l0.38-25.01l0.48,25.01l5.86-22.54l-4.95,22.8l11.25-20.32l-10.67,20.97   l16.1-18.5L141.46,125.73z M104.2,112.95L104.2,112.95c-0.02,0-0.06,0-0.11,0c-0.12,0-0.29,0-0.34-0.01   c-0.14-0.03-0.18-0.06-0.23-0.36c-0.06-0.38-0.12-1.1-0.19-2.01l-0.13-1.66c-0.1-1.14-0.14-1.93-0.15-2.23l-0.01-0.11   c-0.02-0.25-0.13-0.29-0.23-0.29h0c-0.1,0.01-0.19,0.09-0.26,0.17c-0.23,0.24-1.49,1.46-1.56,1.52c-0.08,0.07-0.11,0.15-0.1,0.24   c0.01,0.1,0.08,0.21,0.19,0.21c0.06,0,0.11-0.04,0.15-0.06c0.05-0.03,0.12-0.08,0.21-0.14c0.14-0.1,0.42-0.29,0.52-0.34   c0.01,0.04,0.02,0.12,0.02,0.19c0.01,0.14,0.03,0.31,0.05,0.49c0.02,0.2,0.04,0.43,0.06,0.69l0.13,1.54   c0.06,0.82,0.12,1.53,0.12,1.91c0,0.29-0.03,0.33-0.17,0.38c-0.12,0.04-0.47,0.1-0.54,0.1c-0.04,0.01-0.09,0.03-0.12,0.07   c-0.02,0.03-0.05,0.08-0.05,0.16c0,0.05,0.03,0.19,0.22,0.19c0.01,0,0.03,0,0.04,0c0.29-0.02,0.63-0.06,0.9-0.09   c0.16-0.02,0.28-0.03,0.35-0.03c0.07,0,0.18-0.01,0.31-0.02c0.24-0.01,0.56-0.03,0.91-0.05c0.06-0.01,0.13-0.02,0.18-0.08   c0.03-0.04,0.05-0.09,0.04-0.15C104.39,113.02,104.3,112.95,104.2,112.95 M117.2,105.51l-0.06,0c-0.58,0.01-1.08,0.26-1.43,0.67   c-0.34,0.41-0.52,0.98-0.5,1.61c0.02,0.9,0.58,1.82,1.61,1.82h0.05c0.45-0.02,0.84-0.2,1.05-0.5c0.02-0.04,0.05-0.12,0.05-0.18   c-0.01-0.12-0.09-0.2-0.19-0.2c-0.06,0-0.1,0.04-0.14,0.07c-0.02,0.01-0.04,0.04-0.06,0.05c-0.1,0.06-0.24,0.1-0.43,0.1   c-0.22,0-0.85-0.29-0.88-1.55c-0.02-0.7,0.28-1.22,0.73-1.24c0.48,0,0.98,0.66,1.03,2.14c0.06,2.13-1.06,3.59-1.75,4.14   c-0.03,0.04-0.12,0.13-0.12,0.25c0,0.1,0.09,0.21,0.19,0.21h0c0.06,0,0.14-0.01,0.19-0.06c1.01-0.61,2.69-2.33,2.63-4.81   C119.14,106.5,118.36,105.51,117.2,105.51 M132.67,105.51c0.75,0.02,1.32,0.46,1.66,1.27c0.32,0.79,0.35,1.75,0.33,2.24   c-0.06,2.39-0.9,3.81-2.25,3.81l-0.06,0c-1.54-0.04-2.04-1.85-1.99-3.52c0.06-2.42,0.88-3.81,2.25-3.81H132.67 M132.49,106.16   c-0.56,0-0.94,1.09-0.99,2.83c-0.04,1.57,0.26,3.16,1.01,3.18c0.58,0,0.97-1.11,1.02-2.83c0.04-1.51-0.26-3.16-1.03-3.18   l-0.01-0.12V106.16 M148.34,106.38c-1.2-0.1-2.06,0.75-2.17,2.06c-0.04,0.44,0.06,0.9,0.27,1.25c0.26,0.44,0.67,0.7,1.18,0.74   c0.44,0.04,0.86-0.1,1.1-0.37c0.03-0.04,0.07-0.11,0.08-0.17c0-0.06-0.01-0.12-0.05-0.16c-0.03-0.04-0.07-0.06-0.13-0.06   c-0.05,0-0.1,0.02-0.14,0.05c-0.02,0.02-0.04,0.03-0.07,0.04c-0.07,0.03-0.2,0.08-0.44,0.05c-0.08-0.01-0.28-0.08-0.45-0.33   c-0.15-0.21-0.32-0.61-0.26-1.32c0.06-0.7,0.41-1.17,0.85-1.15c0.49,0.05,0.92,0.76,0.8,2.25c-0.18,2.12-1.46,3.45-2.2,3.91   c-0.04,0.04-0.13,0.11-0.15,0.23c0,0.06,0.02,0.13,0.06,0.17c0.03,0.04,0.07,0.06,0.12,0.07c0.02,0,0.03,0,0.05,0   c0.06,0,0.12-0.02,0.15-0.04c1.07-0.5,2.93-2.02,3.14-4.5C150.21,107.57,149.51,106.48,148.34,106.38 M101.81,12.4   c0,0,1.3,3.3,1.42,3.62c0.34-0.01,3.87-0.14,3.87-0.14s-2.68,2.18-2.96,2.4c0.13,0.33,1.54,3.82,1.54,3.82s-3.31-2.09-3.6-2.28   c-0.27,0.21-3.32,2.54-3.32,2.54s1.08-3.58,1.18-3.92c-0.3-0.2-3.3-2.18-3.3-2.18s3.64-0.13,3.99-0.15   c0.1-0.32,0.95-2.99,0.95-2.99L101.81,12.4z M67.61,16.36c0,0-0.61,2.73-0.68,3.06c-0.34,0.04-3.96,0.5-3.96,0.5   s3.17,1.71,3.49,1.88c-0.07,0.35-0.84,4-0.84,4s2.83-2.59,3.08-2.82c0.31,0.16,3.79,1.95,3.79,1.95s-1.7-3.35-1.87-3.66   c0.26-0.24,2.73-2.65,2.73-2.65s-3.5,0.44-3.84,0.48c-0.16-0.31-1.74-3.48-1.74-3.48L67.61,16.36z"/>
	<path fill="#231F20" d="M247.07,62.31c-1.77,0.15-3.58,0.23-5.37,0.23h0c-7.49,0-13.9-1.32-19.03-2.38   c-3.81-0.79-7.11-1.47-9.98-1.47l-0.42,0.01c-4.76,0.11-6.44,2.42-7.02,3.79c-0.23,0.54-0.35,1.09-0.41,1.64l-0.04,0   c-0.69,3.6-2.06,8.48-3.57,13.37c-2.37-0.27-4.8-0.55-7.34-0.85c-19.86-2.3-44.56-5.17-68.98-5.17c-26.49,0-52.99,2.97-72.34,5.15   c-1.33,0.15-2.62,0.29-3.88,0.44c-1.46-4.73-2.76-9.42-3.44-12.92c-0.06-0.56-0.19-1.12-0.41-1.65c-0.58-1.37-2.26-3.68-7.02-3.79   l-0.42-0.01c-2.87,0-6.17,0.68-9.98,1.47c-5.14,1.06-11.54,2.38-19.03,2.38c-1.79,0-3.59-0.08-5.37-0.23l-2.98-0.25l1.55,2.55   c6.6,10.86,11.54,27.99,11.59,28.16l0.14,0.5l0.42,0.31c1.61,1.18,3.66,1.75,6.27,1.75c0.78,0,1.59-0.06,2.42-0.15l2.67,9.32   c0.5,1.91,0.8,3.13,0.82,3.19l0.04,0.14c1.27,3.53,4.71,3.98,7.56,3.98c2.44,0,5.46-0.37,9.28-0.83l0.41-0.05   c2.53-0.31,5.87-0.8,9.72-1.37c15.65-2.31,41.86-6.19,71.85-6.19h0.25c34.43,0,64.04,4.75,78.27,7.04c1.22,0.19,2.3,0.37,3.29,0.52   l2.1,0.29c3.1,0.43,5.77,0.81,8.04,0.81h0.01c1.51,0,5.98-0.02,7.08-4.07c0.03-0.08,0.06-0.16,0.08-0.25   c0.02-0.11,1.62-6.03,3.47-12.55c0,0,0-0.01,0-0.01c0.08,0.01,0.17,0.02,0.25,0.02l0,0.01c0.84,0.09,1.66,0.15,2.45,0.15h0   c2.61,0,4.65-0.58,6.27-1.75l0.42-0.31l0.14-0.5c0.05-0.17,4.98-17.3,11.58-28.16l1.55-2.55L247.07,62.31z"/>
	<path fill="#FFDB7A" d="M228.1,82.03c-0.88,2.72-1.91,6.2-2.92,9.7c-0.28,0.99-0.56,1.97-0.84,2.94c-1.24,4.37-2.34,8.4-2.94,10.6   c-0.26,0.94-0.42,1.57-0.47,1.72c-0.11,0.49-0.3,1-0.91,1.38c-0.59,0.37-1.58,0.63-3.29,0.63c-2.06,0-4.63-0.36-7.62-0.78   l-2.09-0.28c-0.95-0.15-2.04-0.32-3.25-0.52c-14.31-2.3-44.07-7.08-78.75-7.08h-0.25c-30.22,0-56.56,3.9-72.3,6.23   c-3.84,0.56-7.15,1.06-9.64,1.36l-0.41,0.05c-3.72,0.45-6.66,0.8-8.91,0.8c-1.43,0-2.39-0.15-3.07-0.39   c-0.87-0.31-1.25-0.76-1.49-1.26l-0.11-0.25c-0.09-0.35-0.38-1.51-0.81-3.17c-0.59-2.3-1.44-5.56-2.37-9.01   c-0.26-0.97-0.53-1.96-0.8-2.95c-0.99-3.6-2.01-7.17-2.87-9.84c4.19,0.53,12.44-0.21,23.53-1.42c0.8-0.1,4.92-0.54,7.37-0.82   c19.28-2.16,45.69-5.13,72.01-5.13c24.23,0,48.84,2.86,68.62,5.15c3.59,0.42,9.55,1.09,10.78,1.23   C215.53,82.14,223.8,82.79,228.1,82.03z M232.18,79.32l-0.29,1.01l-3.41,11.86c0.54,0.05,1.09,0.11,1.59,0.11   c1.7,0,3.04-0.29,4.07-0.9c0.84-2.85,4.83-15.84,10.32-25.88c-0.92,0.04-1.85,0.06-2.76,0.06c-7.81,0-14.37-1.35-19.65-2.44   c-3.65-0.75-6.81-1.4-9.37-1.4l-0.35,0c-1.59,0.04-3.64,0.4-4.29,1.93c-0.13,0.31-0.19,0.65-0.21,1.01   c0.26,3.77,4.47,5.15,10.81,6.79c0.9,0.23,1.8,0.46,2.67,0.71c8.27,2.34,10.05,3.99,10.68,5.18c0.31,0.58,0.37,1.2,0.21,1.8   C232.2,79.21,232.2,79.27,232.18,79.32 M37.76,61.74l-0.34,0c-2.56,0-5.72,0.65-9.37,1.4c-5.28,1.09-11.85,2.44-19.65,2.44   c-0.92,0-1.84-0.02-2.76-0.06c5.49,10.04,9.48,23.03,10.32,25.88c1.03,0.6,2.36,0.9,4.07,0.9c0.49,0,1.03-0.06,1.56-0.1   l-3.71-12.94c-0.2-0.58-0.13-1.25,0.2-1.88c0.63-1.19,2.41-2.84,10.68-5.18c0.87-0.25,1.77-0.48,2.67-0.71   c6.46-1.67,10.7-3.07,10.82-6.99c-0.03-0.29-0.08-0.56-0.19-0.81C41.4,62.15,39.36,61.78,37.76,61.74"/>
	<path fill="#004679" d="M45.62,77.41c-0.52,0.06-1.06,0.11-1.57,0.17c-7.91,0.86-14.26,1.45-18.54,1.45c-2.8,0-4.02-0.26-4.55-0.45   c0.53-0.47,2.39-1.7,8.61-3.46c2.52-0.73,8.18-1.9,11.31-3.76c0.94-0.54,1.79-1.17,2.47-1.91C43.99,71.94,44.78,74.67,45.62,77.41z    M204.32,77.84c0.5,0.06,1.01,0.11,1.51,0.16c7.15,0.77,13.22,1.31,17.47,1.31c3.94,0,5.33-0.47,5.82-0.73   c-0.51-0.47-2.36-1.7-8.62-3.47c-0.85-0.24-1.72-0.47-2.61-0.69c-3-0.78-6.19-1.62-8.68-3.05c-0.95-0.55-1.81-1.17-2.5-1.92   C206.04,72.07,205.21,74.96,204.32,77.84"/>
	<path fill="#231F20" d="M38.5,90.33c0.29,0.25,0.7,0.83,0.82,1.56c0.33,1.98-0.57,3.56-2.12,3.81c-0.05,0.01-0.17,0.03-0.23,0.02   c-0.06,0-0.14,0-0.15-0.1c-0.02-0.11,0.05-0.17,0.28-0.2c0.61-0.1,1.31-1.12,1.08-2.54c-0.08-0.46-0.26-1.38-0.99-1.98   c-0.47-0.39-0.93-0.4-1.18-0.36c-0.16,0.03-0.33,0.07-0.42,0.13c-0.05,0.03-0.07,0.12-0.05,0.28l0.93,5.56   c0.21,1.28,0.4,2.37,0.55,2.96c0.1,0.38,0.21,0.68,0.55,0.68c0.16,0,0.4-0.01,0.57-0.03c0.12-0.02,0.18,0.01,0.19,0.08   c0.02,0.1-0.06,0.16-0.18,0.18c-0.72,0.12-1.41,0.19-1.69,0.24c-0.25,0.04-0.93,0.2-1.37,0.27c-0.14,0.02-0.22-0.01-0.24-0.1   c-0.01-0.07,0.03-0.12,0.16-0.14c0.17-0.03,0.29-0.08,0.38-0.12c0.21-0.1,0.21-0.41,0.19-0.82c-0.05-0.59-0.22-1.69-0.44-2.97   l-0.41-2.44c-0.35-2.11-0.42-2.5-0.51-2.95c-0.1-0.46-0.22-0.67-0.6-0.71c-0.09-0.02-0.28,0-0.43,0.03c-0.12,0.02-0.19,0-0.21-0.1   c-0.02-0.1,0.06-0.14,0.22-0.17c0.58-0.1,1.27-0.17,1.58-0.22c0.45-0.07,1.07-0.22,1.57-0.31C37.7,89.65,38.29,90.15,38.5,90.33    M53.4,93.72c0.06-0.01,0.06-0.05,0.04-0.09l-1.49-3.3c-0.02-0.05-0.04-0.12-0.08-0.11c-0.03,0-0.04,0.08-0.05,0.13l-0.5,3.58   c0,0.06,0.01,0.1,0.06,0.1L53.4,93.72 M45.23,93.98c0.29-0.35,0.52-1.04,0.37-2.18c-0.27-1.98-1.37-2.42-2.02-2.33   C43.3,89.5,43.1,89.54,43,89.6c-0.07,0.04-0.09,0.1-0.07,0.21l0.57,4.25c0.02,0.16,0.05,0.21,0.13,0.24   c0.24,0.06,0.58,0.06,0.85,0.02C44.92,94.26,45.05,94.19,45.23,93.98 M57.7,97.25c0.09-0.01,0.14-0.01,0.16,0.09   c0.02,0.11-0.08,0.15-0.48,0.21c-0.39,0.06-1.19,0.18-2.07,0.28c-0.2,0.02-0.33,0.03-0.34-0.07c-0.01-0.08,0.03-0.11,0.14-0.15   c0.07-0.04,0.13-0.18,0.05-0.33l-1.31-2.83c-0.03-0.06-0.07-0.09-0.12-0.08l-2.44,0.36c-0.05,0.01-0.07,0.04-0.08,0.13l-0.3,2.08   c-0.06,0.37-0.06,0.71-0.04,0.88c0.04,0.25,0.16,0.42,0.5,0.36l0.17-0.02c0.13-0.02,0.17,0,0.18,0.09   c0.02,0.11-0.05,0.15-0.17,0.16c-0.32,0.05-0.76,0.08-1.09,0.13c-0.02,0.06-0.08,0.09-0.18,0.1l-1.04,0.15   c-0.61,0.08-0.89,0.05-1.21-0.11c-0.51-0.26-1.02-0.86-1.78-1.86c-0.54-0.71-1.17-1.59-1.34-1.78c-0.07-0.07-0.13-0.08-0.21-0.07   l-0.96,0.11c-0.05,0-0.08,0.04-0.07,0.12l0.03,0.2c0.18,1.3,0.32,2.41,0.46,2.98c0.08,0.4,0.19,0.7,0.53,0.71   c0.17,0.01,0.41,0,0.54-0.02c0.09-0.01,0.14,0.02,0.14,0.09c0.02,0.1-0.05,0.15-0.2,0.17c-0.63,0.08-1.45,0.15-1.62,0.18   c-0.21,0.03-0.89,0.16-1.33,0.22c-0.14,0.02-0.23-0.01-0.24-0.11c-0.01-0.07,0.03-0.12,0.16-0.14c0.16-0.02,0.29-0.06,0.39-0.11   c0.21-0.08,0.23-0.4,0.22-0.81c-0.03-0.6-0.18-1.7-0.35-2.98l-0.33-2.46c-0.29-2.12-0.34-2.52-0.42-2.96   c-0.08-0.47-0.2-0.68-0.58-0.73c-0.09-0.02-0.28,0-0.43,0.02c-0.12,0.02-0.19,0-0.21-0.1c-0.01-0.09,0.06-0.13,0.22-0.16   c0.58-0.08,1.27-0.13,1.51-0.16c0.37-0.05,1.2-0.21,1.54-0.26c0.69-0.09,1.43-0.1,2.09,0.33c0.34,0.22,0.88,0.88,1,1.81   c0.14,1.03-0.07,2.03-1.02,3.32c1.19,1.44,2.11,2.58,2.87,3.36c0.41,0.41,0.74,0.6,0.97,0.69c0.26-0.24,0.36-0.66,0.45-1.21   l1.45-9.16c0.07-0.42,0.12-0.59,0.22-0.61c0.1-0.01,0.18,0.1,0.34,0.41c0.37,0.73,2.97,6.16,3.98,8.17c0.6,1.2,0.95,1.34,1.19,1.38   C57.4,97.29,57.57,97.27,57.7,97.25 M63.1,94.58c-0.08,0.01-0.09,0.07-0.09,0.23c0,0.58-0.09,0.89-0.35,1.1   c-0.26,0.21-0.72,0.27-1,0.31c-1.11,0.16-1.32-0.02-1.48-0.98c-0.07-0.4-0.24-1.69-0.31-2.16l-0.16-1.1   c-0.01-0.08-0.01-0.14,0.05-0.15c0.26-0.04,1.35-0.18,1.56-0.18c0.41,0,0.59,0.18,0.69,0.45c0.06,0.18,0.08,0.36,0.11,0.5   c0.01,0.07,0.04,0.12,0.12,0.11c0.1-0.02,0.08-0.17,0.06-0.28c-0.02-0.1-0.07-0.66-0.09-0.94c-0.07-0.72-0.04-0.95-0.06-1.03   c-0.01-0.08-0.05-0.11-0.1-0.1c-0.06,0.01-0.09,0.09-0.15,0.21c-0.08,0.15-0.23,0.22-0.49,0.28c-0.25,0.06-1.51,0.25-1.75,0.28   c-0.06,0.01-0.09-0.04-0.1-0.14l-0.5-3.53c-0.02-0.1,0-0.14,0.05-0.15c0.22-0.03,1.37-0.17,1.56-0.17c0.56,0.01,0.69,0.16,0.8,0.4   c0.08,0.16,0.13,0.4,0.14,0.5c0.02,0.12,0.05,0.19,0.13,0.18c0.08-0.02,0.09-0.1,0.09-0.17c0-0.17-0.07-0.79-0.08-0.93   c-0.06-0.65-0.03-0.82-0.04-0.92c-0.01-0.07-0.03-0.13-0.08-0.12c-0.05,0.01-0.12,0.06-0.17,0.08c-0.08,0.04-0.26,0.1-0.46,0.15   c-0.21,0.05-2.38,0.35-2.73,0.4c-0.31,0.04-1,0.1-1.58,0.18c-0.16,0.03-0.24,0.06-0.22,0.16c0.02,0.1,0.08,0.12,0.21,0.1   c0.15-0.02,0.34-0.04,0.43-0.02c0.37,0.05,0.49,0.26,0.58,0.73c0.09,0.44,0.14,0.83,0.44,2.96l0.35,2.46   c0.18,1.28,0.34,2.39,0.37,2.98c0.01,0.41,0,0.72-0.21,0.81c-0.09,0.04-0.22,0.09-0.38,0.11c-0.13,0.02-0.17,0.07-0.16,0.14   c0.02,0.1,0.1,0.13,0.24,0.11c0.44-0.06,1.12-0.2,1.37-0.24c0.64-0.09,1.39-0.11,3.04-0.35c0.42-0.06,0.51-0.08,0.54-0.45   c0.02-0.29-0.03-1.25-0.08-1.57C63.21,94.68,63.19,94.56,63.1,94.58 M67.15,89.71l-0.35-0.26c-1.03-0.76-1.35-1.21-1.43-1.86   c-0.11-0.84,0.3-1.5,1.11-1.62c0.71-0.09,1.08,0.28,1.28,0.53c0.28,0.33,0.39,0.76,0.41,0.88c0.02,0.17,0.06,0.25,0.14,0.24   c0.09-0.01,0.1-0.13,0.06-0.43c-0.14-1.09-0.15-1.5-0.18-1.68c-0.01-0.1-0.07-0.13-0.17-0.14c-0.3-0.06-0.78-0.14-1.49-0.05   c-1.53,0.2-2.38,1.44-2.18,2.98c0.15,1.13,0.7,2.05,2.06,3.09l0.57,0.44c1.03,0.77,1.28,1.41,1.37,2.09   c0.1,0.74-0.27,1.65-1.25,1.79c-0.68,0.09-1.38-0.21-1.76-1.21c-0.08-0.23-0.17-0.52-0.19-0.69c-0.01-0.12-0.04-0.24-0.14-0.23   c-0.08,0.01-0.1,0.17-0.08,0.38c0.02,0.22,0.08,1.07,0.19,1.84c0.04,0.31,0.08,0.37,0.27,0.45c0.51,0.2,1.01,0.23,1.65,0.15   c0.58-0.08,1.18-0.29,1.67-0.8c0.7-0.77,0.81-1.76,0.71-2.57C69.24,91.7,68.63,90.83,67.15,89.71 M77.1,86.05   c-0.05-0.36-0.13-1.33-0.16-1.62c-0.03-0.21-0.05-0.3-0.12-0.29c-0.09,0.01-0.33,0.19-1.03,0.27l-4.35,0.52   C71.08,84.98,70.66,85,70.33,85c-0.27,0-0.4-0.12-0.49-0.11c-0.06,0.01-0.09,0.1-0.1,0.29c-0.01,0.11-0.06,1.41-0.04,1.64   c0.02,0.15,0.05,0.22,0.13,0.21c0.06-0.01,0.09-0.07,0.1-0.19c0.01-0.11,0.04-0.29,0.13-0.51c0.13-0.33,0.38-0.43,1.02-0.53   l1.63-0.26l0.69,5.74c0.16,1.29,0.29,2.39,0.31,2.99c0.02,0.41-0.01,0.72-0.22,0.81c-0.1,0.04-0.22,0.09-0.39,0.1   c-0.13,0.02-0.17,0.06-0.16,0.13c0.02,0.1,0.1,0.13,0.24,0.11c0.44-0.05,1.13-0.18,1.38-0.21c0.31-0.04,1-0.08,1.73-0.17   c0.12-0.01,0.21-0.06,0.19-0.16c0-0.07-0.06-0.11-0.18-0.09c-0.17,0.02-0.41,0.02-0.57,0.01c-0.34-0.02-0.44-0.32-0.52-0.7   c-0.13-0.6-0.26-1.7-0.42-2.99l-0.69-5.74l1.39-0.13c0.98-0.09,1.32,0.27,1.39,0.63l0.03,0.15c0.03,0.21,0.06,0.27,0.15,0.27   C77.1,86.28,77.11,86.19,77.1,86.05 M81.8,90.02c0.05,0,0.06-0.05,0.05-0.09l-1.36-3.36c-0.02-0.06-0.03-0.12-0.07-0.12   c-0.03,0-0.05,0.08-0.05,0.13l-0.64,3.55c0,0.06,0.01,0.1,0.05,0.1L81.8,90.02 M94.08,82.58c0.14-0.01,0.26-0.01,0.26,0.1   c0.01,0.09-0.06,0.13-0.19,0.14c-0.11,0.01-0.2,0.02-0.33,0.08c-0.3,0.13-0.36,0.44-0.3,1.23L94.17,93   c0.02,0.31-0.01,0.44-0.11,0.45c-0.12,0.01-0.27-0.13-0.4-0.28c-0.77-0.78-2.34-2.5-3.61-3.85c-1.33-1.41-2.71-3.06-2.93-3.31   l-0.03,0l0.64,5.89c0.12,1.09,0.29,1.45,0.52,1.53c0.2,0.07,0.4,0.06,0.58,0.05c0.12-0.01,0.19,0.02,0.2,0.1   c0.01,0.11-0.09,0.15-0.24,0.16c-0.72,0.06-1.16,0.06-1.37,0.08c-0.1,0-0.61,0.09-1.19,0.14c-0.08,0.01-0.15,0-0.19-0.02   c-0.07,0.03-0.2,0.06-0.43,0.08c-0.39,0.04-1.2,0.13-2.08,0.19c-0.2,0-0.33,0.02-0.34-0.08c-0.01-0.08,0.03-0.12,0.14-0.14   c0.07-0.03,0.14-0.17,0.06-0.33l-1.2-2.88c-0.03-0.07-0.07-0.09-0.12-0.09l-2.45,0.26c-0.05,0-0.07,0.03-0.09,0.12l-0.38,2.07   c-0.07,0.36-0.09,0.71-0.07,0.87c0.03,0.25,0.14,0.42,0.49,0.39l0.16-0.02c0.13-0.02,0.16,0.01,0.18,0.1   c0.01,0.11-0.05,0.14-0.17,0.16c-0.35,0.04-0.83,0.05-1.17,0.08c-0.12,0.02-0.72,0.12-1.29,0.18c-0.14,0.02-0.21,0-0.22-0.12   c-0.01-0.08,0.03-0.11,0.12-0.12c0.1-0.01,0.26-0.05,0.34-0.07c0.5-0.13,0.66-0.64,0.8-1.36l1.82-9.1   c0.09-0.42,0.14-0.58,0.25-0.59c0.1-0.01,0.18,0.11,0.32,0.42c0.34,0.74,2.71,6.27,3.64,8.33c0.55,1.22,0.89,1.38,1.13,1.43   c0.17,0.03,0.33,0.02,0.47,0.01c0.03,0,0.06,0,0.09,0c0.02-0.01,0.06-0.02,0.11-0.02c0.14-0.02,0.34-0.05,0.49-0.11   c0.28-0.14,0.29-0.55,0.19-1.77L86.2,83.5c-0.03-0.28-0.01-0.48,0.1-0.49c0.12-0.01,0.23,0.16,0.44,0.4   c0.15,0.17,2.02,2.31,3.81,4.21c0.83,0.89,2.49,2.79,2.7,2.99l0.05,0l-0.66-6.3c-0.09-0.86-0.21-1.12-0.48-1.23   c-0.17-0.07-0.44-0.05-0.59-0.04c-0.14,0.01-0.18-0.03-0.19-0.11c-0.01-0.11,0.11-0.14,0.27-0.15c0.58-0.05,1.11-0.05,1.33-0.07   C93.12,82.7,93.54,82.62,94.08,82.58 M102.72,81.9c-0.09,0.01-0.35,0.17-1.05,0.21L97.3,82.4c-0.36,0.02-0.79,0.02-1.11,0   c-0.28-0.01-0.39-0.14-0.48-0.14c-0.07,0-0.1,0.09-0.12,0.28c-0.01,0.11-0.14,1.41-0.12,1.63c0.01,0.15,0.03,0.22,0.11,0.22   c0.06,0,0.1-0.06,0.11-0.18c0.02-0.11,0.06-0.29,0.16-0.51c0.14-0.32,0.4-0.41,1.04-0.48l1.64-0.17l0.38,5.77   c0.08,1.29,0.16,2.41,0.14,3c0,0.41-0.05,0.72-0.27,0.8c-0.1,0.03-0.23,0.07-0.4,0.08c-0.13,0.01-0.18,0.05-0.17,0.12   c0.01,0.1,0.09,0.14,0.23,0.13c0.44-0.03,1.13-0.12,1.38-0.13c0.31-0.02,1-0.02,1.73-0.08c0.13,0,0.21-0.05,0.2-0.16   c0-0.07-0.06-0.1-0.18-0.1c-0.17,0.01-0.41,0-0.57-0.02c-0.34-0.04-0.42-0.34-0.48-0.73c-0.1-0.6-0.17-1.72-0.25-3.01l-0.38-5.77   l1.39-0.05c0.99-0.03,1.31,0.34,1.36,0.71l0.02,0.15c0.03,0.21,0.05,0.27,0.14,0.27c0.07-0.01,0.08-0.09,0.08-0.24   c-0.02-0.36-0.05-1.33-0.07-1.63C102.81,81.98,102.8,81.9,102.72,81.9 M113.12,87.82c0.05,0,0.06-0.04,0.05-0.09l-1.11-3.45   c-0.01-0.05-0.03-0.12-0.06-0.12c-0.03,0-0.05,0.07-0.06,0.12l-0.9,3.5c-0.01,0.06,0,0.1,0.05,0.1L113.12,87.82 M116.99,91.82   c0.09,0,0.14,0.01,0.15,0.11c0,0.11-0.1,0.14-0.51,0.16c-0.4,0.01-1.2,0.04-2.09,0.04c-0.2-0.01-0.33,0-0.34-0.1   c0-0.08,0.04-0.11,0.15-0.13c0.08-0.03,0.15-0.16,0.09-0.33l-0.99-2.96c-0.02-0.07-0.06-0.1-0.11-0.1l-2.46,0.08   c-0.06,0-0.07,0.03-0.1,0.12l-0.53,2.03c-0.1,0.36-0.14,0.69-0.14,0.86c0.01,0.26,0.12,0.43,0.46,0.42l0.16-0.01   c0.13,0,0.16,0.02,0.17,0.11c0,0.11-0.06,0.14-0.18,0.14c-0.35,0.01-0.83-0.02-1.17,0c-0.12,0-0.73,0.06-1.3,0.09   c-0.07,0-0.12,0-0.15-0.02c-0.04,0.03-0.09,0.05-0.16,0.06c-0.73,0.04-1.43,0.03-1.72,0.04c-0.26,0.01-0.95,0.09-1.39,0.11   c-0.14,0.01-0.22-0.03-0.23-0.12c0-0.07,0.04-0.12,0.17-0.13c0.17,0,0.3-0.04,0.39-0.08c0.22-0.07,0.27-0.31,0.29-0.72   c0.02-0.59-0.03-1.71-0.1-3.07l-0.13-2.48c-0.11-2.14-0.13-2.53-0.17-2.98c-0.05-0.48-0.17-0.71-0.41-0.77   c-0.12-0.04-0.27-0.05-0.4-0.04c-0.11,0.01-0.18-0.02-0.19-0.13c0-0.08,0.08-0.11,0.26-0.12c0.42-0.02,1.12-0.02,1.43-0.03   c0.28-0.02,0.93-0.09,1.35-0.11c0.14-0.01,0.23,0.02,0.24,0.1c0,0.11-0.06,0.14-0.17,0.15c-0.11,0-0.2,0.03-0.33,0.06   c-0.3,0.09-0.37,0.33-0.37,0.82c0,0.45,0.02,0.85,0.12,2.99l0.13,2.47c0.07,1.37,0.12,2.48,0.2,3.08c0.05,0.38,0.14,0.63,0.48,0.67   c0.15,0.02,0.4,0.04,0.56,0.03c0.04,0,0.07,0,0.1,0.01c0.02-0.03,0.05-0.04,0.11-0.04c0.1,0,0.26-0.02,0.34-0.04   c0.51-0.1,0.7-0.59,0.9-1.3l2.47-8.94c0.11-0.41,0.18-0.57,0.29-0.57c0.1-0.01,0.17,0.12,0.29,0.44c0.29,0.77,2.26,6.45,3.04,8.57   c0.46,1.25,0.79,1.44,1.02,1.5C116.69,91.82,116.86,91.83,116.99,91.82 M124.11,81.36c-0.51,0-1.15,0.05-1.6,0.05   c-0.31,0-1.01-0.04-1.59-0.03c-0.16,0-0.24,0.03-0.24,0.13c0,0.1,0.07,0.13,0.19,0.13c0.15,0,0.34,0.01,0.43,0.04   c0.37,0.1,0.45,0.32,0.48,0.8c0.02,0.46,0.02,0.85,0.03,2.99l0.01,2.48c0.01,1.3,0.01,2.41-0.04,3c-0.04,0.41-0.1,0.72-0.32,0.78   c-0.1,0.03-0.23,0.06-0.4,0.06c-0.13,0-0.18,0.04-0.18,0.11c0,0.1,0.08,0.14,0.23,0.14c0.44,0,1.13-0.05,1.39-0.05   c0.29,0,0.98,0.03,1.72,0.03c0.12,0,0.21-0.04,0.21-0.14c0-0.07-0.06-0.11-0.18-0.11c-0.16,0-0.4-0.03-0.56-0.06   c-0.33-0.05-0.4-0.37-0.43-0.76c-0.06-0.61-0.06-1.72-0.07-3.02l-0.02-5.64c0-0.16,0.03-0.24,0.09-0.27   c0.1-0.04,0.26-0.06,0.43-0.06c0.25,0,0.71,0.08,1.1,0.55c0.63,0.7,0.66,1.64,0.66,2.11c0.01,1.44-0.85,2.33-1.47,2.33   c-0.23,0-0.31,0.05-0.31,0.16c0,0.1,0.08,0.11,0.13,0.13c0.05,0.01,0.18,0.01,0.23,0.01c1.57-0.01,2.71-1.42,2.71-3.42   c-0.01-0.75-0.32-1.38-0.56-1.67C125.99,81.94,125.49,81.35,124.11,81.36 M133.48,89.95c-0.08,0-0.1,0.05-0.12,0.21   c-0.09,0.58-0.22,0.88-0.51,1.04c-0.29,0.17-0.75,0.16-1.04,0.16c-1.13-0.02-1.3-0.23-1.31-1.21c0-0.41,0.03-1.7,0.03-2.18   l0.02-1.11c0-0.09,0.02-0.14,0.07-0.14c0.26,0,1.36,0.03,1.57,0.07c0.41,0.06,0.56,0.27,0.61,0.56c0.03,0.18,0.03,0.36,0.03,0.51   c0,0.07,0.02,0.12,0.1,0.12c0.1,0,0.1-0.15,0.1-0.26c0-0.1,0.03-0.66,0.06-0.95c0.05-0.72,0.11-0.94,0.11-1.03   c0-0.08-0.03-0.11-0.08-0.11c-0.05,0-0.1,0.07-0.18,0.18c-0.1,0.14-0.27,0.18-0.54,0.21c-0.25,0.03-1.52,0-1.77,0   c-0.06,0-0.07-0.06-0.07-0.15l0.05-3.57c0-0.1,0.02-0.14,0.07-0.14c0.22,0,1.38,0.05,1.57,0.08c0.55,0.09,0.66,0.26,0.73,0.52   c0.05,0.17,0.06,0.41,0.06,0.51c0,0.13,0.02,0.19,0.1,0.2c0.08,0,0.1-0.08,0.11-0.15c0.02-0.17,0.05-0.79,0.07-0.93   c0.05-0.65,0.1-0.82,0.1-0.91c0-0.07-0.01-0.13-0.06-0.13c-0.06,0-0.12,0.04-0.18,0.05c-0.09,0.03-0.27,0.05-0.48,0.08   c-0.21,0.01-2.41-0.03-2.76-0.03c-0.31-0.01-1-0.05-1.59-0.06c-0.17,0-0.25,0.03-0.25,0.12c0,0.1,0.06,0.13,0.18,0.13   c0.16,0,0.34,0.02,0.43,0.05c0.37,0.11,0.45,0.33,0.47,0.81c0.02,0.45,0.01,0.85-0.02,2.99l-0.04,2.48c-0.02,1.3-0.03,2.41-0.1,3   c-0.05,0.41-0.11,0.72-0.33,0.77c-0.1,0.03-0.24,0.06-0.4,0.05c-0.13,0-0.18,0.04-0.18,0.11c0,0.1,0.07,0.14,0.22,0.14   c0.44,0,1.14-0.03,1.39-0.02c0.66,0.01,1.39,0.11,3.06,0.13c0.42,0,0.52,0.01,0.6-0.36c0.06-0.28,0.16-1.24,0.17-1.56   C133.57,90.07,133.57,89.95,133.48,89.95 M138.43,87.18c0.44,0.02,0.59-0.04,0.79-0.21c0.34-0.3,0.68-0.94,0.72-2.09   c0.07-2-0.95-2.61-1.6-2.63c-0.28-0.01-0.48,0-0.59,0.04c-0.08,0.02-0.1,0.08-0.11,0.19l-0.14,4.29c-0.01,0.15,0.02,0.21,0.09,0.26   C137.83,87.12,138.16,87.17,138.43,87.18 M143.49,92.16c0.09,0,0.13,0.05,0.13,0.12c-0.01,0.11-0.08,0.14-0.22,0.13l-1.05-0.03   c-0.61-0.03-0.89-0.1-1.17-0.31c-0.46-0.34-0.86-1.01-1.44-2.12c-0.42-0.79-0.89-1.76-1.03-1.98c-0.06-0.09-0.12-0.11-0.19-0.11   l-0.96-0.06c-0.05,0-0.09,0.03-0.1,0.11l-0.01,0.2c-0.04,1.31-0.08,2.42-0.04,3.02c0.02,0.41,0.07,0.72,0.41,0.79   c0.16,0.03,0.4,0.07,0.53,0.08c0.09,0,0.13,0.04,0.13,0.11c0,0.1-0.08,0.14-0.23,0.13c-0.64-0.02-1.46-0.09-1.62-0.1   c-0.21,0-0.9,0.01-1.35,0c-0.15,0-0.22-0.05-0.21-0.15c0-0.07,0.04-0.11,0.18-0.11c0.16,0.01,0.3-0.02,0.4-0.04   c0.22-0.05,0.29-0.36,0.34-0.76c0.08-0.59,0.11-1.7,0.16-2.99l0.08-2.48c0.08-2.14,0.09-2.54,0.09-2.99   c-0.01-0.48-0.09-0.71-0.45-0.82c-0.08-0.03-0.27-0.05-0.43-0.06c-0.12,0-0.19-0.03-0.18-0.13c0.01-0.1,0.08-0.12,0.25-0.12   c0.59,0.02,1.28,0.09,1.52,0.1c0.37,0.01,1.22,0,1.56,0.01c0.7,0.02,1.43,0.13,2.01,0.67c0.3,0.28,0.71,1.01,0.68,1.96   c-0.04,1.04-0.41,1.99-1.57,3.1c0.93,1.61,1.65,2.89,2.27,3.79c0.59,0.84,1.04,0.95,1.2,1C143.31,92.14,143.41,92.16,143.49,92.16    M151.72,82.26c-0.28-0.11-0.73-0.28-1.45-0.32c-1.53-0.09-2.62,0.96-2.71,2.51c-0.06,1.14,0.29,2.15,1.43,3.43l0.48,0.54   c0.86,0.95,0.99,1.62,0.95,2.31c-0.04,0.75-0.58,1.57-1.57,1.52c-0.68-0.04-1.31-0.46-1.49-1.51c-0.04-0.24-0.07-0.54-0.06-0.72   c0.01-0.11,0-0.24-0.1-0.24c-0.09-0.01-0.13,0.15-0.15,0.35c-0.02,0.23-0.11,1.07-0.16,1.85c-0.02,0.31,0.01,0.38,0.18,0.49   c0.46,0.3,0.95,0.42,1.58,0.46c0.59,0.04,1.22-0.06,1.8-0.47c0.83-0.62,1.13-1.57,1.18-2.39c0.08-1.34-0.35-2.31-1.6-3.7   l-0.29-0.32c-0.87-0.94-1.09-1.45-1.05-2.1c0.05-0.84,0.58-1.42,1.4-1.37c0.71,0.04,1.01,0.48,1.16,0.76   c0.21,0.38,0.24,0.82,0.23,0.95c-0.01,0.17,0.02,0.26,0.1,0.26c0.09,0.01,0.13-0.11,0.14-0.41c0.06-1.1,0.13-1.51,0.14-1.69   C151.87,82.35,151.82,82.3,151.72,82.26 M161.06,83.09c-0.33-0.07-0.67-0.22-1.08-0.32c-0.5-0.12-0.91-0.21-1.59-0.26   c-1.64-0.13-2.73,0.36-3.6,1.23c-1.15,1.16-1.51,2.8-1.58,3.75c-0.11,1.36,0.06,2.96,1.05,4.25c0.92,1.19,2.15,1.7,3.66,1.82   c0.71,0.06,1.55,0.03,2.01-0.17c0.19-0.08,0.24-0.15,0.32-0.39c0.15-0.47,0.37-1.68,0.39-1.85c0.01-0.11,0-0.21-0.08-0.22   c-0.09,0-0.11,0.05-0.16,0.27c-0.06,0.26-0.24,0.65-0.45,0.9c-0.49,0.61-1.09,0.71-2.07,0.63c-1.48-0.11-3.35-1.92-3.09-5.27   c0.11-1.37,0.42-2.68,1.3-3.56c0.53-0.53,1.18-0.79,2.14-0.71c1.01,0.08,1.84,0.52,2.17,1.04c0.24,0.39,0.35,0.89,0.33,1.32   c-0.02,0.2,0,0.31,0.09,0.32c0.1,0,0.13-0.1,0.15-0.31c0.04-0.28,0.09-1.06,0.15-1.52c0.06-0.49,0.1-0.66,0.11-0.76   C161.22,83.18,161.18,83.11,161.06,83.09 M165.75,83.34c-0.42-0.04-1.07-0.05-1.35-0.08c-0.31-0.03-1.01-0.14-1.43-0.17   c-0.18-0.02-0.26,0.01-0.27,0.09c-0.02,0.11,0.05,0.15,0.16,0.16c0.13,0.01,0.27,0.04,0.39,0.1c0.24,0.09,0.33,0.34,0.3,0.82   c-0.02,0.45-0.05,0.84-0.25,2.97l-0.22,2.47c-0.12,1.36-0.22,2.47-0.33,3.05c-0.07,0.4-0.16,0.63-0.39,0.67   c-0.1,0.02-0.24,0.03-0.4,0.02c-0.13-0.01-0.18,0.03-0.19,0.1c-0.01,0.1,0.06,0.15,0.21,0.16c0.44,0.04,1.14,0.06,1.39,0.08   c0.29,0.03,0.99,0.13,1.71,0.2c0.12,0.01,0.21-0.02,0.22-0.12c0.01-0.07-0.04-0.11-0.16-0.13c-0.16-0.02-0.41-0.07-0.55-0.11   c-0.33-0.09-0.39-0.35-0.39-0.73c0.01-0.61,0.12-1.72,0.24-3.08l0.23-2.47c0.2-2.14,0.23-2.53,0.29-2.97   c0.07-0.49,0.18-0.72,0.48-0.77c0.13-0.01,0.22-0.02,0.33-0.01c0.11,0.01,0.18-0.01,0.19-0.13   C165.98,83.38,165.89,83.35,165.75,83.34 M172.83,83.94c-0.06-0.01-0.12,0.03-0.18,0.04c-0.09,0.02-0.27,0.03-0.48,0.03   c-0.21-0.01-2.4-0.23-2.75-0.27c-0.31-0.03-0.99-0.15-1.58-0.21c-0.16-0.02-0.25,0-0.26,0.1c-0.01,0.1,0.06,0.13,0.18,0.14   c0.15,0.02,0.34,0.05,0.42,0.09c0.35,0.13,0.42,0.37,0.39,0.85c-0.03,0.45-0.06,0.84-0.28,2.97l-0.26,2.47   c-0.13,1.29-0.25,2.4-0.36,2.98c-0.09,0.4-0.17,0.71-0.4,0.74c-0.1,0.02-0.23,0.03-0.4,0.02c-0.13-0.01-0.18,0.02-0.19,0.09   c-0.01,0.1,0.06,0.15,0.2,0.17c0.44,0.04,1.14,0.08,1.39,0.1c0.65,0.06,1.37,0.22,3.04,0.4c0.42,0.04,0.52,0.05,0.63-0.31   c0.08-0.27,0.27-1.22,0.3-1.54c0.01-0.14,0.03-0.25-0.06-0.27c-0.08,0-0.11,0.05-0.15,0.2c-0.14,0.57-0.3,0.85-0.6,0.99   c-0.31,0.14-0.77,0.09-1.05,0.06c-1.12-0.12-1.27-0.34-1.2-1.32c0.03-0.41,0.17-1.69,0.22-2.17l0.11-1.1   c0.01-0.09,0.03-0.14,0.08-0.13c0.26,0.03,1.35,0.15,1.56,0.21c0.4,0.09,0.53,0.32,0.55,0.61c0.02,0.19,0,0.37,0,0.51   c-0.01,0.07,0,0.13,0.08,0.13c0.1,0.01,0.11-0.14,0.13-0.25c0-0.1,0.09-0.66,0.14-0.93c0.1-0.71,0.18-0.93,0.2-1.01   c0.01-0.09-0.03-0.12-0.07-0.12c-0.05-0.01-0.1,0.06-0.19,0.16c-0.12,0.13-0.28,0.16-0.55,0.16c-0.26,0-1.52-0.13-1.76-0.15   c-0.07-0.01-0.07-0.06-0.06-0.16l0.37-3.55c0.02-0.1,0.03-0.14,0.1-0.13c0.22,0.02,1.37,0.17,1.56,0.22   c0.54,0.14,0.63,0.32,0.68,0.58c0.04,0.17,0.02,0.41,0.01,0.51c-0.01,0.13,0.01,0.2,0.08,0.2c0.08,0.01,0.11-0.07,0.13-0.14   c0.03-0.17,0.12-0.78,0.15-0.92c0.1-0.64,0.17-0.8,0.18-0.9C172.89,84,172.89,83.94,172.83,83.94 M183.54,85.31   c-0.54-0.06-0.96-0.07-1.08-0.08c-0.22-0.03-0.75-0.14-1.32-0.2c-0.16-0.02-0.29-0.02-0.3,0.09c-0.01,0.08,0.03,0.13,0.16,0.15   c0.15,0.02,0.42,0.05,0.57,0.15c0.25,0.17,0.32,0.45,0.22,1.31l-0.65,6.3l-0.05-0.01c-0.16-0.24-1.4-2.44-2.03-3.48   c-1.35-2.22-2.75-4.7-2.86-4.9c-0.16-0.27-0.23-0.47-0.35-0.48c-0.11-0.01-0.17,0.18-0.2,0.46l-1.1,8.27   c-0.16,1.22-0.26,1.62-0.55,1.69c-0.16,0.04-0.36,0.03-0.5,0.02c-0.11-0.02-0.18,0.01-0.19,0.09c-0.02,0.13,0.08,0.15,0.22,0.17   c0.57,0.07,1.09,0.09,1.19,0.1c0.2,0.02,0.64,0.12,1.35,0.21c0.15,0.02,0.25,0,0.27-0.11c0.01-0.09-0.05-0.12-0.17-0.13   c-0.18-0.03-0.39-0.06-0.56-0.17c-0.21-0.12-0.31-0.5-0.2-1.6l0.59-5.9l0.03,0.01c0.16,0.29,1.17,2.18,2.18,3.84   c0.97,1.58,2.15,3.58,2.74,4.5c0.1,0.17,0.22,0.34,0.34,0.35c0.1,0.01,0.15-0.11,0.19-0.42l1.19-8.82   c0.11-0.79,0.23-1.07,0.55-1.14c0.13-0.03,0.22-0.02,0.33,0c0.13,0.02,0.2-0.02,0.21-0.1C183.79,85.35,183.69,85.33,183.54,85.31    M192.16,86.69c0.03-0.21,0.03-0.29-0.05-0.31c-0.08-0.01-0.37,0.09-1.07,0l-4.34-0.6c-0.36-0.05-0.77-0.14-1.08-0.22   c-0.27-0.06-0.36-0.22-0.44-0.23c-0.07-0.01-0.11,0.07-0.17,0.25c-0.04,0.11-0.42,1.35-0.45,1.57c-0.02,0.15,0,0.23,0.07,0.24   c0.07,0.01,0.1-0.05,0.15-0.15c0.03-0.11,0.11-0.27,0.25-0.46c0.21-0.29,0.48-0.32,1.12-0.26l1.64,0.17l-0.79,5.73   c-0.18,1.29-0.33,2.38-0.47,2.96c-0.09,0.4-0.2,0.7-0.43,0.73c-0.1,0.02-0.24,0.02-0.4,0c-0.13-0.02-0.18,0.02-0.2,0.09   c-0.01,0.1,0.06,0.15,0.2,0.17c0.44,0.06,1.14,0.12,1.39,0.15c0.31,0.05,0.99,0.18,1.71,0.28c0.12,0.02,0.22-0.01,0.22-0.11   c0.01-0.07-0.04-0.12-0.16-0.13c-0.16-0.02-0.4-0.09-0.55-0.13c-0.32-0.1-0.34-0.42-0.32-0.82c0.03-0.61,0.18-1.71,0.35-2.99   l0.79-5.73l1.38,0.24c0.96,0.16,1.21,0.59,1.18,0.96l-0.01,0.16c-0.01,0.21,0,0.28,0.09,0.29c0.06,0.01,0.1-0.07,0.13-0.21   C191.95,87.95,192.12,86.98,192.16,86.69 M201.09,94.21c0.05,0.01,0.07-0.03,0.07-0.08l-0.44-3.59c0-0.06,0-0.13-0.03-0.14   c-0.03,0-0.07,0.06-0.09,0.12l-1.54,3.27c-0.02,0.05-0.02,0.1,0.03,0.1L201.09,94.21 M215.26,100.63c0.1,0.02,0.17,0.05,0.16,0.13   c-0.02,0.11-0.16,0.13-0.31,0.11c-0.27-0.05-1.78-0.33-2.2-0.44c-0.25-0.07-0.31-0.12-0.29-0.2c0.01-0.07,0.06-0.11,0.14-0.14   c0.08-0.02,0.13-0.19,0.15-0.59l0.32-6.23l-0.04-0.01l-3.39,5.94c-0.36,0.61-0.43,0.73-0.53,0.72c-0.1-0.02-0.17-0.31-0.27-0.76   c-0.16-0.68-0.68-2.95-0.76-3.37c-0.05-0.31-0.43-2.16-0.64-3.27l-0.04-0.01l-1.45,5.46c-0.06,0.24-0.1,0.42-0.14,0.65   c-0.04,0.26,0.08,0.41,0.26,0.5c0.19,0.09,0.34,0.12,0.45,0.14c0.09,0.02,0.16,0.05,0.15,0.13c-0.02,0.12-0.13,0.13-0.29,0.11   c-0.46-0.07-0.94-0.2-1.14-0.22c-0.21-0.03-0.74-0.08-1.09-0.13c-0.05-0.01-0.1-0.03-0.13-0.05c-0.07,0.02-0.21,0.01-0.45-0.03   c-0.39-0.06-1.19-0.19-2.06-0.36c-0.19-0.04-0.33-0.06-0.31-0.16c0.01-0.08,0.06-0.11,0.17-0.1c0.08-0.02,0.18-0.13,0.15-0.31   l-0.41-3.09c-0.01-0.07-0.04-0.11-0.09-0.12l-2.44-0.38c-0.05-0.01-0.08,0.02-0.11,0.1l-0.9,1.9c-0.16,0.33-0.27,0.65-0.3,0.82   c-0.04,0.25,0.03,0.45,0.37,0.5l0.16,0.02c0.13,0.02,0.16,0.05,0.14,0.13c-0.02,0.11-0.09,0.13-0.21,0.11   c-0.35-0.06-0.81-0.17-1.15-0.22c-0.12-0.02-0.73-0.07-1.29-0.16c-0.07-0.01-0.13-0.03-0.16-0.06c-0.04,0.02-0.1,0.03-0.17,0.02   c-0.72-0.11-1.4-0.25-1.7-0.29c-0.25-0.04-0.95-0.1-1.38-0.16c-0.14-0.02-0.21-0.08-0.2-0.17c0.01-0.07,0.06-0.11,0.19-0.09   c0.16,0.03,0.29,0.02,0.4,0c0.22-0.02,0.33-0.25,0.42-0.65c0.14-0.58,0.3-1.68,0.51-3.03l0.37-2.46c0.31-2.12,0.37-2.51,0.42-2.96   c0.05-0.48-0.03-0.73-0.26-0.84c-0.11-0.06-0.26-0.09-0.39-0.11c-0.11-0.02-0.17-0.06-0.15-0.17c0.02-0.08,0.1-0.09,0.28-0.07   c0.42,0.06,1.09,0.2,1.41,0.25c0.27,0.04,0.93,0.1,1.34,0.16c0.14,0.02,0.23,0.06,0.21,0.14c-0.01,0.11-0.08,0.13-0.19,0.11   c-0.11-0.02-0.2-0.02-0.33-0.01c-0.31,0.02-0.43,0.25-0.52,0.74c-0.09,0.44-0.14,0.83-0.46,2.95l-0.37,2.46   c-0.2,1.35-0.37,2.45-0.41,3.06c-0.02,0.38,0.02,0.65,0.34,0.75c0.15,0.05,0.39,0.12,0.55,0.14c0.05,0.01,0.09,0.02,0.11,0.04   c0.03-0.02,0.06-0.02,0.11-0.02c0.1,0.02,0.25,0.03,0.34,0.03c0.51,0,0.8-0.44,1.12-1.11l4.12-8.31c0.19-0.38,0.29-0.52,0.4-0.51   c0.1,0.02,0.14,0.15,0.2,0.49c0.14,0.8,0.99,6.76,1.35,8.99c0.22,1.32,0.5,1.57,0.72,1.67c0.15,0.07,0.32,0.11,0.45,0.13   c0.03,0,0.05,0.01,0.07,0.02c0.03-0.01,0.07-0.01,0.12,0c0.09,0.01,0.17,0.03,0.34,0.01c0.32-0.03,0.49-0.56,0.62-1.02l2.52-8.9   c0.07-0.23,0.16-0.35,0.25-0.34c0.08,0.02,0.14,0.1,0.22,0.48l1.73,8.32l4.23-7.48c0.11-0.21,0.19-0.31,0.29-0.3   c0.1,0.02,0.14,0.17,0.13,0.47l-0.37,8.76c-0.04,0.9,0,1.32,0.31,1.49C214.9,100.56,215.12,100.6,215.26,100.63 M74.56,40.4   c-0.44-0.04-0.66-0.27-0.77-0.46c-0.12-0.22-0.11-0.45-0.06-0.64c0.09-0.55,0.81-0.67,2.44-0.8c0.19-0.02,0.48-0.05,0.81-0.09   c0.69-0.08,1.55-0.18,2.07-0.18c0.28,0,0.45,0.02,0.59,0.09c1.05,0.5,24.51,17.29,29.63,20.96l-1.51-17.93   c-0.24-2.69-0.66-3-1.69-3.14c-0.81-0.09-1.9-0.05-2.27-0.03l-0.12,0c-0.51,0-0.84-0.29-0.87-0.77c-0.02-0.19,0.05-0.38,0.18-0.53   c0.24-0.28,0.64-0.36,1.28-0.4c1.47-0.11,3.02-0.16,4.03-0.2c0.48-0.02,0.85-0.03,1.01-0.05c0.18-0.01,0.47-0.05,0.86-0.09   c0.78-0.09,1.93-0.22,3.25-0.31c1.25-0.1,1.46,0.4,1.48,0.72c0.02,0.28-0.12,0.55-0.38,0.72c-0.17,0.11-0.39,0.17-0.65,0.19   c-0.22,0.02-0.52,0.03-1.04,0.18c-1.09,0.27-1.32,0.59-1.14,3.1c0.02,0.2,1.82,20.63,2.02,25.53c0.02,0.54-0.16,0.84-0.31,1   c-0.34,0.35-0.88,0.38-1.4,0.06c-4.22-2.63-24.68-16.85-29.93-20.64l3.09,16.49c0.6,2.44,1.25,3.52,2.23,3.68   c0.39,0.05,0.89,0.08,1.43,0.08c0.37,0,0.69-0.02,0.88-0.03h0.01c0.68,0,0.96,0.36,0.99,0.72c0.06,0.87-1.01,0.95-1.36,0.97   c-3.26,0.23-4.88,0.34-5.33,0.31c-0.9,0.18-3.33,0.63-4.92,0.74c-0.13,0.01-0.24,0.02-0.34,0.02c-0.89,0-1.03-0.55-1.04-0.79   c-0.03-0.4,0.24-0.81,0.88-0.86c0.48-0.03,1.25-0.14,1.82-0.35c1.3-0.4,1.01-3.01,0.73-4.53c-0.52-2.78-3.02-16.69-3.73-20.65   c-0.39-1.95-1.59-2.02-2.39-2.07C74.81,40.43,74.66,40.42,74.56,40.4 M143.61,37.25c-0.96-0.63-3.52-2.3-10.54-2.3h-0.26   c-1.55,0.01-3.33,0.06-4.79,0.1c-0.98,0.03-1.81,0.06-2.31,0.06c-0.13,0-0.54,0.01-1.1,0.03c-1.3,0.04-3.49,0.11-5.26,0.12   c-0.55,0-0.96,0.06-1.23,0.32c-0.14,0.15-0.22,0.34-0.22,0.55c0,0.29,0.17,0.54,0.45,0.68c0.19,0.09,0.4,0.11,0.59,0.11h0   c0.57,0,1.41,0.04,1.78,0.11c1.66,0.24,1.87,0.72,1.96,1.76c0.12,1.27,0.13,2.21,0.16,8.32l0.04,7.01   c0.02,3.79,0.04,7.72-0.22,9.33c-0.24,1.28-0.49,1.66-1.16,1.76c-0.61,0.1-1.21,0.16-1.61,0.16c-0.34,0-0.61,0.09-0.79,0.28   c-0.14,0.14-0.21,0.33-0.21,0.52c0.01,0.86,1.06,0.86,1.41,0.86h0.05c1.25-0.01,3.53-0.09,4.7-0.13c0.39-0.01,0.65-0.02,0.71-0.02   c0.08,0,0.32,0,0.69,0.01c1.11,0.03,3.32,0.07,5.46,0.07h0.77c1.2-0.01,1.45-0.48,1.45-0.88c0-0.29-0.21-0.78-1.02-0.78   c-0.49,0-1.69-0.07-2.47-0.14c-1.27-0.12-1.54-0.6-1.72-1.73c-0.28-1.58-0.3-5.39-0.32-9.06l-0.1-16.66c0-0.18,0.02-0.24,0.06-0.23   c0.42-0.13,1.28-0.22,2.25-0.23l0.75-0.01c1,0,4.06,0,6.65,1.85c2.64,1.88,2.95,4.14,2.96,5.67c0.01,1.57-0.9,3.06-2.55,4.17   c-1.72,1.16-4.06,1.8-6.61,1.82c-0.99,0.01-1.52,0.02-1.84,0.34c-0.1,0.11-0.23,0.29-0.22,0.58c0,0.38,0.33,0.85,1.1,0.82   c0.25,0.03,0.73,0.04,1.06,0.04h0.19c4.01-0.02,7.64-1.01,10.22-2.77c2.68-1.84,4.14-4.44,4.13-7.35   C146.68,40.13,145.03,38.2,143.61,37.25 M172.24,61.62c0.34-3.76-1.83-6.54-8.31-10.61L162.32,50c-5.46-3.55-6.75-4.89-6.58-6.79   c0.19-2.14,2.59-3.52,6.1-3.52c0.4,0,0.8,0.02,1.21,0.05c5.29,0.45,7.89,2.69,8.18,3.12c0.25,0.36,0.5,1.35,0.51,1.79   c0.03,0.27,0.11,0.98,1.04,1.06c0.59,0,0.94-0.46,1.02-1.38c0.19-2.09,0.45-3.31,0.56-3.84c0.04-0.18,0.06-0.29,0.06-0.35   c0.03-0.32-0.1-0.59-0.37-0.74c-0.17-0.1-0.38-0.16-0.72-0.19c-0.43-0.03-0.86-0.1-2.03-0.36c-0.33-0.08-0.71-0.19-1.15-0.3   c-1.61-0.43-3.82-1.03-5.73-1.19c-0.84-0.07-1.66-0.11-2.46-0.11c-6.66,0-11.02,2.56-11.39,6.67c-0.26,2.83,0.9,5.57,7.39,9.8   l2.61,1.7c5.01,3.29,6.33,4.84,6.11,7.23c-0.19,2.16-3.01,4.51-8.59,4.03c-4.6-0.39-7.66-2.03-8.16-4.4   c-0.11-0.48-0.06-0.97-0.04-1.31c0.01-0.15,0.04-0.46-0.15-0.72c-0.2-0.28-0.52-0.33-0.84-0.35c-0.53,0-0.88,0.34-1.04,1.04   l-0.09,0.45c-0.16,0.8-0.45,2.15-0.59,3.79c-0.11,1.17-0.04,1.66,1.11,2.14c2.25,0.94,4.95,1.53,8.23,1.81   c0.93,0.08,1.84,0.12,2.73,0.12c2.61,0,4.92-0.35,6.86-1.03C170.33,66.71,172.04,63.81,172.24,61.62"/>
</g>
</svg>