<?xml version="1.0" encoding="UTF-8" standalone="no"?>
<!DOCTYPE svg PUBLIC "-//W3C//DTD SVG 1.1//EN" "http://www.w3.org/Graphics/SVG/1.1/DTD/svg11.dtd">
<svg xmlns="http://www.w3.org/2000/svg" version="1.1" viewBox="0 0 1259 133" width="1259.0pt" height="133.0pt">
<path d="M 0.00 0.00 L 1259.00 0.00 L 1259.00 133.00 L 0.00 133.00 L 0.00 88.97 C 419.40 88.96 838.80 88.97 1258.20 88.96 C 1258.20 87.70 1258.20 86.44 1258.20 85.17 C 838.81 85.19 419.39 85.14 0.00 85.20 L 0.00 0.00 Z" fill="#ffffff" />
<path d="M 392.25 0.79 L 392.89 0.76 C 393.97 0.72 395.06 0.68 396.14 0.63 C 401.13 10.97 406.11 21.31 411.12 31.64 C 416.65 32.69 422.22 33.81 426.95 37.08 C 429.61 38.96 431.90 41.60 432.06 45.01 C 432.26 47.10 430.65 48.80 429.65 50.50 C 429.60 47.81 430.36 44.78 428.51 42.50 C 425.90 39.04 420.81 37.36 416.76 36.32 C 410.12 34.72 403.01 34.75 396.26 35.66 C 388.32 36.93 380.02 40.46 375.11 47.09 C 370.48 53.32 369.30 62.55 373.81 69.16 C 376.87 73.79 381.18 76.14 385.82 78.87 C 379.56 78.25 373.76 77.41 368.73 73.28 C 363.84 69.36 361.68 63.11 362.61 56.96 C 363.64 48.99 368.99 42.76 375.52 38.51 C 382.67 33.84 390.69 31.90 399.08 31.02 C 396.57 25.63 394.07 20.24 391.56 14.86 C 388.70 20.81 385.89 26.78 383.00 32.72 C 380.23 33.96 377.51 35.27 374.81 36.67 C 380.93 24.86 386.76 12.90 392.25 0.79 Z" fill="#00457c" />
<path d="M 47.10 13.66 C 46.41 17.99 46.05 22.33 45.83 26.69 C 44.96 26.70 44.08 26.71 43.20 26.72 C 42.87 24.01 42.51 21.30 42.12 18.60 C 34.08 16.90 26.14 17.07 17.99 17.72 C 17.44 25.55 17.48 33.36 17.51 41.21 C 24.46 41.33 31.30 41.53 38.21 40.53 C 39.22 37.37 38.10 34.18 42.08 33.19 C 41.91 40.16 41.81 47.09 42.14 54.06 C 41.23 54.06 40.32 54.06 39.41 54.07 C 39.09 51.27 38.75 48.48 38.35 45.70 C 31.43 44.67 24.52 44.90 17.51 45.03 C 17.71 53.22 17.00 61.73 18.22 69.82 C 20.10 71.48 23.63 71.04 25.99 71.40 C 25.97 72.28 25.95 73.16 25.93 74.04 C 17.64 73.57 9.36 73.75 1.08 74.06 C 1.05 73.17 1.03 72.29 1.01 71.40 C 3.34 71.13 6.10 71.29 8.26 70.30 C 9.30 69.43 9.11 67.29 9.32 66.04 C 9.70 52.37 9.57 38.67 9.46 24.99 C 9.38 22.55 9.46 19.72 8.57 17.41 C 6.38 16.29 3.45 16.40 1.05 16.14 L 1.06 13.49 C 16.45 14.18 31.75 12.93 47.10 13.66 Z" fill="#00457c" />
<path d="M 788.50 13.57 C 796.84 13.95 805.16 14.00 813.50 13.58 L 813.52 16.21 C 811.12 16.43 808.51 16.50 806.22 17.23 C 805.14 19.16 805.25 21.84 805.14 24.00 C 805.03 33.99 804.89 44.00 805.08 54.00 C 805.31 58.09 805.24 62.57 808.24 65.75 C 811.60 69.47 817.25 70.35 822.00 70.47 C 826.98 70.54 833.26 69.61 837.02 66.02 C 840.48 62.66 840.63 57.49 840.93 52.99 C 841.21 44.00 841.03 34.99 840.97 26.00 C 840.89 23.28 840.98 20.34 840.25 17.69 C 838.20 16.25 834.94 16.53 832.55 16.21 L 832.56 13.57 C 839.57 13.99 846.55 13.87 853.56 13.56 L 853.50 15.71 C 851.20 16.11 848.43 16.19 846.34 17.33 C 845.39 18.05 845.47 19.87 845.30 20.95 C 844.84 31.61 845.24 42.33 844.97 53.00 C 844.77 57.12 844.61 61.94 842.66 65.66 C 840.47 69.85 836.62 72.68 832.21 74.21 C 826.15 76.29 819.33 76.42 813.05 75.47 C 808.02 74.62 802.75 72.59 799.77 68.21 C 797.26 64.72 797.22 60.13 797.03 56.00 C 796.91 44.66 797.14 33.30 796.82 21.96 C 796.64 20.56 796.78 18.35 795.69 17.30 C 793.49 16.40 790.83 16.46 788.48 16.21 L 788.50 13.57 Z" fill="#00457c" />
<path d="M 118.23 20.11 C 125.45 18.86 133.51 19.52 140.11 22.90 C 145.52 25.68 149.78 30.60 151.53 36.46 C 154.52 46.65 152.54 58.25 145.02 66.02 C 136.34 75.52 121.15 77.61 109.71 72.31 C 103.27 69.31 99.18 63.42 97.27 56.73 C 95.34 50.03 95.50 42.55 97.99 36.02 C 101.25 27.70 109.55 21.66 118.23 20.11 Z" fill="#00457c" />
<path d="M 308.79 19.65 C 315.65 35.06 321.96 50.75 328.79 66.18 C 329.52 67.67 330.25 69.34 331.37 70.57 C 332.77 71.11 334.27 71.44 335.73 71.81 C 335.71 72.55 335.69 73.29 335.67 74.03 C 328.88 73.52 322.12 73.81 315.32 74.06 C 315.31 73.23 315.30 72.41 315.28 71.58 C 317.63 71.36 319.97 71.09 322.29 70.73 C 320.85 65.69 318.76 61.04 316.82 56.18 C 309.59 56.19 302.37 56.19 295.14 56.19 C 293.48 60.78 290.21 65.66 290.07 70.59 C 292.19 71.16 294.30 71.38 296.47 71.65 C 296.45 72.45 296.44 73.24 296.43 74.04 C 290.57 73.73 284.74 73.65 278.87 74.00 C 278.88 73.26 278.88 72.52 278.88 71.77 C 280.46 71.43 282.10 71.18 283.62 70.63 C 284.93 69.22 285.76 67.28 286.59 65.57 C 293.12 51.29 299.48 37.02 305.52 22.53 C 306.34 20.54 306.77 20.26 308.79 19.65 Z" fill="#00457c" />
<path d="M 552.04 19.63 C 558.51 34.32 564.60 49.18 571.00 63.90 C 572.14 66.20 573.09 69.31 575.10 70.98 C 578.10 71.94 581.72 71.79 584.70 70.79 C 585.96 65.40 585.49 59.51 585.63 54.00 C 585.50 44.77 585.86 35.48 585.49 26.27 C 585.06 22.95 581.00 23.30 578.58 22.68 L 578.63 20.62 C 583.11 20.71 587.58 20.75 592.05 20.63 C 603.52 35.48 615.68 50.06 628.05 64.17 C 628.04 53.78 628.11 43.39 628.02 33.00 C 627.87 30.05 628.07 26.71 627.06 23.91 C 625.25 23.23 623.21 23.06 621.31 22.72 L 621.38 20.61 C 626.99 20.73 632.58 20.76 638.19 20.61 L 638.20 22.76 C 636.40 23.05 634.51 23.24 632.75 23.78 C 631.69 25.47 631.89 28.05 631.70 29.99 C 631.37 45.16 631.65 60.35 631.75 75.52 C 628.63 74.55 625.94 73.88 623.93 71.06 C 612.46 56.95 600.74 43.06 589.07 29.11 C 589.10 40.07 588.97 51.04 589.14 62.00 C 589.28 64.88 589.17 68.07 590.10 70.83 C 591.92 71.35 593.89 71.57 595.77 71.85 C 595.76 72.57 595.76 73.29 595.75 74.01 C 583.36 73.62 570.95 73.55 558.57 74.06 C 558.56 73.24 558.55 72.42 558.54 71.61 C 560.76 71.40 562.96 71.23 565.15 70.75 C 564.61 65.73 561.74 60.93 560.05 56.19 C 552.82 56.19 545.59 56.19 538.36 56.19 C 536.67 60.80 533.55 65.60 533.24 70.54 C 535.37 71.16 537.47 71.37 539.66 71.66 C 539.65 72.45 539.63 73.25 539.62 74.04 C 533.78 73.72 527.97 73.66 522.13 74.01 C 522.11 73.26 522.10 72.51 522.08 71.76 C 523.62 71.45 525.22 71.22 526.71 70.72 C 528.08 69.41 528.90 67.43 529.73 65.76 C 536.25 51.51 542.67 37.14 548.68 22.68 C 549.53 20.59 549.97 20.31 552.04 19.63 Z" fill="#00457c" />
<path d="M 736.50 20.77 C 746.44 18.20 755.83 19.96 765.48 22.65 C 764.44 26.47 763.87 30.33 763.50 34.26 C 762.77 34.26 762.04 34.26 761.31 34.26 C 761.11 32.05 761.21 29.61 760.46 27.51 C 759.28 25.08 756.48 23.84 753.97 23.28 C 748.90 22.22 743.46 22.22 738.44 23.53 C 733.92 24.74 730.13 27.72 727.73 31.73 C 724.37 37.15 723.77 43.73 724.44 49.95 C 725.17 56.41 728.39 62.46 733.68 66.32 C 739.58 70.72 747.37 71.70 754.49 70.68 C 758.75 70.08 762.22 68.14 766.12 66.53 C 765.16 68.24 764.59 70.91 762.61 71.65 C 755.26 75.18 746.42 75.85 738.47 74.35 C 731.62 73.02 725.32 69.56 721.11 63.90 C 715.64 56.72 714.59 46.70 717.24 38.22 C 720.10 29.45 727.63 22.98 736.50 20.77 Z" fill="#00457c" />
<path d="M 1127.22 22.68 C 1126.69 26.23 1126.35 29.78 1126.13 33.37 L 1123.71 33.40 C 1123.33 30.85 1124.06 26.87 1121.63 25.32 C 1115.81 21.05 1105.92 21.21 1102.20 28.19 C 1100.14 32.07 1099.63 39.43 1104.57 41.43 C 1110.59 44.08 1118.16 43.21 1124.21 45.83 C 1128.58 47.81 1130.54 52.40 1130.37 57.01 C 1130.27 64.65 1124.48 71.01 1117.59 73.61 C 1110.05 76.30 1102.00 75.36 1094.67 72.49 C 1095.00 68.50 1095.19 64.51 1095.32 60.51 C 1096.15 60.49 1096.97 60.47 1097.79 60.45 C 1098.14 62.73 1097.83 65.88 1099.11 67.83 C 1105.09 73.37 1116.67 73.79 1121.53 66.51 C 1124.30 62.32 1124.60 54.12 1119.25 51.77 C 1113.65 49.64 1106.07 50.52 1100.44 47.56 C 1095.86 45.21 1093.90 39.90 1094.32 34.98 C 1094.76 28.87 1098.56 23.64 1104.25 21.37 C 1111.98 18.12 1119.72 19.77 1127.22 22.68 Z" fill="#00457c" />
<path d="M 1215.76 20.19 C 1217.75 21.36 1219.22 23.61 1220.54 25.47 C 1225.17 32.46 1229.09 40.07 1232.89 47.54 C 1238.53 38.76 1243.68 29.67 1249.01 20.66 C 1251.12 20.69 1253.24 20.72 1255.36 20.76 C 1248.35 29.86 1241.80 39.22 1236.19 49.26 C 1234.44 52.31 1234.96 55.60 1234.90 59.00 C 1235.04 62.80 1234.73 66.86 1235.62 70.57 C 1237.61 71.56 1240.21 71.55 1242.39 71.85 L 1242.37 74.10 C 1235.04 73.74 1227.77 73.78 1220.44 74.11 C 1220.43 73.35 1220.43 72.59 1220.42 71.83 C 1222.55 71.60 1224.82 71.45 1226.87 70.87 C 1228.48 65.98 1227.62 60.11 1227.90 54.98 C 1228.23 50.59 1225.77 47.86 1223.76 44.27 C 1220.09 38.41 1216.70 32.04 1212.16 26.81 C 1210.45 24.67 1208.18 24.32 1205.71 23.54 C 1205.73 22.91 1205.75 22.29 1205.77 21.67 C 1209.01 21.12 1212.47 19.98 1215.76 20.19 Z" fill="#00457c" />
<path d="M 51.26 20.60 C 58.68 20.90 66.01 20.92 73.43 20.60 L 73.47 22.82 C 71.42 23.26 68.24 22.92 66.63 24.42 C 65.97 27.18 66.09 30.18 66.02 33.00 C 65.94 45.43 65.80 57.87 66.12 70.29 C 73.96 70.64 81.70 70.78 89.46 69.31 C 90.72 65.93 90.35 60.88 94.24 59.54 C 93.91 64.28 93.23 69.02 92.66 73.74 C 79.80 74.47 66.89 73.49 54.01 73.87 C 55.34 72.25 57.00 70.79 58.10 69.00 C 58.75 66.10 58.63 62.96 58.71 60.00 C 58.79 50.66 58.76 41.32 58.68 31.98 C 58.64 29.33 58.66 26.64 57.96 24.06 C 55.89 23.22 53.40 23.12 51.20 22.80 L 51.26 20.60 Z" fill="#00457c" />
<path d="M 152.45 20.60 C 158.30 20.75 164.14 21.00 170.00 20.76 C 175.41 20.63 181.52 20.10 186.80 21.42 C 190.45 22.32 193.19 24.92 194.38 28.47 C 196.03 33.45 194.15 38.90 190.29 42.29 C 187.32 44.90 183.83 45.84 180.18 47.06 C 186.45 55.19 192.45 63.57 199.01 71.48 C 202.35 71.48 206.42 71.96 209.53 70.60 C 210.20 68.20 210.18 65.49 210.23 63.00 C 210.35 52.67 210.34 42.33 210.25 32.00 C 210.20 29.45 210.22 26.75 209.62 24.26 C 207.71 23.09 204.97 23.18 202.80 22.82 L 202.81 20.61 C 210.22 20.93 217.60 20.84 225.00 20.60 L 225.00 22.84 C 222.82 23.15 220.28 23.18 218.27 24.13 C 217.59 26.96 217.65 30.09 217.60 33.00 C 217.54 42.67 217.56 52.33 217.58 62.00 C 217.63 64.83 217.55 67.94 218.36 70.66 C 220.43 71.39 222.82 71.51 225.00 71.76 C 225.00 72.53 225.00 73.29 225.00 74.06 C 213.76 73.66 202.48 73.69 191.23 74.02 C 186.16 67.62 181.76 60.75 176.64 54.39 C 174.27 51.40 171.78 48.51 169.50 45.45 C 173.95 45.08 178.94 45.54 182.74 42.77 C 188.19 39.10 189.04 29.47 183.40 25.61 C 178.84 22.53 172.53 23.51 167.46 24.45 C 166.79 36.24 167.03 48.18 167.02 60.00 C 167.11 63.44 166.90 67.08 167.65 70.45 C 169.61 71.53 172.29 71.48 174.46 71.79 L 174.43 74.03 C 167.10 73.63 159.78 73.84 152.45 74.06 C 152.43 73.30 152.42 72.53 152.41 71.77 C 154.54 71.54 156.80 71.39 158.87 70.83 C 159.76 69.09 159.72 66.94 159.82 65.02 C 159.99 53.68 159.97 42.34 159.86 31.00 C 159.79 28.72 159.81 26.15 159.06 23.97 C 156.97 23.24 154.59 23.12 152.41 22.84 C 152.42 22.09 152.43 21.35 152.45 20.60 Z" fill="#00457c" />
<path d="M 231.06 20.62 C 241.38 21.16 251.70 20.32 262.01 20.66 C 269.11 20.99 275.83 22.85 280.67 28.35 C 287.61 35.71 287.77 47.20 284.18 56.17 C 281.04 63.93 274.53 70.07 266.52 72.58 C 260.36 74.55 253.39 73.99 247.00 73.88 C 242.16 73.69 237.34 74.06 232.52 73.74 C 233.98 72.30 235.52 70.96 237.08 69.63 C 237.83 57.79 237.82 45.84 237.70 33.98 C 237.62 30.68 237.63 27.22 236.91 23.98 C 235.05 23.29 232.94 23.08 230.99 22.74 L 231.06 20.62 Z" fill="#00457c" />
<path d="M 430.60 20.60 C 445.30 21.20 459.87 21.22 474.56 20.60 C 474.28 24.78 474.09 28.95 473.97 33.13 C 473.16 33.13 472.36 33.13 471.56 33.12 C 471.29 30.39 471.00 27.65 470.66 24.92 C 465.93 24.47 461.19 24.31 456.44 24.28 C 455.87 34.16 456.22 44.10 456.12 54.00 C 456.20 58.93 455.94 63.94 456.46 68.85 C 456.28 72.07 461.50 71.24 463.59 71.77 C 463.58 72.53 463.57 73.29 463.55 74.04 C 456.26 73.66 448.99 73.82 441.70 74.06 L 441.66 71.78 C 443.88 71.51 446.38 71.44 448.43 70.56 C 449.36 66.87 449.06 62.79 449.17 59.00 C 449.13 47.44 449.38 35.85 448.90 24.30 C 444.21 24.47 439.04 23.92 434.49 25.17 C 433.82 27.74 433.61 30.48 433.28 33.12 C 432.51 33.12 431.73 33.12 430.96 33.13 C 430.90 28.95 430.80 24.77 430.60 20.60 Z" fill="#00457c" />
<path d="M 478.57 20.60 C 485.99 20.90 493.32 20.92 500.74 20.60 L 500.80 22.80 C 498.60 23.12 496.14 23.23 494.06 24.03 C 493.11 27.84 493.44 32.09 493.33 36.00 C 493.35 47.43 493.19 58.87 493.44 70.30 C 501.29 70.64 509.03 70.79 516.78 69.31 C 517.99 66.04 517.78 60.82 521.51 59.52 C 521.25 64.29 520.55 68.96 520.02 73.72 C 507.12 74.48 494.16 73.51 481.24 73.85 C 482.91 71.62 485.86 70.10 485.77 67.06 C 486.31 58.74 485.96 50.34 486.06 42.00 C 485.87 36.21 486.45 30.13 485.40 24.43 C 483.76 22.93 480.60 23.26 478.53 22.81 L 478.57 20.60 Z" fill="#00457c" />
<path d="M 642.84 20.60 C 657.53 21.20 672.11 21.22 686.80 20.60 C 686.50 25.02 686.38 29.46 686.08 33.88 C 682.40 32.53 683.68 28.01 682.84 24.90 C 678.13 24.48 673.41 24.31 668.68 24.28 C 668.08 35.83 668.50 47.43 668.38 59.00 C 668.49 62.80 668.07 67.08 669.22 70.73 C 671.31 71.39 673.67 71.53 675.85 71.77 C 675.83 72.53 675.82 73.29 675.80 74.05 C 668.51 73.66 661.23 73.82 653.94 74.06 C 653.94 73.30 653.94 72.53 653.94 71.77 C 656.13 71.51 658.54 71.40 660.62 70.66 C 661.63 66.97 661.29 62.81 661.41 59.00 C 661.39 47.44 661.63 35.85 661.15 24.29 C 656.32 24.29 651.49 24.39 646.68 24.82 C 646.25 27.58 645.88 30.35 645.53 33.12 C 644.76 33.12 643.98 33.13 643.20 33.13 C 643.14 28.95 643.04 24.78 642.84 20.60 Z" fill="#00457c" />
<path d="M 691.19 20.61 C 698.59 20.93 705.97 20.84 713.37 20.60 L 713.40 22.82 C 711.31 23.24 708.29 22.96 706.57 24.37 C 705.99 26.83 706.04 29.49 705.98 32.00 C 705.91 42.00 705.94 52.00 705.96 62.00 C 706.01 64.78 705.93 67.77 706.62 70.48 C 708.58 71.52 711.23 71.49 713.39 71.79 L 713.37 74.06 C 705.95 73.73 698.61 73.78 691.20 74.06 C 691.18 73.30 691.17 72.53 691.15 71.77 C 693.33 71.53 695.69 71.39 697.78 70.74 C 698.54 68.62 698.53 66.25 698.59 64.02 C 698.73 53.34 698.71 42.66 698.63 31.98 C 698.58 29.36 698.60 26.63 697.91 24.09 C 695.86 23.20 693.33 23.13 691.13 22.80 L 691.19 20.61 Z" fill="#00457c" />
<path d="M 850.80 20.75 C 855.18 20.78 859.56 20.80 863.94 20.69 C 875.43 35.57 887.60 50.14 899.98 64.29 C 899.80 50.82 900.58 37.16 899.25 23.75 C 897.27 23.46 895.29 23.20 893.31 22.95 L 893.32 20.67 C 898.93 20.79 904.52 20.81 910.13 20.68 L 910.12 22.80 C 908.22 23.16 906.02 23.27 904.26 24.14 C 903.61 26.95 903.62 30.01 903.53 32.88 C 903.27 47.10 903.57 61.36 903.62 75.57 C 901.08 74.65 898.64 74.36 896.82 72.20 C 892.96 68.03 889.60 63.38 885.95 59.03 C 877.62 49.08 869.29 39.12 860.95 29.17 C 860.97 40.11 860.85 51.06 861.02 62.00 C 861.16 64.90 861.07 68.10 861.97 70.89 C 863.77 71.45 865.76 71.63 867.62 71.91 C 867.63 72.63 867.63 73.35 867.64 74.07 C 862.02 73.79 856.42 73.85 850.81 74.10 L 850.81 71.80 C 852.80 71.57 854.78 71.32 856.76 71.04 C 857.73 63.96 857.47 57.11 857.50 50.00 C 857.41 42.29 857.67 34.56 857.42 26.86 C 857.37 23.11 853.33 23.43 850.70 22.69 L 850.80 20.75 Z" fill="#00457c" />
<path d="M 914.38 20.67 C 921.80 20.96 929.14 20.96 936.56 20.67 L 936.57 22.91 C 934.41 23.19 932.04 23.30 929.97 24.00 C 929.15 26.48 929.25 29.40 929.17 32.00 C 929.11 43.01 929.08 54.01 929.19 65.02 C 929.32 66.86 929.17 69.24 930.19 70.85 C 932.22 71.47 934.47 71.60 936.58 71.83 C 936.57 72.59 936.57 73.36 936.56 74.12 C 929.14 73.78 921.79 73.84 914.38 74.12 C 914.37 73.35 914.36 72.59 914.35 71.83 C 916.51 71.59 918.79 71.45 920.87 70.87 C 921.81 68.84 921.71 66.21 921.79 64.00 C 921.92 53.00 921.90 42.00 921.82 31.00 C 921.74 28.74 921.78 26.17 920.99 24.03 C 918.93 23.29 916.53 23.20 914.37 22.90 L 914.38 20.67 Z" fill="#00457c" />
<path d="M 938.80 20.75 C 945.79 20.93 952.75 20.99 959.74 20.66 L 959.77 23.32 C 957.49 23.47 955.20 23.62 952.92 23.84 C 954.91 31.26 957.92 38.16 960.71 45.29 C 963.22 51.61 965.71 57.94 968.23 64.25 C 973.26 50.91 979.62 37.79 983.18 23.98 C 980.85 23.63 978.52 23.34 976.18 23.06 L 976.19 20.67 C 981.75 20.88 987.27 20.88 992.83 20.68 C 992.83 21.34 992.83 22.00 992.84 22.67 C 991.56 23.03 990.30 23.44 989.06 23.90 C 986.96 26.66 985.83 30.29 984.44 33.45 C 979.02 47.11 973.08 60.62 968.22 74.50 C 966.95 74.50 965.68 74.50 964.41 74.51 C 959.03 59.53 952.75 44.93 946.91 30.12 C 946.14 28.27 945.42 26.28 944.31 24.60 C 943.12 23.56 941.14 23.29 939.70 22.63 L 938.80 20.75 Z" fill="#00457c" />
<path d="M 996.00 20.66 C 1009.63 21.28 1023.26 20.11 1036.86 20.91 C 1036.15 24.79 1035.79 28.70 1035.45 32.62 C 1034.68 32.63 1033.90 32.64 1033.13 32.65 C 1032.97 30.24 1032.79 27.83 1032.58 25.42 C 1025.50 23.61 1018.40 23.81 1011.17 24.31 C 1010.94 31.14 1010.87 37.97 1010.80 44.81 C 1016.60 45.06 1022.35 45.17 1028.11 44.34 C 1028.37 42.33 1028.61 40.32 1028.85 38.31 L 1031.13 38.32 C 1030.93 44.10 1030.94 49.84 1031.12 55.62 C 1030.28 55.63 1029.44 55.64 1028.60 55.66 C 1028.36 53.54 1028.20 51.30 1027.64 49.24 C 1022.45 47.52 1016.20 48.48 1010.78 48.40 C 1010.56 55.62 1010.56 62.85 1010.77 70.08 C 1018.53 70.39 1025.79 71.09 1033.43 69.42 C 1034.16 66.63 1034.83 63.82 1035.47 61.00 C 1036.30 61.00 1037.12 61.00 1037.95 61.00 C 1037.48 65.25 1037.11 69.49 1036.88 73.75 C 1023.54 74.63 1010.17 73.34 996.81 74.11 L 996.82 71.92 C 998.72 71.61 1000.81 71.42 1002.61 70.75 C 1003.40 67.63 1003.34 64.21 1003.44 61.00 C 1003.56 51.34 1003.50 41.67 1003.42 32.00 C 1003.38 29.44 1003.38 26.67 1002.73 24.19 C 1000.74 23.22 998.17 23.23 996.00 22.93 L 996.00 20.66 Z" fill="#00457c" />
<path d="M 1042.81 20.66 C 1050.57 20.95 1058.25 21.01 1066.00 20.64 C 1070.66 20.61 1076.87 20.39 1080.86 23.15 C 1085.97 26.86 1086.62 34.15 1083.28 39.28 C 1080.28 44.04 1075.62 45.50 1070.55 47.13 C 1076.83 55.21 1082.75 63.59 1089.33 71.42 C 1090.29 71.52 1091.24 71.61 1092.19 71.71 L 1092.19 74.01 C 1088.66 73.92 1085.14 73.95 1081.62 74.08 C 1076.61 67.78 1072.28 61.02 1067.25 54.75 C 1064.81 51.67 1062.25 48.70 1059.93 45.51 C 1064.32 45.13 1069.17 45.59 1072.96 42.94 C 1078.65 39.26 1079.49 29.25 1073.49 25.48 C 1068.89 22.63 1062.84 23.57 1057.81 24.53 C 1057.18 36.63 1057.40 48.84 1057.40 61.00 C 1057.48 64.16 1057.27 67.73 1058.20 70.78 C 1060.29 71.44 1062.65 71.58 1064.84 71.83 C 1064.83 72.58 1064.82 73.34 1064.81 74.09 C 1057.47 73.68 1050.15 73.90 1042.81 74.12 L 1042.81 71.84 C 1044.99 71.57 1047.50 71.51 1049.53 70.64 C 1050.11 68.54 1050.15 66.18 1050.21 64.01 C 1050.35 53.00 1050.35 42.00 1050.22 31.00 C 1050.17 28.79 1050.14 26.45 1049.60 24.31 C 1047.70 23.14 1044.97 23.26 1042.81 22.92 L 1042.81 20.66 Z" fill="#00457c" />
<path d="M 1133.56 20.67 C 1140.98 20.96 1148.33 20.97 1155.75 20.67 L 1155.76 22.90 C 1153.59 23.20 1151.13 23.28 1149.08 24.09 C 1148.39 26.67 1148.42 29.32 1148.37 31.98 C 1148.28 42.33 1148.30 52.68 1148.35 63.03 C 1148.40 65.58 1148.36 68.36 1149.18 70.80 C 1151.26 71.45 1153.60 71.59 1155.77 71.83 C 1155.77 72.59 1155.76 73.35 1155.75 74.12 C 1148.33 73.78 1140.98 73.83 1133.57 74.12 L 1133.55 71.84 C 1135.71 71.53 1138.44 71.62 1140.37 70.49 C 1140.97 68.10 1140.94 65.46 1141.00 63.00 C 1141.09 52.67 1141.08 42.33 1141.02 32.00 C 1140.96 29.49 1140.99 26.83 1140.40 24.38 C 1138.56 23.09 1135.70 23.27 1133.56 22.91 L 1133.56 20.67 Z" fill="#00457c" />
<path d="M 1159.40 20.66 C 1174.09 21.26 1188.66 21.28 1203.35 20.66 C 1203.07 24.84 1202.89 29.01 1202.77 33.19 C 1201.97 33.19 1201.16 33.19 1200.35 33.19 C 1200.08 30.46 1199.80 27.72 1199.46 24.99 C 1194.73 24.54 1189.99 24.36 1185.24 24.34 C 1184.64 35.54 1184.93 46.79 1184.92 58.00 C 1185.04 62.12 1184.67 66.54 1185.62 70.57 C 1187.60 71.56 1190.21 71.55 1192.39 71.85 L 1192.37 74.10 C 1185.08 73.71 1177.80 73.88 1170.51 74.12 L 1170.48 71.83 C 1172.62 71.60 1174.88 71.45 1176.95 70.90 C 1178.04 68.57 1177.83 65.52 1177.93 63.00 C 1177.97 50.12 1178.22 37.23 1177.70 24.36 C 1172.88 24.35 1168.08 24.43 1163.28 24.91 C 1162.45 28.10 1163.29 32.26 1159.91 34.00 C 1159.63 29.56 1159.60 25.11 1159.40 20.66 Z" fill="#00457c" />
<path d="M 117.44 23.54 C 123.92 21.88 131.49 22.95 136.78 27.21 C 141.37 30.97 143.55 36.49 144.40 42.23 C 145.29 48.69 144.84 55.98 141.92 61.92 C 139.74 66.37 135.79 69.65 131.00 70.95 C 124.84 72.53 117.65 71.54 112.73 67.28 C 108.06 63.37 105.68 57.63 104.55 51.77 C 103.33 45.17 103.54 37.81 106.79 31.79 C 109.00 27.66 112.93 24.72 117.44 23.54 Z" fill="#ffffff" />
<path d="M 245.17 24.43 C 252.73 23.68 262.25 22.90 269.08 26.89 C 275.60 30.69 278.11 37.77 278.30 45.00 C 278.45 53.27 276.32 62.20 269.01 67.02 C 262.18 71.40 252.89 70.82 245.16 70.02 C 244.69 54.84 244.63 39.61 245.17 24.43 Z" fill="#ffffff" />
<path d="M 305.96 30.41 C 309.08 37.92 312.19 45.43 315.30 52.94 C 309.01 52.94 302.72 52.94 296.44 52.93 C 299.61 45.43 302.78 37.92 305.96 30.41 Z" fill="#ffffff" />
<path d="M 549.19 30.42 C 552.31 37.92 555.42 45.43 558.53 52.93 C 552.24 52.94 545.95 52.94 539.66 52.93 C 542.84 45.43 546.01 37.92 549.19 30.42 Z" fill="#ffffff" />
<path d="M 416.01 37.78 C 420.13 38.66 425.41 40.52 427.68 44.35 C 429.14 46.73 427.69 48.54 426.92 50.82 C 426.25 49.03 426.00 46.73 424.82 45.18 C 422.59 42.75 418.73 41.91 415.68 41.00 C 419.28 48.77 423.12 56.43 426.84 64.14 C 427.81 66.00 428.76 68.26 430.34 69.67 C 432.23 70.72 434.85 70.58 436.95 70.90 C 436.95 72.03 436.94 73.15 436.93 74.28 C 427.52 73.54 418.17 73.91 408.75 74.28 C 408.75 73.17 408.75 72.05 408.75 70.94 C 411.20 70.64 413.48 70.52 415.80 69.63 C 416.05 67.17 414.98 65.25 414.03 63.07 C 410.55 55.78 407.22 48.42 403.75 41.13 C 398.90 42.18 394.42 43.26 390.55 46.58 C 384.40 51.71 383.00 61.58 388.07 67.94 C 393.28 74.54 402.10 77.20 409.92 79.14 C 404.37 79.66 398.91 79.79 393.45 78.48 C 387.53 77.09 381.45 74.24 377.79 69.20 C 373.42 63.34 373.67 54.69 377.73 48.74 C 380.41 44.77 384.64 41.86 388.99 39.99 C 397.34 36.38 407.17 36.03 416.01 37.78 Z" fill="#00457c" />
<path d="M 360.74 64.80 C 362.13 68.22 363.80 71.00 366.10 73.88 C 360.71 73.75 355.32 73.97 349.94 74.27 C 349.94 73.14 349.94 72.01 349.94 70.88 C 352.18 70.63 354.78 70.77 356.87 69.87 C 358.55 68.69 359.61 66.49 360.74 64.80 Z" fill="#00457c" />
<path d="M 0.00 85.20 C 419.39 85.14 838.81 85.19 1258.20 85.17 C 1258.20 86.44 1258.20 87.70 1258.20 88.96 C 838.80 88.97 419.40 88.96 0.00 88.97 L 0.00 85.20 Z" fill="#d72756" />
<path d="M 115.98 102.31 C 115.43 104.85 114.92 107.38 114.28 109.89 C 113.69 108.10 113.26 106.20 112.47 104.48 C 111.27 103.01 108.76 102.59 106.97 102.42 C 102.59 102.12 98.20 102.68 95.24 106.24 C 89.81 113.08 91.57 125.38 100.09 128.96 C 105.98 131.53 111.16 129.86 116.83 127.81 C 115.50 129.29 114.54 130.79 112.54 131.38 C 105.73 133.69 96.68 133.01 91.51 127.50 C 85.21 120.89 86.12 109.00 93.81 103.80 C 100.55 99.21 108.55 100.39 115.98 102.31 Z" fill="#00457c" />
<path d="M 375.44 102.34 C 374.88 104.85 374.36 107.37 373.74 109.86 C 373.09 108.06 372.81 105.89 371.75 104.26 C 369.58 102.33 365.72 102.26 362.98 102.41 C 359.17 102.58 355.63 104.30 353.66 107.65 C 349.67 114.62 351.41 125.20 359.18 128.80 C 365.15 131.58 370.44 129.91 376.25 127.86 C 374.81 129.42 373.67 130.96 371.52 131.54 C 365.14 133.53 356.86 132.97 351.74 128.27 C 347.45 124.43 346.09 118.58 347.16 113.04 C 348.29 107.32 352.88 102.84 358.46 101.38 C 364.32 99.80 369.73 100.90 375.44 102.34 Z" fill="#00457c" />
<path d="M 571.61 102.28 C 571.22 104.73 570.84 107.18 570.27 109.59 C 569.69 107.85 569.23 106.04 568.53 104.33 C 566.66 102.30 563.03 101.92 560.51 102.73 C 556.74 103.83 554.78 109.64 557.46 112.56 C 561.30 115.11 567.61 113.84 571.27 116.72 C 574.91 120.37 573.33 126.61 569.59 129.59 C 564.52 133.80 558.45 132.91 552.58 131.20 C 552.88 128.52 553.16 125.86 553.70 123.21 C 554.76 125.31 554.73 128.93 557.29 129.73 C 560.84 131.39 565.35 131.21 567.94 127.97 C 569.65 125.80 570.04 121.19 567.47 119.52 C 563.86 117.75 558.28 118.54 554.98 116.03 C 550.73 112.18 552.25 104.73 557.17 102.16 C 562.01 99.51 566.68 100.80 571.61 102.28 Z" fill="#00457c" />
<path d="M 837.82 101.25 C 843.80 101.60 849.88 100.80 855.81 101.52 C 859.55 102.10 861.46 105.77 860.32 109.27 C 859.32 112.34 856.80 113.26 854.15 114.55 C 857.05 115.37 859.99 115.48 861.43 118.55 C 863.78 124.14 859.98 129.76 854.54 131.38 C 849.64 132.57 844.20 131.68 839.18 131.94 C 839.94 131.09 840.70 130.24 841.46 129.40 C 841.77 120.61 841.91 111.76 841.31 102.98 C 840.14 102.85 838.97 102.73 837.80 102.60 L 837.82 101.25 Z" fill="#00457c" />
<path d="M 996.41 102.30 C 996.01 104.74 995.63 107.18 995.05 109.59 C 994.35 107.82 994.13 105.49 993.01 103.95 C 990.30 101.88 985.65 101.62 983.08 104.07 C 980.92 105.94 980.10 110.65 982.37 112.67 C 986.25 115.09 992.62 113.85 996.17 116.82 C 999.79 120.75 997.94 126.98 993.96 129.92 C 988.87 133.78 983.06 132.84 977.34 131.20 C 977.67 128.56 977.99 125.92 978.49 123.30 C 979.13 125.06 979.63 126.90 980.41 128.60 C 983.75 131.54 990.08 131.67 992.83 127.81 C 994.41 125.62 994.73 121.41 992.42 119.61 C 988.77 117.72 983.31 118.55 979.89 116.13 C 975.62 112.51 976.87 105.22 981.47 102.45 C 986.39 99.44 991.30 100.74 996.41 102.30 Z" fill="#00457c" />
<path d="M 846.10 103.09 C 848.48 103.13 851.24 102.86 853.50 103.68 C 857.43 105.09 856.86 111.76 853.23 113.19 C 850.96 114.05 848.26 113.96 845.86 114.17 C 845.86 110.47 845.88 106.78 846.10 103.09 Z" fill="#ffffff" />
<path d="M 1025.88 105.86 C 1025.40 108.10 1024.95 110.35 1024.47 112.59 C 1023.39 110.24 1023.65 107.11 1020.63 106.45 C 1016.82 105.44 1011.47 105.57 1008.43 108.44 C 1004.92 111.72 1004.34 117.07 1005.38 121.54 C 1006.52 126.11 1010.30 129.51 1014.95 130.24 C 1018.99 131.03 1022.51 129.80 1026.16 128.26 C 1025.84 129.04 1025.52 129.83 1025.20 130.61 C 1019.36 132.86 1013.23 133.55 1007.52 130.52 C 1002.97 128.04 1000.47 123.10 1000.67 117.98 C 1000.71 112.90 1003.58 108.34 1008.12 106.10 C 1013.99 103.29 1019.86 104.32 1025.88 105.86 Z" fill="#00457c" />
<path d="M 1122.97 105.85 C 1122.47 108.10 1122.01 110.36 1121.52 112.61 C 1120.45 110.16 1120.76 107.13 1117.64 106.43 C 1113.62 105.39 1107.93 105.60 1104.98 108.97 C 1101.80 112.40 1101.37 118.00 1102.68 122.30 C 1104.12 126.85 1108.24 129.94 1112.95 130.37 C 1116.66 130.88 1119.85 129.67 1123.18 128.25 C 1122.89 129.03 1122.60 129.82 1122.31 130.60 C 1116.67 132.77 1110.81 133.50 1105.18 130.83 C 1100.30 128.46 1097.54 123.35 1097.75 117.98 C 1097.78 112.66 1100.95 107.93 1105.81 105.81 C 1111.56 103.36 1117.14 104.39 1122.97 105.85 Z" fill="#00457c" />
<path d="M 1165.82 105.80 C 1165.49 107.88 1165.16 109.97 1164.81 112.05 C 1164.11 110.51 1163.74 108.61 1162.71 107.23 C 1160.75 105.74 1157.66 105.43 1155.44 106.45 C 1152.50 107.75 1151.26 112.25 1153.22 114.77 C 1156.66 117.09 1162.15 116.03 1165.47 118.50 C 1168.74 121.79 1167.33 127.29 1163.95 129.95 C 1159.48 133.60 1154.20 132.74 1149.05 131.32 C 1149.30 128.97 1149.54 126.62 1149.92 124.28 C 1150.58 125.89 1151.07 127.63 1151.90 129.17 C 1155.08 131.66 1160.65 131.66 1162.92 127.92 C 1164.09 125.98 1164.25 122.32 1162.11 120.98 C 1158.84 119.52 1154.06 120.04 1151.10 117.90 C 1147.49 114.57 1148.69 108.16 1152.86 105.84 C 1157.18 103.31 1161.35 104.52 1165.82 105.80 Z" fill="#00457c" />
<path d="M 117.40 105.08 C 124.55 104.89 131.75 104.84 138.91 104.94 C 138.65 106.96 138.41 108.98 138.17 111.00 L 137.14 111.00 C 136.96 109.69 136.77 108.38 136.59 107.07 C 133.01 106.67 129.49 106.56 125.89 106.66 C 125.81 110.17 125.75 113.67 125.73 117.18 C 128.49 117.19 131.25 117.16 134.01 117.07 C 134.63 115.70 135.26 114.34 135.93 113.01 C 136.07 116.58 136.11 120.12 135.42 123.65 C 134.94 122.14 134.47 120.63 134.02 119.11 C 131.25 118.99 128.47 118.93 125.69 118.92 C 125.64 122.62 125.64 126.33 125.70 130.04 C 129.42 130.15 133.13 130.14 136.84 129.79 C 137.58 127.91 138.34 126.04 139.17 124.20 C 139.22 126.76 139.15 129.33 139.05 131.89 C 131.95 132.10 124.85 131.85 117.74 131.91 C 119.06 131.26 120.39 130.63 121.72 130.02 C 122.14 122.32 122.09 114.58 121.78 106.88 C 120.76 106.48 119.74 106.08 118.73 105.67 L 117.40 105.08 Z" fill="#00457c" />
<path d="M 141.50 104.97 C 143.94 104.94 146.37 104.92 148.81 104.90 C 154.66 112.42 160.78 119.75 167.05 126.93 C 167.05 120.24 167.17 113.57 166.84 106.88 C 165.50 106.27 164.17 105.64 162.85 105.01 C 166.26 104.91 169.66 104.91 173.08 105.03 C 171.76 105.66 170.44 106.27 169.11 106.87 C 168.58 115.58 169.17 124.29 168.76 132.99 C 164.84 131.17 162.89 127.94 160.24 124.75 C 155.98 119.55 151.62 114.44 147.32 109.27 C 147.34 116.27 147.16 123.18 147.60 130.17 C 148.96 130.64 150.32 131.13 151.67 131.63 C 148.31 131.96 144.87 131.97 141.47 131.98 C 142.71 131.30 143.92 130.57 145.10 129.79 C 145.80 126.30 145.49 122.55 145.57 119.00 C 145.49 115.17 145.83 111.24 145.33 107.45 C 144.47 106.71 143.42 106.15 142.45 105.54 L 141.50 104.97 Z" fill="#00457c" />
<path d="M 174.23 104.88 C 181.76 105.17 189.22 105.18 196.75 104.89 C 196.54 107.35 196.33 109.81 195.97 112.25 C 195.38 110.52 194.86 108.77 194.36 107.01 C 192.05 106.92 189.74 106.83 187.44 106.75 C 187.26 114.49 187.20 122.26 187.49 129.99 C 188.97 130.58 190.45 131.19 191.91 131.85 C 187.64 131.98 183.35 132.00 179.08 131.85 C 180.56 131.20 182.06 130.59 183.57 130.00 C 183.87 122.26 183.78 114.51 183.65 106.77 C 181.29 106.82 178.94 106.89 176.59 106.98 C 176.07 108.73 175.54 110.47 174.92 112.19 C 174.60 109.76 174.40 107.33 174.23 104.88 Z" fill="#00457c" />
<path d="M 197.47 105.03 C 204.73 104.95 212.00 104.80 219.26 104.95 C 218.81 107.26 218.38 109.57 217.77 111.84 C 217.37 110.25 216.98 108.64 216.61 107.04 C 213.09 106.67 209.62 106.56 206.09 106.65 C 205.99 110.16 205.93 113.67 205.89 117.18 C 208.69 117.19 211.50 117.16 214.30 117.06 C 214.78 115.68 215.28 114.29 215.78 112.91 C 216.13 116.14 216.16 119.36 216.24 122.60 C 215.80 122.62 215.37 122.65 214.93 122.67 C 214.74 121.47 214.55 120.28 214.35 119.08 C 211.52 118.98 208.70 118.93 205.87 118.93 C 205.82 122.63 205.82 126.33 205.88 130.03 C 209.60 130.15 213.32 130.13 217.03 129.82 C 217.74 127.94 218.48 126.07 219.29 124.24 C 219.38 126.79 219.32 129.34 219.24 131.89 C 212.15 132.09 205.05 131.85 197.96 131.91 C 199.27 131.26 200.58 130.63 201.91 130.01 C 202.24 122.32 202.21 114.57 201.97 106.88 C 200.46 106.28 198.96 105.67 197.47 105.03 Z" fill="#00457c" />
<path d="M 221.41 105.10 C 227.23 105.04 233.21 104.56 238.99 105.19 C 242.84 105.74 244.65 109.78 243.24 113.24 C 242.05 116.33 239.02 117.20 236.32 118.58 C 240.12 123.19 243.02 128.04 247.55 132.01 C 245.61 131.99 243.68 131.97 241.74 131.96 C 238.15 127.15 234.70 122.25 230.79 117.67 C 232.71 117.37 234.77 117.23 236.61 116.58 C 240.16 115.14 240.96 109.44 237.62 107.34 C 235.47 106.00 232.16 106.59 229.73 106.66 C 229.58 114.37 229.11 122.24 229.86 129.91 C 230.96 130.44 232.09 130.91 233.24 131.34 L 233.37 132.01 C 229.31 131.91 225.15 132.08 221.14 131.57 C 222.64 131.08 224.14 130.61 225.66 130.16 C 226.00 122.44 225.97 114.65 225.70 106.93 C 224.26 106.35 222.82 105.76 221.41 105.10 Z" fill="#00457c" />
<path d="M 257.10 105.04 C 263.96 104.92 270.83 104.85 277.69 104.92 C 277.30 107.22 276.90 109.51 276.38 111.79 C 275.93 110.19 275.49 108.59 275.08 106.98 C 271.87 106.73 268.69 106.63 265.48 106.67 C 265.34 110.23 265.30 113.80 265.30 117.36 C 267.93 117.32 270.57 117.26 273.20 117.13 C 273.81 115.79 274.44 114.46 275.09 113.14 C 275.33 116.76 275.33 120.37 275.05 123.99 C 274.38 122.39 273.79 120.77 273.21 119.15 C 270.58 119.05 267.94 118.99 265.31 118.95 C 265.29 122.64 265.32 126.31 265.48 129.99 C 266.97 130.58 268.45 131.19 269.91 131.84 C 265.64 131.98 261.36 132.00 257.09 131.87 C 258.55 131.20 260.02 130.59 261.50 129.99 C 261.79 122.32 261.76 114.61 261.53 106.94 C 260.05 106.33 258.57 105.71 257.10 105.04 Z" fill="#00457c" />
<path d="M 288.36 105.38 C 293.77 103.39 301.39 104.07 305.44 108.56 C 309.87 113.51 309.52 122.28 305.26 127.24 C 300.70 132.94 291.68 134.19 285.53 130.50 C 280.52 127.36 278.94 120.52 280.06 115.03 C 280.89 110.57 284.19 107.00 288.36 105.38 Z" fill="#00457c" />
<path d="M 309.41 105.05 C 313.94 104.97 318.48 104.95 323.02 104.88 C 325.41 104.95 328.48 104.86 330.29 106.70 C 332.75 109.21 332.27 113.45 329.72 115.70 C 328.23 116.94 326.28 117.72 324.55 118.58 C 328.29 123.21 331.24 128.06 335.77 132.01 C 333.83 131.99 331.89 131.97 329.94 131.96 C 326.33 127.16 322.93 122.23 318.97 117.69 C 320.86 117.40 322.85 117.22 324.67 116.63 C 328.40 115.28 329.21 109.31 325.69 107.25 C 323.52 106.01 320.33 106.58 317.92 106.69 C 317.65 114.45 317.53 122.31 317.94 130.07 C 319.45 130.64 320.95 131.21 322.44 131.84 C 318.41 131.98 314.37 131.91 310.33 131.99 L 310.26 130.84 C 311.46 130.68 312.66 130.53 313.86 130.37 C 314.23 122.55 314.20 114.70 313.90 106.88 C 312.39 106.29 310.90 105.68 309.41 105.05 Z" fill="#00457c" />
<path d="M 387.18 105.05 C 392.93 103.39 400.69 104.43 404.28 109.74 C 407.64 114.75 407.13 122.60 403.20 127.18 C 398.66 132.93 389.67 134.19 383.49 130.53 C 378.43 127.38 376.84 120.58 377.96 115.03 C 378.86 110.24 382.59 106.49 387.18 105.05 Z" fill="#00457c" />
<path d="M 407.27 105.09 C 410.02 104.93 412.77 104.91 415.52 104.88 C 418.76 112.13 422.31 119.21 425.77 126.35 C 429.16 119.21 432.70 112.12 435.85 104.87 C 438.71 104.92 441.57 104.94 444.43 105.07 C 442.90 105.68 441.37 106.27 439.83 106.84 C 439.54 114.69 439.49 122.58 439.87 130.43 C 441.06 130.55 442.25 130.67 443.44 130.79 L 443.46 131.98 C 439.73 131.90 436.02 131.90 432.30 131.98 L 432.29 130.83 C 433.48 130.68 434.67 130.53 435.85 130.37 C 436.23 123.26 436.12 116.18 436.11 109.06 C 432.29 116.99 428.44 124.89 424.93 132.96 C 421.09 125.28 417.47 117.48 413.70 109.77 C 413.73 116.53 413.53 123.33 413.91 130.08 C 415.43 130.64 416.95 131.21 418.45 131.83 C 414.99 131.96 411.52 131.93 408.06 131.98 L 407.99 130.82 C 409.20 130.69 410.40 130.56 411.61 130.42 C 412.01 122.59 411.97 114.71 411.66 106.87 C 410.64 106.48 409.62 106.09 408.61 105.68 L 407.27 105.09 Z" fill="#00457c" />
<path d="M 444.42 105.03 C 450.24 105.10 456.20 104.54 461.98 105.19 C 466.04 105.81 467.85 109.85 466.46 113.54 C 464.41 118.60 459.02 120.08 454.08 118.41 C 456.24 117.84 458.72 117.72 460.74 116.75 C 463.84 114.52 463.72 108.39 459.92 106.90 C 457.79 106.09 455.09 106.57 452.85 106.65 C 452.64 114.45 452.55 122.27 452.93 130.07 C 454.44 130.64 455.95 131.22 457.45 131.84 C 453.40 131.98 449.34 131.91 445.29 131.99 L 445.31 130.79 C 446.48 130.67 447.64 130.55 448.81 130.42 C 449.22 122.60 449.13 114.72 448.89 106.89 C 447.40 106.29 445.91 105.67 444.42 105.03 Z" fill="#00457c" />
<path d="M 467.54 104.99 C 471.64 104.96 475.73 105.00 479.82 104.91 L 479.83 106.08 C 478.64 106.23 477.45 106.37 476.26 106.53 C 475.86 114.38 475.98 122.27 476.08 130.13 C 479.92 130.23 483.71 130.14 487.53 129.78 C 488.34 127.84 489.18 125.91 490.15 124.04 C 490.13 126.68 489.91 129.30 489.64 131.92 C 482.99 132.11 476.34 131.81 469.68 131.95 C 470.50 131.18 471.31 130.40 472.13 129.63 C 472.33 122.08 472.55 114.45 472.04 106.91 C 470.55 106.26 469.04 105.64 467.54 104.99 Z" fill="#00457c" />
<path d="M 491.77 105.05 C 499.01 104.93 506.26 104.81 513.50 104.94 C 513.06 107.28 512.64 109.61 512.02 111.91 C 511.64 110.31 511.29 108.71 510.95 107.10 C 507.41 106.66 503.90 106.56 500.34 106.64 C 500.24 110.15 500.18 113.67 500.14 117.18 C 502.95 117.19 505.75 117.16 508.55 117.06 C 509.04 115.68 509.55 114.31 510.07 112.94 C 510.51 116.50 510.54 120.09 509.94 123.63 C 509.41 122.13 508.90 120.62 508.42 119.10 C 505.66 118.99 502.89 118.93 500.12 118.92 C 500.07 122.62 500.07 126.33 500.14 130.03 C 503.84 130.14 507.53 130.13 511.22 129.84 C 511.98 127.98 512.74 126.13 513.63 124.32 C 513.67 126.85 513.57 129.37 513.45 131.90 C 506.63 132.13 499.82 131.76 493.00 131.99 L 493.00 130.82 C 494.04 130.68 495.08 130.55 496.12 130.41 C 496.58 122.58 496.53 114.71 496.20 106.87 C 494.71 106.28 493.23 105.68 491.77 105.05 Z" fill="#00457c" />
<path d="M 522.53 104.59 C 525.09 108.02 527.20 111.72 529.32 115.43 C 531.71 112.05 534.10 108.74 535.83 104.95 C 537.62 104.93 539.40 104.91 541.19 104.87 C 536.04 107.84 533.87 112.52 530.29 117.07 C 533.03 121.48 535.68 125.97 538.60 130.24 C 539.65 130.69 540.69 131.14 541.73 131.59 C 539.54 131.84 537.34 131.98 535.14 132.13 C 532.68 128.17 530.35 124.15 527.99 120.13 C 525.30 123.91 522.71 127.74 520.76 131.97 C 519.05 131.98 517.33 132.00 515.62 132.02 C 520.74 128.47 523.16 123.48 526.94 118.54 C 523.78 113.74 521.96 107.74 515.99 105.88 C 518.16 105.43 520.34 105.01 522.53 104.59 Z" fill="#00457c" />
<path d="M 574.96 105.38 C 576.71 105.05 578.46 104.72 580.22 104.40 C 583.74 108.71 586.25 113.56 588.77 118.49 C 591.57 114.00 594.24 109.43 596.91 104.86 C 598.01 104.88 599.10 104.89 600.20 104.90 C 597.01 109.13 593.75 113.55 591.14 118.16 C 588.96 121.43 589.96 126.29 590.00 130.06 C 591.51 130.63 593.02 131.21 594.51 131.83 C 590.13 131.99 585.68 132.09 581.32 131.57 C 582.86 131.08 584.40 130.61 585.95 130.16 C 586.05 126.92 586.59 123.31 585.79 120.16 C 584.23 116.62 581.99 113.32 579.84 110.12 C 578.65 108.26 576.97 107.16 575.11 106.06 L 574.96 105.38 Z" fill="#00457c" />
<path d="M 618.50 105.78 C 618.16 107.89 617.83 110.00 617.46 112.10 C 616.82 110.56 616.37 108.89 615.56 107.43 C 613.76 105.76 610.56 105.46 608.34 106.36 C 605.23 107.48 603.72 112.57 606.09 114.93 C 609.57 117.06 615.17 116.05 618.32 118.68 C 621.49 122.21 619.81 127.68 616.24 130.26 C 611.76 133.56 606.81 132.66 601.81 131.38 C 601.95 129.26 602.10 127.14 602.25 125.02 L 603.09 125.02 C 603.59 126.37 603.76 128.17 604.71 129.28 C 607.81 131.55 612.87 131.62 615.32 128.34 C 616.75 126.40 617.04 122.58 614.89 121.05 C 611.65 119.50 607.02 120.07 603.96 118.05 C 600.05 114.77 601.35 108.03 605.70 105.74 C 610.04 103.33 614.05 104.58 618.50 105.78 Z" fill="#00457c" />
<path d="M 621.81 104.88 C 629.35 105.18 636.82 105.17 644.35 104.89 C 644.08 107.35 643.80 109.81 643.31 112.25 C 642.83 110.52 642.40 108.78 641.99 107.04 C 639.65 106.93 637.30 106.84 634.96 106.76 C 634.87 114.55 634.72 122.37 635.07 130.16 C 636.63 130.61 638.18 131.07 639.72 131.56 C 635.36 132.07 630.93 132.01 626.55 131.84 C 628.05 131.22 629.56 130.64 631.08 130.07 C 631.45 122.31 631.35 114.53 631.19 106.76 C 628.86 106.82 626.53 106.89 624.20 106.98 C 623.62 108.72 623.03 110.46 622.36 112.17 C 622.10 109.74 621.96 107.31 621.81 104.88 Z" fill="#00457c" />
<path d="M 645.10 105.04 C 652.33 104.93 659.56 104.82 666.79 104.94 C 666.34 107.26 665.90 109.57 665.32 111.86 C 664.93 110.27 664.56 108.68 664.21 107.08 C 660.68 106.67 657.18 106.56 653.63 106.64 C 653.53 110.16 653.48 113.67 653.43 117.18 C 656.18 117.19 658.93 117.16 661.68 117.06 C 662.30 115.71 662.93 114.36 663.59 113.03 C 663.75 116.61 663.81 120.15 663.21 123.70 C 662.69 122.18 662.18 120.65 661.69 119.11 C 658.94 118.99 656.18 118.93 653.43 118.91 C 653.37 122.62 653.37 126.32 653.44 130.03 C 657.11 130.13 660.78 130.13 664.45 129.89 C 665.25 128.00 666.07 126.13 666.98 124.30 C 666.97 126.84 666.85 129.37 666.71 131.91 C 659.60 131.99 652.42 132.11 645.33 131.63 C 646.69 131.12 648.06 130.63 649.44 130.15 C 649.83 122.43 649.75 114.67 649.53 106.94 C 648.05 106.32 646.57 105.70 645.10 105.04 Z" fill="#00457c" />
<path d="M 668.61 105.07 C 671.38 104.95 674.16 104.91 676.94 104.87 C 680.20 112.11 683.75 119.21 687.21 126.36 C 690.59 119.23 694.12 112.14 697.28 104.92 C 699.82 104.93 702.35 104.92 704.88 104.91 L 704.88 106.10 C 703.70 106.23 702.51 106.36 701.32 106.50 C 700.93 114.35 700.94 122.31 701.30 130.17 C 702.83 130.61 704.35 131.07 705.86 131.56 C 701.88 132.06 697.76 131.91 693.74 131.99 L 693.73 130.85 C 694.93 130.69 696.13 130.52 697.33 130.36 C 697.66 123.24 697.55 116.15 697.55 109.03 C 693.72 116.96 689.97 124.92 686.29 132.92 C 682.56 125.20 678.88 117.46 675.13 109.75 C 675.17 116.63 674.95 123.57 675.38 130.43 C 676.59 130.56 677.80 130.69 679.01 130.82 L 678.94 131.98 C 675.48 131.93 672.01 131.97 668.56 131.83 C 670.05 131.21 671.56 130.64 673.08 130.07 C 673.43 122.35 673.41 114.57 673.10 106.85 C 671.59 106.27 670.10 105.68 668.61 105.07 Z" fill="#00457c" />
<path d="M 723.63 105.78 C 723.29 107.89 722.95 110.00 722.59 112.10 C 721.94 110.54 721.51 108.80 720.65 107.33 C 717.76 105.08 712.64 105.27 710.81 108.81 C 709.95 110.46 709.65 113.50 711.15 114.86 C 714.57 117.09 720.14 116.03 723.38 118.60 C 726.68 122.12 724.95 127.75 721.29 130.32 C 716.79 133.59 711.82 132.64 706.82 131.33 C 707.10 128.98 707.37 126.63 707.76 124.29 C 708.43 125.93 708.92 127.69 709.78 129.25 C 712.88 131.50 717.89 131.66 720.40 128.42 C 721.89 126.48 722.21 122.50 719.96 121.00 C 716.69 119.53 712.00 120.02 708.99 117.97 C 705.26 114.62 706.49 108.11 710.76 105.78 C 715.11 103.32 719.16 104.56 723.63 105.78 Z" fill="#00457c" />
<path d="M 749.94 103.74 C 754.15 112.32 757.31 121.41 761.56 129.97 C 762.61 130.60 763.66 131.25 764.69 131.90 C 760.72 131.95 756.65 132.04 752.72 131.53 C 754.21 131.03 755.71 130.54 757.21 130.07 C 756.31 127.69 755.38 125.32 754.44 122.95 C 750.77 122.94 747.09 122.94 743.42 122.94 C 742.43 125.35 741.46 127.76 740.55 130.20 C 741.75 130.40 742.95 130.60 744.15 130.80 L 744.11 132.03 C 740.80 131.93 737.53 131.92 734.22 131.60 C 735.42 131.10 736.63 130.60 737.83 130.12 C 742.27 121.51 745.55 112.35 749.94 103.74 Z" fill="#00457c" />
<path d="M 765.02 105.04 C 767.54 104.95 770.07 104.92 772.60 104.89 C 778.45 112.44 784.59 119.76 790.85 126.96 C 790.88 120.25 790.98 113.56 790.63 106.86 C 789.25 106.24 787.88 105.62 786.52 104.98 C 789.97 104.91 793.41 104.90 796.85 105.04 C 795.55 105.66 794.23 106.27 792.91 106.86 C 792.41 115.57 792.92 124.29 792.59 132.99 C 790.45 131.89 788.74 130.65 787.26 128.74 C 782.00 122.16 776.52 115.76 771.13 109.29 C 771.15 116.24 770.98 123.11 771.38 130.05 C 772.72 130.64 774.06 131.25 775.39 131.88 C 771.97 131.96 768.56 131.99 765.15 131.92 C 766.45 131.26 767.76 130.62 769.09 130.00 C 769.47 122.37 769.30 114.72 769.26 107.09 C 767.84 106.41 766.42 105.73 765.02 105.04 Z" fill="#00457c" />
<path d="M 797.11 104.98 C 803.07 105.10 809.09 104.61 815.04 105.07 C 819.45 105.39 823.29 107.90 825.02 112.02 C 827.97 119.76 823.59 129.11 815.51 131.35 C 810.07 132.59 804.09 131.66 798.52 131.98 C 799.31 131.16 800.12 130.35 800.92 129.54 C 801.13 122.05 801.50 114.45 800.84 106.98 C 799.60 106.30 798.36 105.64 797.11 104.98 Z" fill="#00457c" />
<path d="M 864.46 105.11 C 870.27 105.04 876.22 104.58 881.99 105.17 C 885.89 105.70 887.73 109.78 886.28 113.27 C 885.09 116.33 882.07 117.21 879.39 118.58 C 882.86 123.09 886.22 127.58 890.01 131.82 C 888.28 131.98 886.54 132.00 884.80 131.99 C 881.23 127.15 877.77 122.25 873.85 117.68 C 875.76 117.38 877.79 117.23 879.62 116.60 C 883.22 115.18 884.03 109.40 880.64 107.31 C 878.49 106.00 875.20 106.59 872.78 106.67 C 872.52 114.59 872.39 122.55 872.83 130.47 C 874.02 130.57 875.21 130.67 876.40 130.77 L 876.37 131.99 C 872.33 131.91 868.16 132.07 864.16 131.57 C 865.67 131.08 867.19 130.61 868.72 130.16 C 869.07 122.44 869.03 114.64 868.75 106.92 C 867.31 106.34 865.87 105.76 864.46 105.11 Z" fill="#00457c" />
<path d="M 905.86 103.75 C 909.99 112.43 913.26 121.53 917.49 130.15 C 918.59 130.63 919.69 131.11 920.79 131.60 C 916.70 132.02 912.59 132.07 908.50 131.57 C 910.02 131.05 911.55 130.54 913.08 130.05 C 912.16 127.67 911.22 125.31 910.28 122.94 C 906.62 122.94 902.95 122.94 899.28 122.94 C 898.29 125.35 897.33 127.76 896.42 130.19 C 897.63 130.40 898.83 130.61 900.04 130.81 L 899.96 132.00 C 896.97 131.85 893.77 132.17 890.85 131.46 C 891.76 130.96 892.70 130.50 893.66 130.09 C 898.22 121.55 901.32 112.29 905.86 103.75 Z" fill="#00457c" />
<path d="M 920.76 105.05 C 925.08 104.92 929.42 104.90 933.75 105.07 C 932.28 105.70 930.80 106.30 929.31 106.88 C 929.04 114.63 928.98 122.42 929.34 130.16 C 930.86 130.61 932.36 131.08 933.86 131.57 C 929.84 132.06 925.68 131.92 921.63 132.00 L 921.61 130.79 C 922.79 130.67 923.97 130.56 925.15 130.45 C 925.56 122.60 925.54 114.72 925.20 106.87 C 923.71 106.28 922.23 105.68 920.76 105.05 Z" fill="#00457c" />
<path d="M 934.21 104.93 C 936.68 104.92 939.15 104.93 941.62 104.91 C 947.47 112.44 953.60 119.76 959.85 126.95 C 959.88 120.24 959.99 113.56 959.64 106.86 C 958.26 106.24 956.88 105.62 955.52 104.98 C 958.96 104.91 962.41 104.90 965.85 105.04 C 964.55 105.67 963.24 106.28 961.92 106.87 C 961.39 115.58 961.95 124.29 961.59 132.99 C 959.46 131.89 957.74 130.64 956.26 128.73 C 951.00 122.15 945.52 115.75 940.13 109.28 C 940.15 116.22 939.98 123.11 940.39 130.04 C 941.72 130.64 943.06 131.25 944.38 131.88 C 940.97 131.96 937.56 131.99 934.15 131.91 C 935.45 131.26 936.76 130.62 938.09 130.01 C 938.43 122.99 938.51 115.90 938.30 108.88 C 938.63 106.59 935.62 106.11 934.21 104.93 Z" fill="#00457c" />
<path d="M 1027.02 105.04 C 1031.34 104.91 1035.66 104.91 1039.97 105.04 C 1038.51 105.70 1037.02 106.32 1035.53 106.93 C 1035.30 114.60 1035.27 122.31 1035.55 129.99 C 1037.03 130.59 1038.50 131.20 1039.96 131.86 C 1035.66 131.98 1031.34 131.99 1027.03 131.86 C 1028.49 131.21 1029.97 130.60 1031.46 130.00 C 1031.79 122.32 1031.76 114.62 1031.49 106.93 C 1029.99 106.32 1028.50 105.70 1027.02 105.04 Z" fill="#00457c" />
<path d="M 1041.06 104.90 C 1048.03 105.09 1054.99 104.74 1061.97 104.95 C 1061.50 107.27 1061.04 109.58 1060.42 111.86 C 1060.05 110.26 1059.70 108.66 1059.37 107.06 C 1055.83 106.67 1052.34 106.56 1048.78 106.65 C 1048.70 110.16 1048.64 113.67 1048.61 117.18 C 1051.41 117.19 1054.22 117.16 1057.02 117.06 C 1057.51 115.67 1058.01 114.29 1058.54 112.93 C 1058.96 116.52 1059.02 120.13 1058.33 123.70 C 1057.84 122.18 1057.37 120.65 1056.92 119.12 C 1054.14 118.99 1051.36 118.93 1048.59 118.91 C 1048.53 122.61 1048.53 126.31 1048.60 130.01 C 1052.15 130.05 1055.99 130.45 1059.48 129.68 C 1060.52 127.99 1061.28 126.11 1062.19 124.34 C 1062.14 126.86 1062.02 129.38 1061.88 131.89 C 1054.79 132.09 1047.70 131.86 1040.61 131.89 C 1041.94 131.25 1043.27 130.64 1044.61 130.03 C 1045.00 122.21 1044.99 114.33 1044.63 106.52 C 1043.44 106.37 1042.24 106.23 1041.05 106.09 L 1041.06 104.90 Z" fill="#00457c" />
<path d="M 1064.28 104.94 C 1066.76 104.93 1069.23 104.92 1071.70 104.91 C 1077.55 112.43 1083.67 119.74 1089.92 126.93 C 1089.93 120.21 1090.06 113.57 1089.73 106.86 C 1088.35 106.25 1086.97 105.63 1085.60 104.99 C 1089.04 104.90 1092.48 104.91 1095.92 105.04 C 1094.62 105.67 1093.31 106.28 1092.00 106.88 C 1091.45 115.59 1092.03 124.29 1091.68 132.99 C 1087.51 131.06 1085.58 127.62 1082.74 124.26 C 1078.59 119.23 1074.37 114.26 1070.20 109.26 C 1070.21 116.21 1070.05 123.12 1070.48 130.06 C 1071.84 130.64 1073.19 131.23 1074.53 131.85 C 1071.38 131.95 1068.22 131.95 1065.07 131.99 L 1064.99 130.82 C 1066.05 130.69 1067.10 130.56 1068.15 130.43 C 1068.52 123.29 1068.55 116.03 1068.37 108.88 C 1068.73 106.60 1065.70 106.12 1064.28 104.94 Z" fill="#00457c" />
<path d="M 1125.01 104.90 C 1131.97 105.09 1138.93 104.75 1145.89 104.95 C 1145.43 107.25 1144.98 109.56 1144.39 111.84 C 1144.01 110.25 1143.64 108.66 1143.30 107.06 C 1139.76 106.67 1136.27 106.56 1132.72 106.65 C 1132.63 110.16 1132.57 113.67 1132.54 117.18 C 1135.30 117.19 1138.05 117.16 1140.80 117.06 C 1141.42 115.70 1142.05 114.35 1142.71 113.00 C 1142.84 116.60 1142.91 120.14 1142.27 123.70 C 1141.77 122.18 1141.30 120.66 1140.84 119.13 C 1138.06 119.00 1135.28 118.93 1132.50 118.91 C 1132.46 122.62 1132.46 126.32 1132.52 130.03 C 1136.20 130.13 1139.87 130.13 1143.54 129.88 C 1144.35 127.99 1145.19 126.12 1146.09 124.26 C 1146.06 126.81 1145.95 129.35 1145.81 131.89 C 1138.70 132.08 1131.58 131.88 1124.46 131.88 C 1125.81 131.25 1127.17 130.64 1128.54 130.04 C 1128.95 122.22 1128.90 114.37 1128.59 106.55 C 1127.38 106.39 1126.18 106.23 1124.97 106.07 L 1125.01 104.90 Z" fill="#00457c" />
<path d="M 290.42 106.46 C 295.06 105.20 300.48 106.71 302.79 111.19 C 304.98 115.29 305.08 121.82 302.95 125.95 C 300.20 131.51 292.14 132.30 287.83 128.18 C 284.45 124.97 283.37 119.43 283.88 114.96 C 284.32 111.07 286.50 107.58 290.42 106.46 Z" fill="#ffffff" />
<path d="M 388.40 106.44 C 393.06 105.22 398.49 106.76 400.75 111.29 C 402.97 115.72 403.03 122.18 400.53 126.51 C 397.58 131.58 389.90 132.11 385.79 128.23 C 382.35 125.04 381.27 119.45 381.78 114.96 C 382.22 111.04 384.45 107.53 388.40 106.44 Z" fill="#ffffff" />
<path d="M 804.96 106.75 C 808.78 106.60 813.50 106.10 816.95 108.04 C 820.22 109.88 821.60 113.37 821.73 116.98 C 821.86 121.15 820.89 125.74 817.25 128.28 C 813.78 130.67 808.96 130.17 804.96 130.08 C 804.76 122.31 804.75 114.52 804.96 106.75 Z" fill="#ffffff" />
<path d="M 748.92 109.92 C 750.49 113.69 752.06 117.47 753.62 121.24 C 750.46 121.25 747.30 121.25 744.14 121.24 C 745.73 117.47 747.33 113.69 748.92 109.92 Z" fill="#ffffff" />
<path d="M 904.78 109.93 C 906.36 113.70 907.92 117.47 909.48 121.24 C 906.32 121.25 903.16 121.25 900.00 121.25 C 901.22 118.35 902.45 115.45 903.67 112.55 C 904.04 111.68 904.41 110.81 904.78 109.93 Z" fill="#ffffff" />
<path d="M 845.88 115.66 C 848.73 115.85 852.47 115.51 854.99 117.03 C 858.28 119.21 858.16 124.98 855.76 127.77 C 853.38 130.62 849.25 129.92 845.95 130.08 C 845.87 125.28 845.87 120.47 845.88 115.66 Z" fill="#ffffff" />
</svg>