<?xml version="1.0" encoding="UTF-8" standalone="no"?>
<!DOCTYPE svg PUBLIC "-//W3C//DTD SVG 1.1//EN" "http://www.w3.org/Graphics/SVG/1.1/DTD/svg11.dtd">
<svg xmlns="http://www.w3.org/2000/svg" version="1.1" viewBox="0 0 1500 250" width="1500.0pt" height="250.0pt">
<path d="M 0.00 0.00 L 1500.00 0.00 L 1500.00 250.00 L 0.00 250.00 L 0.00 0.00 Z" fill="#ffffff" />
<path d="M 512.28 58.77 L 512.90 58.75 C 513.98 58.71 515.06 58.68 516.15 58.64 C 521.13 68.97 526.11 79.31 531.12 89.63 C 536.65 90.70 542.22 91.81 546.95 95.08 C 549.61 96.96 551.90 99.60 552.06 103.01 C 552.27 105.04 550.64 106.84 549.67 108.51 C 549.62 106.37 550.10 103.76 549.26 101.75 C 547.79 98.68 544.32 96.87 541.28 95.71 C 533.70 92.81 525.02 92.59 517.05 93.55 C 509.09 94.65 500.65 98.07 495.54 104.52 C 490.56 110.77 489.16 120.34 493.81 127.16 C 496.87 131.79 501.18 134.13 505.81 136.88 C 499.55 136.24 493.76 135.42 488.73 131.28 C 483.84 127.37 481.68 121.12 482.61 114.97 C 483.63 107.00 488.98 100.77 495.52 96.51 C 502.66 91.85 510.69 89.90 519.08 89.02 C 516.57 83.63 514.07 78.24 511.56 72.86 C 508.70 78.81 505.88 84.78 503.00 90.72 C 500.23 91.95 497.51 93.27 494.82 94.67 C 500.94 82.85 506.75 70.88 512.28 58.77 Z" fill="#00457c" />
<path d="M 167.10 71.66 C 166.42 75.98 166.05 80.33 165.83 84.70 C 164.95 84.70 164.08 84.71 163.20 84.72 C 162.87 82.01 162.51 79.30 162.12 76.60 C 154.08 74.91 146.13 75.07 137.98 75.72 C 137.44 83.54 137.48 91.36 137.51 99.21 C 144.45 99.33 151.29 99.53 158.20 98.54 C 159.21 95.35 158.13 92.27 162.08 91.15 C 161.91 98.13 161.81 105.08 162.14 112.06 C 161.24 112.06 160.33 112.06 159.43 112.06 C 159.12 109.47 158.95 106.80 158.31 104.27 C 157.23 103.31 155.40 103.31 154.04 103.14 C 148.55 102.80 143.01 102.92 137.51 103.03 C 137.71 111.22 137.00 119.74 138.23 127.83 C 140.14 129.46 143.62 129.04 146.00 129.41 C 145.97 130.29 145.95 131.16 145.92 132.04 C 137.64 131.57 129.36 131.75 121.08 132.06 C 121.05 131.17 121.03 130.29 121.00 129.41 C 123.29 129.02 127.01 129.51 128.76 127.80 C 129.27 125.96 129.34 123.92 129.40 122.01 C 129.63 108.68 129.60 95.31 129.44 81.98 C 129.36 79.84 129.36 77.42 128.57 75.40 C 126.37 74.30 123.45 74.39 121.04 74.14 L 121.06 71.49 C 136.45 72.18 151.74 70.94 167.10 71.66 Z" fill="#00457c" />
<path d="M 908.50 71.57 C 916.84 71.95 925.16 72.00 933.50 71.58 L 933.52 74.20 C 931.11 74.43 928.50 74.50 926.20 75.24 C 925.15 77.18 925.24 79.84 925.14 82.00 C 925.03 92.00 924.89 102.00 925.08 112.00 C 925.30 116.09 925.24 120.58 928.24 123.75 C 931.60 127.47 937.25 128.35 942.00 128.47 C 946.99 128.54 953.26 127.61 957.03 124.02 C 960.47 120.65 960.64 115.49 960.93 111.00 C 961.21 102.01 961.03 92.99 960.97 84.00 C 960.89 81.27 960.98 78.34 960.25 75.69 C 958.19 74.26 954.94 74.52 952.55 74.21 L 952.56 71.57 C 959.57 71.99 966.55 71.87 973.56 71.56 L 973.51 73.70 C 971.19 74.10 968.43 74.21 966.32 75.32 C 965.25 76.36 965.40 78.58 965.23 79.96 C 964.92 89.97 965.18 100.00 965.00 110.00 C 964.84 114.00 964.74 118.50 963.29 122.27 C 961.44 126.93 957.49 130.22 952.88 131.96 C 946.73 134.27 939.65 134.44 933.21 133.49 C 928.09 132.63 922.81 130.66 919.77 126.21 C 917.42 122.90 917.28 118.92 917.06 115.00 C 916.78 102.69 917.33 90.27 916.65 77.98 C 916.81 73.54 911.39 74.83 908.48 74.21 L 908.50 71.57 Z" fill="#00457c" />
<path d="M 238.22 78.12 C 245.21 76.90 252.97 77.47 259.44 80.57 C 265.17 83.28 269.71 88.36 271.53 94.46 C 274.52 104.65 272.54 116.25 265.02 124.02 C 256.23 133.66 240.57 135.70 229.11 130.01 C 221.46 126.14 217.56 118.44 216.30 110.24 C 215.35 103.31 216.37 95.30 220.43 89.43 C 224.55 83.51 231.14 79.40 238.22 78.12 Z" fill="#00457c" />
<path d="M 428.74 77.60 C 435.66 93.01 441.94 108.74 448.79 124.18 C 449.52 125.67 450.24 127.34 451.37 128.56 C 452.77 129.11 454.27 129.44 455.73 129.82 C 455.71 130.56 455.69 131.29 455.67 132.03 C 448.88 131.52 442.11 131.81 435.32 132.06 C 435.31 131.23 435.30 130.41 435.28 129.59 C 437.63 129.36 439.97 129.08 442.30 128.72 C 440.84 123.69 438.76 119.03 436.82 114.18 C 429.60 114.19 422.37 114.19 415.14 114.19 C 413.46 118.79 410.25 123.64 410.05 128.58 C 412.17 129.16 414.30 129.38 416.47 129.66 C 416.46 130.45 416.44 131.24 416.43 132.04 C 410.57 131.73 404.74 131.66 398.87 132.00 C 398.88 131.26 398.88 130.52 398.88 129.78 C 400.46 129.44 402.11 129.17 403.63 128.61 C 404.94 127.22 405.76 125.28 406.59 123.57 C 413.12 109.30 419.48 95.01 425.52 80.53 C 426.31 78.60 426.84 78.28 428.74 77.60 Z" fill="#00457c" />
<path d="M 672.03 77.62 C 678.83 93.01 685.16 108.62 691.95 124.01 C 692.78 125.67 693.59 127.80 695.07 128.98 C 698.08 129.93 701.71 129.80 704.70 128.79 C 705.96 123.41 705.49 117.51 705.63 112.00 C 705.50 102.77 705.86 93.48 705.49 84.27 C 705.07 80.96 700.98 81.30 698.57 80.66 L 698.63 78.62 C 703.11 78.71 707.58 78.75 712.05 78.63 C 723.52 93.48 735.68 108.06 748.05 122.17 C 748.04 111.78 748.11 101.39 748.02 91.00 C 747.89 88.03 748.02 84.74 747.09 81.90 C 745.24 81.26 743.21 81.05 741.29 80.70 L 741.39 78.61 C 746.99 78.73 752.58 78.76 758.19 78.61 L 758.21 80.75 C 756.40 81.05 754.50 81.24 752.75 81.79 C 751.69 83.48 751.89 86.05 751.70 87.99 C 751.36 103.17 751.68 118.37 751.73 133.55 C 748.64 132.54 745.94 131.86 743.94 129.07 C 732.46 114.96 720.74 101.06 709.07 87.12 C 709.10 98.08 708.97 109.04 709.14 120.00 C 709.28 122.87 709.17 126.04 710.09 128.79 C 711.88 129.40 713.90 129.56 715.77 129.86 L 715.75 132.01 C 703.36 131.63 690.95 131.54 678.57 132.06 C 678.56 131.24 678.55 130.43 678.53 129.61 C 680.76 129.40 682.97 129.22 685.16 128.74 C 684.57 123.72 681.76 118.93 680.05 114.19 C 672.82 114.19 665.59 114.19 658.36 114.19 C 656.65 118.80 653.59 123.59 653.22 128.53 C 655.36 129.16 657.46 129.37 659.66 129.67 C 659.65 130.46 659.63 131.25 659.62 132.04 C 653.77 131.72 647.97 131.66 642.13 132.00 C 642.11 131.26 642.09 130.51 642.08 129.77 C 643.62 129.46 645.22 129.21 646.71 128.70 C 648.08 127.40 648.90 125.42 649.74 123.75 C 656.24 109.54 662.65 95.19 668.64 80.76 C 669.50 78.67 669.96 78.32 672.03 77.62 Z" fill="#00457c" />
<path d="M 885.48 80.64 C 884.44 84.47 883.87 88.32 883.50 92.26 C 882.77 92.26 882.05 92.26 881.32 92.26 C 881.00 89.56 881.47 85.72 879.21 83.80 C 876.63 81.39 872.39 80.84 869.01 80.59 C 863.60 80.30 857.58 80.86 853.01 84.04 C 847.54 87.88 844.71 94.44 844.30 100.97 C 843.72 108.44 845.30 115.89 850.52 121.49 C 856.58 128.06 865.43 129.85 874.03 128.75 C 878.47 128.25 882.02 126.23 886.05 124.53 C 885.03 126.39 884.75 128.82 882.61 129.65 C 875.25 133.18 866.42 133.85 858.47 132.35 C 851.62 131.02 845.32 127.56 841.12 121.90 C 835.64 114.72 834.59 104.70 837.24 96.22 C 840.12 87.37 847.75 80.87 856.72 78.72 C 866.59 76.22 875.90 77.98 885.48 80.64 Z" fill="#00457c" />
<path d="M 1228.97 77.97 C 1235.40 76.82 1241.26 78.43 1247.22 80.67 C 1246.69 84.23 1246.35 87.78 1246.13 91.36 L 1243.71 91.40 C 1243.33 88.85 1244.06 84.87 1241.63 83.32 C 1235.81 79.05 1225.89 79.21 1222.19 86.21 C 1220.25 89.77 1219.68 96.87 1223.92 99.08 C 1230.15 102.32 1238.60 100.97 1244.86 104.16 C 1249.17 106.50 1250.74 111.37 1250.32 116.04 C 1249.75 123.49 1243.69 129.59 1236.84 131.88 C 1229.42 134.22 1221.81 133.28 1214.67 130.49 C 1215.00 126.50 1215.19 122.51 1215.32 118.51 C 1216.14 118.49 1216.96 118.47 1217.78 118.45 C 1218.14 120.73 1217.84 123.87 1219.11 125.83 C 1225.08 131.37 1236.69 131.79 1241.53 124.49 C 1244.30 120.32 1244.59 112.11 1239.25 109.77 C 1233.50 107.53 1224.73 108.64 1219.20 104.80 C 1213.71 100.86 1213.08 92.76 1215.93 87.04 C 1218.39 81.84 1223.48 78.97 1228.97 77.97 Z" fill="#00457c" />
<path d="M 1335.77 78.19 C 1337.75 79.37 1339.22 81.61 1340.53 83.47 C 1345.17 90.46 1349.09 98.07 1352.89 105.54 C 1358.53 96.77 1363.68 87.67 1369.00 78.66 C 1371.13 78.69 1373.25 78.72 1375.37 78.76 C 1368.35 87.85 1361.80 97.22 1356.20 107.25 C 1354.45 110.31 1354.96 113.59 1354.90 117.00 C 1355.04 120.80 1354.73 124.87 1355.62 128.57 C 1357.62 129.54 1360.21 129.55 1362.39 129.85 L 1362.37 132.10 C 1355.04 131.74 1347.77 131.78 1340.44 132.11 C 1340.43 131.35 1340.43 130.59 1340.42 129.84 C 1342.56 129.60 1344.83 129.44 1346.90 128.86 C 1348.46 123.95 1347.63 118.12 1347.90 112.99 C 1348.22 108.57 1345.75 105.83 1343.73 102.22 C 1340.07 96.37 1336.69 90.03 1332.16 84.81 C 1330.45 82.68 1328.17 82.31 1325.69 81.52 C 1325.72 80.90 1325.75 80.28 1325.78 79.66 C 1329.02 79.11 1332.48 77.98 1335.77 78.19 Z" fill="#00457c" />
<path d="M 171.26 78.60 C 178.68 78.90 186.01 78.92 193.43 78.60 L 193.47 80.80 C 191.41 81.25 188.29 80.94 186.63 82.40 C 185.98 85.17 186.09 88.17 186.02 91.00 C 185.94 103.43 185.80 115.87 186.12 128.29 C 193.96 128.65 201.71 128.78 209.46 127.32 C 210.29 124.35 211.04 121.36 211.77 118.37 C 212.63 118.37 213.48 118.37 214.33 118.37 C 213.73 122.82 213.21 127.29 212.66 131.75 C 199.80 132.47 186.90 131.49 174.01 131.87 C 175.34 130.24 177.02 128.79 178.10 126.98 C 178.75 124.09 178.63 120.95 178.72 118.00 C 178.79 108.66 178.76 99.32 178.68 89.99 C 178.64 87.30 178.66 84.66 177.96 82.05 C 175.88 81.23 173.39 81.12 171.19 80.79 L 171.26 78.60 Z" fill="#00457c" />
<path d="M 272.45 78.60 C 280.33 78.90 288.12 78.94 296.01 78.57 C 300.61 78.55 306.85 78.37 310.71 81.26 C 315.78 85.18 316.19 92.54 312.64 97.63 C 309.59 102.11 305.08 103.48 300.18 105.06 C 306.46 113.20 312.45 121.57 319.01 129.48 C 322.35 129.49 326.40 129.95 329.52 128.62 C 330.20 126.21 330.18 123.49 330.23 121.00 C 330.35 110.67 330.34 100.33 330.25 90.00 C 330.20 87.45 330.21 84.73 329.62 82.24 C 327.67 81.11 324.98 81.17 322.80 80.81 L 322.81 78.61 C 330.22 78.93 337.60 78.84 345.00 78.61 L 345.00 80.83 C 342.82 81.14 340.30 81.19 338.27 82.11 C 336.97 90.56 337.81 99.45 337.56 108.00 C 337.81 114.78 336.94 122.02 338.36 128.66 C 340.43 129.38 342.82 129.52 345.00 129.77 C 345.00 130.53 345.00 131.29 345.00 132.06 C 333.75 131.65 322.47 131.69 311.23 132.02 C 306.17 125.61 301.76 118.75 296.65 112.39 C 294.27 109.40 291.79 106.51 289.50 103.45 C 293.95 103.08 298.95 103.53 302.74 100.77 C 308.19 97.10 309.04 87.51 303.42 83.62 C 298.87 80.53 292.54 81.51 287.46 82.45 C 286.79 94.24 287.03 106.17 287.02 118.00 C 287.11 121.44 286.90 125.09 287.66 128.46 C 289.63 129.51 292.29 129.49 294.46 129.80 L 294.43 132.03 C 287.10 131.63 279.78 131.84 272.45 132.06 L 272.41 129.78 C 274.52 129.52 276.83 129.45 278.87 128.78 C 279.78 127.12 279.72 124.86 279.82 123.02 C 279.99 111.68 279.97 100.34 279.86 89.00 C 279.79 86.72 279.81 84.15 279.06 81.98 C 276.97 81.24 274.57 81.11 272.39 80.79 L 272.45 78.60 Z" fill="#00457c" />
<path d="M 351.06 78.62 C 357.71 78.88 364.35 78.82 371.00 78.64 C 377.48 78.52 384.67 78.20 390.92 80.11 C 398.52 82.39 404.58 89.15 405.99 96.96 C 407.59 105.85 405.20 115.38 399.24 122.22 C 394.66 127.54 388.01 131.00 381.03 131.72 C 375.79 132.31 370.30 131.90 365.00 131.84 C 360.82 131.75 356.66 132.03 352.48 131.72 C 353.96 130.29 355.51 128.96 357.09 127.64 C 357.82 115.82 357.82 103.82 357.70 91.98 C 357.62 88.67 357.63 85.21 356.90 81.98 C 355.04 81.29 352.94 81.07 350.99 80.73 L 351.06 78.62 Z" fill="#00457c" />
<path d="M 550.60 78.60 C 565.30 79.20 579.86 79.22 594.56 78.60 C 594.28 82.77 594.09 86.95 593.97 91.13 C 593.16 91.13 592.36 91.13 591.56 91.12 C 591.29 88.38 590.99 85.65 590.66 82.92 C 585.93 82.48 581.19 82.31 576.44 82.28 C 575.90 91.15 576.20 100.10 576.12 109.00 C 576.18 114.66 575.97 120.37 576.36 126.02 C 576.55 127.18 576.50 128.88 578.04 129.03 C 579.85 129.45 581.75 129.58 583.59 129.78 C 583.58 130.53 583.57 131.29 583.55 132.04 C 576.26 131.66 569.00 131.82 561.71 132.06 L 561.66 129.78 C 563.87 129.50 566.41 129.45 568.46 128.53 C 569.41 124.51 569.05 120.11 569.17 116.00 C 569.13 104.77 569.38 93.52 568.90 82.30 C 564.21 82.46 559.05 81.93 554.49 83.16 C 553.82 85.74 553.61 88.47 553.28 91.11 C 552.51 91.12 551.74 91.13 550.96 91.13 C 550.90 86.95 550.80 82.78 550.60 78.60 Z" fill="#00457c" />
<path d="M 598.57 78.60 C 605.99 78.90 613.32 78.92 620.74 78.60 L 620.81 80.79 C 618.61 81.11 616.15 81.23 614.07 82.02 C 613.11 85.83 613.44 90.09 613.33 94.00 C 613.35 105.43 613.19 116.87 613.44 128.30 C 621.32 128.63 629.03 128.81 636.81 127.28 C 638.01 123.91 637.79 119.06 641.49 117.44 C 641.27 122.26 640.55 126.93 640.01 131.73 C 627.11 132.47 614.16 131.52 601.23 131.84 C 602.92 129.61 605.85 128.10 605.77 125.06 C 606.31 116.74 605.96 108.34 606.06 100.00 C 605.87 94.20 606.45 88.12 605.40 82.41 C 603.71 80.95 600.61 81.24 598.52 80.80 L 598.57 78.60 Z" fill="#00457c" />
<path d="M 762.84 78.60 C 777.54 79.20 792.11 79.22 806.80 78.60 C 806.52 82.77 806.34 86.94 806.22 91.12 L 803.81 91.13 C 803.53 88.39 803.24 85.64 802.90 82.90 C 798.17 82.48 793.43 82.31 788.68 82.28 C 788.09 93.50 788.50 104.77 788.37 116.00 C 788.51 120.13 788.00 124.75 789.22 128.73 C 791.31 129.39 793.67 129.53 795.85 129.78 C 795.83 130.53 795.82 131.29 795.81 132.04 C 788.51 131.66 781.23 131.81 773.94 132.06 L 773.94 129.77 C 776.11 129.50 778.56 129.45 780.61 128.63 C 781.64 124.96 781.29 120.80 781.41 117.00 C 781.39 105.43 781.63 93.84 781.15 82.29 C 776.32 82.29 771.49 82.39 766.68 82.82 C 766.25 85.58 765.88 88.35 765.53 91.12 C 764.76 91.12 763.98 91.13 763.20 91.13 C 763.14 86.95 763.04 82.78 762.84 78.60 Z" fill="#00457c" />
<path d="M 811.19 78.61 C 818.59 78.93 825.97 78.85 833.37 78.60 L 833.41 80.80 C 831.47 81.08 829.41 81.16 827.54 81.75 C 825.88 82.17 826.37 84.63 826.09 85.95 C 825.80 95.29 826.00 104.66 825.94 114.00 C 826.07 118.76 825.61 123.80 826.60 128.47 C 828.60 129.48 831.19 129.49 833.40 129.79 L 833.36 132.05 C 825.95 131.73 818.60 131.78 811.19 132.06 C 811.18 131.30 811.17 130.54 811.15 129.77 C 813.33 129.53 815.69 129.39 817.79 128.74 C 818.54 126.61 818.53 124.25 818.59 122.01 C 818.73 111.34 818.71 100.66 818.63 89.98 C 818.58 87.34 818.61 84.65 817.91 82.07 C 815.84 81.21 813.33 81.12 811.13 80.79 L 811.19 78.61 Z" fill="#00457c" />
<path d="M 970.81 78.75 C 975.18 78.78 979.56 78.80 983.94 78.69 C 995.43 93.58 1007.60 108.13 1019.98 122.29 C 1019.80 108.82 1020.58 95.17 1019.25 81.75 C 1017.27 81.46 1015.29 81.19 1013.30 80.94 L 1013.32 78.67 C 1018.93 78.79 1024.52 78.81 1030.13 78.68 L 1030.12 80.78 C 1028.21 81.14 1026.07 81.31 1024.27 82.10 C 1023.61 84.93 1023.62 88.01 1023.53 90.90 C 1023.27 105.12 1023.57 119.37 1023.62 133.58 C 1021.09 132.65 1018.65 132.35 1016.82 130.20 C 1012.96 126.04 1009.60 121.38 1005.95 117.03 C 997.62 107.08 989.29 97.12 980.95 87.17 C 980.97 98.11 980.85 109.06 981.02 120.00 C 981.16 122.90 981.07 126.09 981.97 128.88 C 983.76 129.45 985.76 129.63 987.62 129.92 C 987.63 130.63 987.63 131.35 987.64 132.06 C 982.03 131.80 976.43 131.85 970.81 132.10 L 970.81 129.80 C 972.80 129.57 974.78 129.33 976.76 129.04 C 977.87 120.89 977.40 112.27 977.50 104.00 C 977.34 97.31 977.83 90.53 977.29 83.88 C 976.76 81.21 972.72 81.28 970.69 80.68 L 970.81 78.75 Z" fill="#00457c" />
<path d="M 1034.38 78.67 C 1041.80 78.96 1049.14 78.96 1056.56 78.67 L 1056.58 80.90 C 1054.41 81.19 1052.04 81.30 1049.97 82.00 C 1049.15 84.49 1049.25 87.40 1049.17 90.00 C 1049.10 100.67 1049.10 111.34 1049.17 122.01 C 1049.28 124.18 1049.11 126.88 1050.15 128.85 C 1052.20 129.45 1054.46 129.60 1056.59 129.84 L 1056.55 132.11 C 1049.14 131.78 1041.79 131.83 1034.38 132.12 C 1034.37 131.36 1034.36 130.59 1034.35 129.83 C 1036.51 129.59 1038.81 129.45 1040.90 128.86 C 1041.79 126.81 1041.71 124.21 1041.79 122.00 C 1041.92 111.00 1041.90 100.00 1041.82 89.00 C 1041.74 86.74 1041.77 84.18 1041.00 82.03 C 1038.93 81.30 1036.53 81.19 1034.36 80.89 L 1034.38 78.67 Z" fill="#00457c" />
<path d="M 1058.73 78.76 C 1065.75 78.92 1072.72 78.99 1079.74 78.66 L 1079.77 81.32 C 1077.49 81.47 1075.20 81.62 1072.92 81.84 C 1077.01 95.62 1083.16 108.80 1088.23 122.25 C 1093.26 108.91 1099.61 95.78 1103.18 81.98 C 1100.85 81.63 1098.52 81.34 1096.18 81.06 L 1096.19 78.67 C 1101.76 78.88 1107.27 78.88 1112.83 78.68 C 1112.84 79.33 1112.84 79.99 1112.84 80.64 C 1111.56 81.02 1110.30 81.44 1109.06 81.92 C 1106.95 84.67 1105.83 88.29 1104.44 91.45 C 1099.02 105.11 1093.08 118.62 1088.22 132.50 C 1086.95 132.50 1085.68 132.50 1084.41 132.51 C 1078.53 116.36 1071.85 100.49 1065.40 84.56 C 1064.45 81.61 1062.22 81.72 1059.74 80.59 L 1058.73 78.76 Z" fill="#00457c" />
<path d="M 1116.00 78.66 C 1129.63 79.28 1143.26 78.11 1156.86 78.91 C 1156.16 82.79 1155.78 86.70 1155.45 90.62 C 1154.68 90.63 1153.91 90.65 1153.13 90.66 C 1152.97 88.24 1152.79 85.82 1152.58 83.41 C 1145.49 81.61 1138.40 81.81 1131.17 82.31 C 1130.94 89.14 1130.87 95.98 1130.80 102.81 C 1136.59 103.05 1142.35 103.16 1148.11 102.34 C 1148.37 100.33 1148.61 98.32 1148.86 96.31 L 1151.13 96.32 C 1150.93 102.10 1150.94 107.84 1151.12 113.62 C 1150.28 113.63 1149.45 113.65 1148.61 113.66 C 1148.36 111.53 1148.19 109.30 1147.63 107.24 C 1142.44 105.53 1136.20 106.48 1130.78 106.40 C 1130.56 113.62 1130.56 120.86 1130.77 128.08 C 1138.53 128.39 1145.77 129.08 1153.42 127.43 C 1154.16 124.63 1154.83 121.82 1155.47 119.00 C 1156.30 119.00 1157.12 119.00 1157.95 119.00 C 1157.48 123.25 1157.11 127.49 1156.87 131.75 C 1143.54 132.63 1130.17 131.34 1116.81 132.11 L 1116.82 129.92 C 1118.72 129.62 1120.81 129.42 1122.61 128.74 C 1123.40 125.62 1123.34 122.21 1123.44 119.00 C 1123.56 109.34 1123.50 99.67 1123.42 90.00 C 1123.38 87.44 1123.38 84.65 1122.72 82.17 C 1120.71 81.24 1118.18 81.22 1116.00 80.91 L 1116.00 78.66 Z" fill="#00457c" />
<path d="M 1162.81 78.66 C 1170.57 78.95 1178.25 79.01 1186.00 78.64 C 1190.66 78.61 1196.87 78.39 1200.86 81.16 C 1205.95 84.84 1206.62 92.10 1203.31 97.22 C 1200.33 102.03 1195.65 103.48 1190.56 105.13 C 1196.83 113.21 1202.75 121.59 1209.33 129.42 C 1210.28 129.52 1211.24 129.61 1212.19 129.71 L 1212.19 132.01 C 1208.66 131.92 1205.14 131.96 1201.62 132.08 C 1196.61 125.78 1192.27 119.00 1187.23 112.72 C 1184.80 109.65 1182.25 106.68 1179.90 103.53 C 1184.29 103.12 1189.18 103.58 1192.97 100.94 C 1198.64 97.27 1199.49 87.26 1193.50 83.48 C 1188.91 80.63 1182.84 81.58 1177.81 82.52 C 1177.18 94.63 1177.40 106.85 1177.40 118.99 C 1177.48 122.16 1177.27 125.73 1178.20 128.78 C 1180.29 129.44 1182.66 129.59 1184.84 129.83 C 1184.83 130.59 1184.82 131.34 1184.81 132.09 C 1177.47 131.68 1170.15 131.90 1162.81 132.12 L 1162.81 129.84 C 1164.99 129.57 1167.49 129.50 1169.53 128.64 C 1170.11 126.54 1170.15 124.18 1170.21 122.01 C 1170.35 111.00 1170.35 100.00 1170.22 89.00 C 1170.17 86.79 1170.13 84.44 1169.60 82.29 C 1167.66 81.17 1164.98 81.25 1162.81 80.90 L 1162.81 78.66 Z" fill="#00457c" />
<path d="M 1253.56 78.67 C 1260.98 78.96 1268.33 78.97 1275.75 78.67 L 1275.76 80.89 C 1273.59 81.20 1271.15 81.29 1269.09 82.08 C 1268.38 84.69 1268.42 87.30 1268.37 89.98 C 1268.28 100.33 1268.30 110.68 1268.35 121.02 C 1268.40 123.58 1268.36 126.34 1269.18 128.79 C 1271.26 129.44 1273.60 129.59 1275.77 129.84 C 1275.77 130.60 1275.76 131.35 1275.75 132.11 C 1268.33 131.79 1260.98 131.83 1253.57 132.12 L 1253.54 129.85 C 1255.72 129.54 1258.43 129.60 1260.37 128.50 C 1260.97 126.10 1260.94 123.46 1261.00 121.00 C 1261.09 110.67 1261.08 100.33 1261.02 90.00 C 1260.96 87.49 1260.99 84.82 1260.39 82.37 C 1258.53 81.12 1255.70 81.26 1253.55 80.90 L 1253.56 78.67 Z" fill="#00457c" />
<path d="M 1279.40 78.66 C 1294.09 79.26 1308.66 79.28 1323.35 78.66 C 1323.07 82.84 1322.89 87.01 1322.77 91.19 C 1321.97 91.19 1321.16 91.19 1320.35 91.19 C 1320.08 88.45 1319.80 85.72 1319.46 82.98 C 1314.73 82.54 1309.99 82.36 1305.24 82.34 C 1304.64 93.54 1304.93 104.79 1304.92 116.00 C 1305.04 120.13 1304.67 124.54 1305.62 128.57 C 1307.62 129.54 1310.21 129.56 1312.39 129.86 L 1312.37 132.10 C 1305.08 131.71 1297.80 131.88 1290.51 132.12 L 1290.48 129.83 C 1292.62 129.60 1294.90 129.44 1296.98 128.89 C 1298.12 126.23 1297.83 122.84 1297.94 120.00 C 1297.97 107.46 1298.21 94.89 1297.70 82.36 C 1292.89 82.35 1288.08 82.43 1283.29 82.90 C 1282.43 86.31 1283.29 90.04 1279.92 92.05 C 1279.63 87.59 1279.60 83.12 1279.40 78.66 Z" fill="#00457c" />
<path d="M 237.44 81.53 C 243.92 79.88 251.49 80.95 256.78 85.21 C 261.37 88.97 263.55 94.49 264.40 100.22 C 265.29 106.69 264.85 113.97 261.92 119.92 C 259.74 124.37 255.78 127.65 250.99 128.95 C 244.83 130.53 237.65 129.54 232.73 125.28 C 228.06 121.37 225.68 115.63 224.55 109.78 C 223.33 103.17 223.54 95.81 226.79 89.79 C 229.00 85.65 232.93 82.71 237.44 81.53 Z" fill="#ffffff" />
<path d="M 365.17 82.43 C 372.73 81.68 382.25 80.90 389.08 84.89 C 395.60 88.69 398.11 95.77 398.30 103.00 C 398.45 111.26 396.32 120.20 389.01 125.02 C 382.17 129.40 372.89 128.82 365.16 128.02 C 364.69 112.85 364.63 97.60 365.17 82.43 Z" fill="#ffffff" />
<path d="M 425.96 88.45 C 429.11 95.93 432.19 103.44 435.30 110.94 C 429.01 110.94 422.72 110.94 416.44 110.94 C 419.16 104.50 421.87 98.06 424.60 91.62 C 425.05 90.57 425.50 89.51 425.96 88.45 Z" fill="#ffffff" />
<path d="M 669.19 88.41 C 672.31 95.92 675.42 103.43 678.53 110.93 C 672.24 110.94 665.95 110.94 659.67 110.93 C 662.84 103.43 666.01 95.92 669.19 88.41 Z" fill="#ffffff" />
<path d="M 536.01 95.79 C 540.13 96.66 545.41 98.52 547.68 102.34 C 549.13 104.65 547.67 106.59 546.95 108.84 C 546.27 107.04 545.99 104.76 544.81 103.19 C 542.61 100.76 538.71 99.91 535.68 98.99 C 539.27 106.77 543.12 114.43 546.84 122.15 C 547.81 124.00 548.76 126.27 550.35 127.67 C 552.24 128.71 554.85 128.58 556.95 128.90 C 556.95 130.03 556.94 131.15 556.93 132.28 C 547.52 131.54 538.17 131.91 528.75 132.28 C 528.75 131.17 528.75 130.06 528.75 128.94 C 531.20 128.64 533.49 128.52 535.81 127.62 C 536.06 124.98 534.72 122.67 533.69 120.33 C 530.32 113.29 527.11 106.17 523.75 99.12 C 518.65 100.23 513.97 101.39 510.02 105.05 C 504.11 110.47 503.13 120.36 508.52 126.50 C 513.90 132.74 522.20 135.20 529.90 137.15 C 524.16 137.68 518.54 137.80 512.92 136.35 C 507.16 134.92 501.35 132.10 497.79 127.20 C 493.42 121.34 493.67 112.69 497.73 106.74 C 500.57 102.53 505.11 99.54 509.76 97.67 C 517.94 94.36 527.43 94.08 536.01 95.79 Z" fill="#00457c" />
<path d="M 480.74 122.83 C 482.14 126.24 483.82 129.02 486.14 131.88 C 480.73 131.75 475.34 131.97 469.94 132.27 C 469.94 131.14 469.94 130.01 469.94 128.88 C 472.18 128.63 474.77 128.77 476.86 127.87 C 478.54 126.69 479.60 124.50 480.74 122.83 Z" fill="#00457c" />
<path d="M 120.00 143.20 C 539.40 143.15 958.80 143.19 1378.20 143.18 C 1378.20 144.44 1378.20 145.70 1378.20 146.96 C 958.79 146.96 539.39 146.96 119.99 146.96 C 120.00 145.71 120.00 144.45 120.00 143.20 Z" fill="#d72655" />
<path d="M 235.96 160.31 C 235.43 162.84 234.93 165.38 234.30 167.90 C 233.07 165.14 233.53 161.83 230.05 161.00 C 224.97 159.64 218.07 160.08 214.79 164.81 C 210.27 171.21 211.53 182.20 218.73 186.25 C 224.43 189.48 230.60 188.51 236.23 185.71 C 235.89 186.61 235.55 187.50 235.21 188.39 C 227.43 191.61 217.77 191.88 211.51 185.50 C 205.21 178.89 206.12 167.00 213.82 161.80 C 220.56 157.21 228.54 158.40 235.96 160.31 Z" fill="#00457c" />
<path d="M 495.43 160.34 C 494.88 162.85 494.37 165.37 493.77 167.87 C 493.11 166.05 492.80 163.91 491.75 162.27 C 489.58 160.33 485.72 160.26 482.97 160.41 C 479.17 160.58 475.63 162.30 473.67 165.65 C 469.67 172.62 471.41 183.21 479.19 186.80 C 485.19 189.60 490.44 187.86 496.29 185.89 C 494.81 187.41 493.66 188.94 491.53 189.54 C 485.15 191.54 476.86 190.97 471.74 186.27 C 467.45 182.42 466.08 176.58 467.16 171.03 C 468.24 165.59 472.48 161.22 477.73 159.60 C 483.81 157.72 489.44 158.82 495.43 160.34 Z" fill="#00457c" />
<path d="M 691.60 160.27 C 691.22 162.73 690.84 165.18 690.29 167.61 C 689.69 165.86 689.23 164.04 688.52 162.33 C 686.67 160.29 683.01 159.92 680.50 160.73 C 676.74 161.84 674.79 167.63 677.46 170.55 C 681.29 173.12 687.61 171.83 691.28 174.72 C 694.91 178.37 693.34 184.60 689.60 187.59 C 684.54 191.81 678.46 190.91 672.59 189.21 C 672.88 186.53 673.15 183.85 673.67 181.20 C 674.70 183.15 674.78 186.95 677.21 187.70 C 680.78 189.39 685.33 189.24 687.94 185.98 C 689.65 183.81 690.04 179.19 687.48 177.52 C 683.86 175.75 678.28 176.53 674.97 174.02 C 670.73 170.18 672.25 162.73 677.17 160.16 C 682.01 157.51 686.67 158.80 691.60 160.27 Z" fill="#00457c" />
<path d="M 957.04 159.50 C 963.25 159.38 969.64 158.88 975.82 159.52 C 979.56 160.11 981.46 163.76 980.32 167.27 C 979.32 170.35 976.78 171.27 974.12 172.56 C 976.98 173.33 980.03 173.51 981.43 176.55 C 983.57 181.59 980.63 186.83 975.85 188.89 C 970.86 190.88 964.50 189.58 959.18 189.93 C 959.94 189.08 960.70 188.24 961.46 187.39 C 961.78 178.76 961.88 170.07 961.36 161.45 C 960.38 161.06 959.41 160.66 958.45 160.24 L 957.04 159.50 Z" fill="#00457c" />
<path d="M 1116.40 160.29 C 1116.01 162.75 1115.64 165.20 1115.07 167.62 C 1114.36 165.83 1114.12 163.54 1113.02 161.95 C 1109.87 159.59 1104.45 159.61 1102.15 163.17 C 1100.84 165.13 1100.39 169.00 1102.36 170.66 C 1106.24 173.10 1112.62 171.85 1116.17 174.82 C 1119.79 178.75 1117.95 184.98 1113.96 187.92 C 1108.91 191.77 1103.03 190.87 1097.35 189.19 C 1097.67 186.55 1097.99 183.91 1098.47 181.29 C 1099.12 183.06 1099.64 184.90 1100.43 186.61 C 1103.76 189.54 1110.09 189.66 1112.84 185.81 C 1114.41 183.63 1114.73 179.39 1112.42 177.62 C 1108.79 175.71 1103.31 176.56 1099.89 174.12 C 1095.62 170.51 1096.87 163.22 1101.47 160.45 C 1106.39 157.44 1111.29 158.74 1116.40 160.29 Z" fill="#00457c" />
<path d="M 966.10 161.08 C 968.48 161.12 971.23 160.87 973.50 161.68 C 977.43 163.09 976.86 169.77 973.22 171.19 C 970.96 172.05 968.26 171.96 965.86 172.17 C 965.85 168.47 965.88 164.78 966.10 161.08 Z" fill="#ffffff" />
<path d="M 1145.87 163.85 C 1145.40 166.09 1144.96 168.34 1144.50 170.59 C 1143.41 168.27 1143.61 165.08 1140.63 164.44 C 1136.35 163.33 1130.39 163.61 1127.48 167.46 C 1122.89 173.47 1124.40 184.04 1131.73 187.25 C 1137.04 189.65 1141.56 187.95 1146.78 186.48 C 1145.21 187.87 1143.93 189.29 1141.83 189.79 C 1136.15 191.33 1128.99 190.70 1124.63 186.36 C 1118.82 180.63 1119.39 169.93 1126.24 165.23 C 1132.23 161.10 1139.26 162.13 1145.87 163.85 Z" fill="#00457c" />
<path d="M 1242.96 163.85 C 1242.47 166.10 1242.02 168.35 1241.55 170.60 C 1240.45 168.19 1240.73 165.10 1237.64 164.43 C 1233.32 163.34 1227.46 163.62 1224.53 167.50 C 1219.99 173.50 1221.48 183.99 1228.76 187.23 C 1234.05 189.65 1238.59 187.97 1243.81 186.48 C 1242.24 187.92 1240.94 189.34 1238.79 189.83 C 1233.13 191.32 1225.99 190.67 1221.67 186.32 C 1215.91 180.59 1216.48 169.97 1223.28 165.25 C 1229.27 161.09 1236.33 162.14 1242.96 163.85 Z" fill="#00457c" />
<path d="M 258.91 162.94 C 258.65 164.96 258.41 166.98 258.17 169.00 L 257.15 169.00 C 256.96 167.68 256.77 166.37 256.58 165.05 C 253.00 164.67 249.49 164.56 245.89 164.66 C 245.81 168.17 245.75 171.67 245.73 175.18 C 248.49 175.19 251.26 175.16 254.02 175.07 C 254.62 173.70 255.24 172.34 255.89 170.99 C 255.99 174.22 255.97 177.44 256.00 180.67 L 255.22 180.60 C 254.76 179.46 254.25 178.34 253.70 177.24 C 251.09 176.79 248.33 176.93 245.69 176.90 C 245.64 180.62 245.64 184.33 245.70 188.04 C 249.42 188.15 253.12 188.14 256.83 187.80 C 257.58 185.92 258.34 184.05 259.17 182.21 C 259.21 184.77 259.15 187.33 259.05 189.89 C 251.95 190.10 244.84 189.84 237.73 189.92 C 239.06 189.27 240.39 188.63 241.73 188.01 C 242.14 180.28 242.08 172.52 241.78 164.78 C 240.26 164.33 238.74 163.85 237.23 163.36 C 244.41 162.68 251.71 162.90 258.91 162.94 Z" fill="#00457c" />
<path d="M 261.49 162.96 C 263.93 162.93 266.37 162.92 268.81 162.90 C 274.66 170.42 280.78 177.75 287.05 184.93 C 287.05 178.24 287.17 171.58 286.84 164.89 C 285.50 164.27 284.17 163.64 282.84 163.00 C 286.26 162.91 289.67 162.91 293.08 163.03 C 291.76 163.66 290.43 164.27 289.10 164.88 C 288.57 173.68 289.19 182.48 288.73 191.27 C 286.51 189.80 284.55 188.18 282.91 186.07 C 277.84 179.70 272.53 173.54 267.32 167.27 C 267.34 174.26 267.16 181.17 267.60 188.15 C 268.96 188.64 270.31 189.14 271.67 189.65 C 268.31 189.95 264.87 189.96 261.49 190.02 C 262.72 189.32 263.92 188.56 265.09 187.76 C 265.81 184.29 265.49 180.54 265.57 177.00 C 265.49 173.18 265.83 169.25 265.33 165.46 C 264.46 164.71 263.41 164.15 262.44 163.54 L 261.49 162.96 Z" fill="#00457c" />
<path d="M 294.23 162.88 C 301.72 163.17 309.15 163.19 316.64 162.89 C 316.55 164.82 316.47 166.76 316.40 168.70 C 315.99 168.99 315.58 169.28 315.17 169.58 C 314.99 168.07 314.81 166.57 314.63 165.06 C 312.24 164.93 309.84 164.83 307.44 164.74 C 307.25 172.61 307.19 180.51 307.51 188.37 C 308.69 188.52 309.88 188.68 311.06 188.82 L 311.07 189.98 C 307.35 189.90 303.65 189.91 299.93 189.99 L 299.94 188.82 C 301.14 188.68 302.34 188.53 303.54 188.38 C 303.89 180.52 303.77 172.63 303.65 164.77 C 301.29 164.82 298.94 164.89 296.59 164.97 C 296.07 166.73 295.54 168.49 294.92 170.22 C 294.60 167.78 294.40 165.34 294.23 162.88 Z" fill="#00457c" />
<path d="M 339.25 162.95 C 338.81 165.26 338.39 167.58 337.80 169.86 C 337.38 168.25 336.97 166.64 336.58 165.02 C 333.07 164.67 329.61 164.57 326.09 164.65 C 325.98 168.16 325.93 171.67 325.89 175.18 C 328.69 175.19 331.49 175.16 334.29 175.07 C 334.79 173.68 335.31 172.29 335.84 170.91 C 336.29 174.51 336.25 178.12 335.50 181.68 C 335.07 180.18 334.67 178.67 334.28 177.15 C 331.48 177.00 328.68 176.93 325.88 176.90 C 325.82 180.62 325.82 184.32 325.88 188.04 C 329.60 188.14 333.31 188.13 337.02 187.82 C 337.74 185.94 338.48 184.07 339.29 182.22 C 339.37 184.78 339.33 187.34 339.24 189.89 C 332.14 190.10 325.04 189.85 317.94 189.92 C 319.26 189.27 320.58 188.63 321.91 188.00 C 322.16 180.32 322.36 172.54 321.87 164.87 C 320.41 164.32 318.96 163.77 317.50 163.23 C 324.73 162.81 332.01 162.85 339.25 162.95 Z" fill="#00457c" />
<path d="M 341.38 163.08 C 347.21 163.05 353.20 162.56 359.00 163.19 C 362.85 163.74 364.64 167.78 363.24 171.24 C 362.05 174.32 359.02 175.20 356.33 176.59 C 360.09 181.19 363.05 186.03 367.53 190.01 C 365.60 189.99 363.67 189.97 361.74 189.96 C 358.15 185.15 354.70 180.25 350.80 175.68 C 352.72 175.38 354.78 175.23 356.61 174.58 C 360.16 173.14 360.95 167.44 357.62 165.34 C 355.47 164.00 352.16 164.59 349.73 164.65 C 349.58 172.35 349.11 180.23 349.86 187.90 C 350.96 188.44 352.08 188.93 353.23 189.38 L 353.39 190.01 C 349.32 189.90 345.16 190.06 341.12 189.60 C 342.63 189.09 344.15 188.60 345.67 188.13 C 346.00 180.43 345.96 172.66 345.71 164.95 C 344.26 164.35 342.80 163.76 341.38 163.08 Z" fill="#00457c" />
<path d="M 377.08 163.04 C 383.95 162.93 390.82 162.85 397.69 162.92 C 397.30 165.22 396.91 167.51 396.39 169.79 C 395.93 168.19 395.49 166.58 395.07 164.97 C 391.87 164.73 388.69 164.63 385.48 164.66 C 385.34 168.23 385.30 171.80 385.30 175.36 C 387.93 175.32 390.56 175.26 393.20 175.14 C 393.81 173.79 394.44 172.45 395.10 171.12 C 395.33 174.76 395.33 178.39 395.05 182.02 C 394.38 180.41 393.79 178.78 393.20 177.14 C 390.57 177.05 387.94 177.00 385.31 176.96 C 385.29 180.76 385.32 184.57 385.50 188.37 C 386.69 188.52 387.88 188.68 389.06 188.83 L 389.07 189.98 C 385.35 189.90 381.64 189.92 377.93 189.99 L 377.94 188.82 C 379.12 188.68 380.30 188.53 381.48 188.37 C 381.81 180.57 381.76 172.74 381.54 164.94 C 380.04 164.33 378.56 163.70 377.08 163.04 Z" fill="#00457c" />
<path d="M 408.36 163.38 C 413.59 161.47 420.80 162.02 424.95 166.06 C 429.74 170.69 429.65 179.55 425.70 184.67 C 421.24 190.84 411.94 192.32 405.53 188.50 C 400.51 185.35 398.94 178.52 400.06 173.02 C 400.89 168.57 404.19 165.00 408.36 163.38 Z" fill="#00457c" />
<path d="M 429.40 163.04 C 433.94 162.97 438.48 162.95 443.02 162.88 C 445.41 162.95 448.48 162.86 450.29 164.70 C 452.75 167.20 452.28 171.46 449.72 173.70 C 448.22 174.93 446.28 175.72 444.55 176.59 C 448.28 181.21 451.25 186.05 455.76 190.01 C 453.82 189.99 451.88 189.97 449.94 189.96 C 446.34 185.16 442.93 180.24 438.98 175.70 C 440.87 175.40 442.86 175.22 444.68 174.62 C 448.40 173.27 449.21 167.30 445.69 165.25 C 443.52 164.02 440.33 164.58 437.92 164.68 C 437.64 172.44 437.54 180.31 437.93 188.06 C 439.45 188.64 440.97 189.22 442.47 189.84 C 438.42 189.97 434.37 189.91 430.32 189.99 L 430.29 188.83 C 431.48 188.68 432.67 188.52 433.86 188.37 C 434.23 180.55 434.20 172.71 433.90 164.89 C 432.40 164.29 430.90 163.67 429.40 163.04 Z" fill="#00457c" />
<path d="M 507.17 163.06 C 512.93 161.39 520.68 162.43 524.28 167.74 C 527.64 172.74 527.13 180.60 523.20 185.18 C 518.66 190.93 509.67 192.19 503.49 188.54 C 498.42 185.37 496.84 178.58 497.96 173.02 C 498.86 168.24 502.59 164.49 507.17 163.06 Z" fill="#00457c" />
<path d="M 527.24 163.07 C 530.00 162.93 532.76 162.92 535.53 162.89 C 538.76 170.14 542.32 177.21 545.77 184.35 C 549.16 177.21 552.70 170.12 555.85 162.87 C 558.72 162.92 561.58 162.94 564.44 163.07 C 562.91 163.68 561.37 164.26 559.83 164.83 C 559.54 172.68 559.49 180.57 559.86 188.42 C 561.05 188.55 562.24 188.67 563.44 188.79 L 563.46 189.98 C 559.73 189.90 556.02 189.90 552.29 189.98 L 552.30 188.83 C 553.49 188.68 554.67 188.53 555.86 188.37 C 556.23 181.26 556.12 174.19 556.11 167.07 C 552.29 175.00 548.44 182.90 544.93 190.96 C 541.09 183.28 537.47 175.49 533.70 167.77 C 533.72 174.53 533.54 181.32 533.90 188.07 C 535.43 188.63 536.96 189.21 538.47 189.83 C 535.00 189.96 531.53 189.93 528.06 189.98 L 527.99 188.82 C 529.20 188.69 530.41 188.55 531.62 188.41 C 532.01 180.58 531.97 172.72 531.67 164.89 C 530.65 164.49 529.63 164.09 528.62 163.67 L 527.24 163.07 Z" fill="#00457c" />
<path d="M 564.42 163.03 C 570.24 163.10 576.20 162.54 581.99 163.19 C 586.37 163.87 588.01 168.43 586.18 172.21 C 583.75 176.87 578.86 177.87 574.07 176.48 C 576.24 175.89 578.68 175.71 580.73 174.75 C 583.84 172.55 583.71 166.39 579.92 164.90 C 577.80 164.10 575.09 164.57 572.85 164.64 C 572.64 172.44 572.56 180.27 572.92 188.06 C 574.44 188.64 575.97 189.22 577.47 189.85 C 573.42 189.98 569.37 189.90 565.32 189.99 L 565.28 188.81 C 566.46 188.68 567.64 188.54 568.82 188.41 C 569.21 180.59 569.12 172.72 568.90 164.90 C 567.40 164.29 565.91 163.67 564.42 163.03 Z" fill="#00457c" />
<path d="M 587.60 163.05 C 591.67 162.93 595.75 163.00 599.83 162.91 L 599.82 164.08 C 598.63 164.23 597.44 164.38 596.26 164.54 C 595.87 172.39 595.98 180.27 596.08 188.13 C 599.91 188.22 603.70 188.14 607.52 187.80 C 608.34 185.84 609.18 183.90 610.16 182.01 C 610.14 184.66 609.91 187.29 609.64 189.92 C 602.98 190.11 596.33 189.81 589.67 189.95 C 590.49 189.18 591.31 188.41 592.13 187.64 C 592.41 180.06 592.41 172.43 592.13 164.86 C 590.61 164.28 589.10 163.67 587.60 163.05 Z" fill="#00457c" />
<path d="M 611.72 163.04 C 618.97 162.94 626.24 162.81 633.49 162.94 C 633.06 165.29 632.64 167.63 632.03 169.94 C 631.64 168.32 631.28 166.71 630.93 165.09 C 627.40 164.66 623.89 164.56 620.34 164.64 C 620.24 168.15 620.18 171.67 620.14 175.18 C 622.94 175.19 625.73 175.16 628.53 175.07 C 629.04 173.68 629.56 172.29 630.09 170.92 C 630.50 174.49 630.51 178.10 629.98 181.66 C 629.43 180.15 628.90 178.63 628.39 177.09 C 625.64 176.99 622.88 176.93 620.12 176.92 C 620.07 180.63 620.07 184.33 620.14 188.04 C 623.84 188.14 627.52 188.12 631.22 187.86 C 631.97 185.98 632.74 184.11 633.63 182.30 C 633.67 184.83 633.57 187.36 633.45 189.90 C 626.63 190.13 619.82 189.76 613.00 189.99 L 613.00 188.81 C 614.04 188.68 615.08 188.55 616.12 188.42 C 616.58 180.58 616.52 172.71 616.20 164.87 C 614.70 164.28 613.20 163.67 611.72 163.04 Z" fill="#00457c" />
<path d="M 642.53 162.60 C 645.09 166.03 647.20 169.72 649.32 173.43 C 651.71 170.05 654.10 166.73 655.83 162.95 C 657.59 162.93 659.35 162.91 661.10 162.89 C 656.05 165.92 653.84 170.54 650.29 175.07 C 653.03 179.48 655.68 183.96 658.59 188.23 C 659.64 188.68 660.69 189.14 661.73 189.61 C 659.54 189.85 657.34 189.98 655.14 190.13 C 652.68 186.17 650.35 182.14 647.99 178.13 C 645.30 181.92 642.71 185.75 640.75 189.97 C 639.04 189.99 637.33 190.00 635.63 190.02 C 640.73 186.46 643.17 181.48 646.94 176.54 C 643.76 171.69 641.98 165.81 636.01 163.87 C 638.18 163.42 640.35 163.01 642.53 162.60 Z" fill="#00457c" />
<path d="M 694.96 163.37 C 696.72 163.05 698.48 162.72 700.24 162.41 C 703.74 166.72 706.26 171.57 708.77 176.49 C 711.57 171.99 714.24 167.43 716.91 162.86 C 718.01 162.88 719.10 162.89 720.20 162.90 C 717.01 167.13 713.75 171.54 711.14 176.16 C 708.97 179.42 709.96 184.29 709.99 188.05 C 711.51 188.63 713.03 189.21 714.54 189.84 C 710.18 189.99 705.81 189.97 701.46 189.87 C 702.95 189.24 704.46 188.62 705.98 188.03 C 706.05 184.83 706.58 181.28 705.79 178.17 C 704.24 174.62 701.99 171.32 699.84 168.12 C 698.65 166.27 696.98 165.17 695.13 164.06 L 694.96 163.37 Z" fill="#00457c" />
<path d="M 738.48 163.77 C 738.16 165.88 737.84 167.99 737.49 170.10 C 736.70 168.56 736.38 166.26 735.11 165.01 C 732.13 163.18 727.58 163.37 725.73 166.70 C 724.80 168.39 724.46 171.58 726.10 172.93 C 729.57 175.06 735.17 174.05 738.32 176.68 C 741.50 180.21 739.80 185.68 736.24 188.26 C 731.75 191.57 726.79 190.65 721.77 189.38 C 721.96 187.02 722.15 184.67 722.37 182.32 C 723.17 183.97 723.79 185.73 724.76 187.28 C 727.80 189.58 732.91 189.59 735.32 186.34 C 736.75 184.41 737.04 180.57 734.89 179.05 C 731.65 177.50 727.02 178.06 723.96 176.04 C 720.03 172.74 721.37 165.98 725.75 163.70 C 730.08 161.34 734.06 162.59 738.48 163.77 Z" fill="#00457c" />
<path d="M 741.89 162.88 C 749.39 163.19 756.84 163.17 764.35 162.89 C 764.08 165.36 763.81 167.82 763.33 170.27 C 762.84 168.53 762.40 166.79 761.98 165.03 C 759.64 164.93 757.30 164.84 754.96 164.76 C 754.87 172.55 754.73 180.35 755.06 188.13 C 756.61 188.60 758.16 189.09 759.70 189.59 C 755.33 190.06 750.90 190.00 746.53 189.85 C 748.03 189.22 749.56 188.64 751.09 188.06 C 751.44 180.31 751.35 172.53 751.19 164.77 C 748.75 164.82 746.30 164.89 743.86 164.98 C 743.69 166.23 743.53 167.48 743.36 168.73 C 742.94 169.01 742.52 169.30 742.09 169.58 C 742.03 167.35 741.96 165.12 741.89 162.88 Z" fill="#00457c" />
<path d="M 765.08 163.04 C 772.31 162.94 779.55 162.82 786.78 162.94 C 786.34 165.26 785.91 167.58 785.34 169.88 C 784.94 168.28 784.55 166.67 784.19 165.07 C 780.67 164.67 777.18 164.56 773.63 164.64 C 773.53 168.15 773.48 171.67 773.43 175.18 C 776.18 175.19 778.92 175.16 781.67 175.06 C 782.30 173.71 782.92 172.35 783.59 171.01 C 783.74 174.60 783.80 178.16 783.23 181.71 C 782.69 180.18 782.17 178.64 781.66 177.10 C 778.92 176.99 776.17 176.93 773.43 176.91 C 773.37 180.62 773.37 184.32 773.44 188.03 C 777.11 188.13 780.77 188.13 784.43 187.91 C 785.24 186.01 786.07 184.12 786.99 182.28 C 786.97 184.83 786.85 187.37 786.71 189.91 C 779.60 189.99 772.43 190.10 765.33 189.65 C 766.70 189.13 768.07 188.62 769.45 188.13 C 769.83 180.42 769.75 172.66 769.54 164.94 C 768.04 164.33 766.56 163.70 765.08 163.04 Z" fill="#00457c" />
<path d="M 788.56 163.00 C 791.36 162.94 794.16 162.92 796.95 162.89 C 800.21 170.12 803.75 177.22 807.21 184.36 C 810.59 177.22 814.12 170.15 817.28 162.92 C 819.82 162.93 822.36 162.92 824.90 162.91 L 824.87 164.09 C 823.68 164.23 822.50 164.37 821.31 164.51 C 820.94 172.36 820.94 180.29 821.29 188.14 C 822.83 188.60 824.36 189.09 825.88 189.60 C 821.88 190.04 817.76 189.90 813.73 190.00 L 813.75 188.85 C 814.94 188.69 816.13 188.52 817.32 188.36 C 817.66 181.24 817.55 174.16 817.55 167.04 C 813.71 174.96 809.97 182.92 806.29 190.92 C 802.56 183.20 798.88 175.46 795.13 167.75 C 795.17 174.62 794.95 181.56 795.37 188.41 C 796.58 188.55 797.80 188.69 799.01 188.82 L 798.94 189.98 C 795.47 189.93 792.00 189.96 788.53 189.84 C 790.04 189.21 791.56 188.63 793.09 188.06 C 793.35 180.37 793.55 172.59 793.02 164.91 C 791.54 164.26 790.05 163.64 788.56 163.00 Z" fill="#00457c" />
<path d="M 843.62 163.77 C 843.29 165.88 842.97 167.99 842.63 170.10 C 841.97 168.54 841.52 166.81 840.65 165.34 C 837.78 163.06 832.62 163.28 830.80 166.81 C 829.95 168.46 829.65 171.51 831.15 172.85 C 834.57 175.08 840.14 174.03 843.38 176.60 C 846.68 180.12 844.95 185.75 841.30 188.32 C 836.80 191.58 831.82 190.64 826.83 189.34 C 827.10 186.98 827.36 184.62 827.74 182.28 C 828.42 183.92 828.92 185.69 829.79 187.25 C 832.87 189.50 837.90 189.66 840.39 186.43 C 841.89 184.50 842.21 180.49 839.95 179.00 C 836.69 177.53 832.01 178.02 828.99 175.97 C 825.26 172.62 826.49 166.11 830.76 163.78 C 835.11 161.32 839.15 162.56 843.62 163.77 Z" fill="#00457c" />
<path d="M 869.94 161.73 C 874.14 170.31 877.32 179.39 881.54 187.96 C 882.60 188.59 883.66 189.24 884.70 189.90 C 881.05 189.91 877.39 189.90 873.73 189.99 L 873.61 188.75 C 874.83 188.60 876.05 188.46 877.28 188.31 C 876.37 185.85 875.41 183.40 874.45 180.95 C 870.78 180.94 867.10 180.94 863.42 180.94 C 862.43 183.35 861.46 185.76 860.55 188.20 C 861.75 188.40 862.94 188.60 864.14 188.80 L 864.12 190.03 C 860.79 189.93 857.53 189.92 854.22 189.62 C 855.42 189.11 856.63 188.60 857.84 188.10 C 862.27 179.50 865.55 170.35 869.94 161.73 Z" fill="#00457c" />
<path d="M 885.02 163.03 C 887.54 162.95 890.07 162.92 892.60 162.89 C 898.45 170.43 904.59 177.76 910.85 184.96 C 910.88 178.25 910.98 171.56 910.63 164.86 C 909.25 164.25 907.88 163.62 906.51 162.98 C 909.96 162.91 913.41 162.90 916.86 163.04 C 915.55 163.67 914.23 164.28 912.91 164.87 C 912.41 173.67 912.93 182.47 912.58 191.26 C 910.38 189.82 908.40 188.26 906.78 186.16 C 901.68 179.77 896.36 173.58 891.13 167.30 C 891.15 174.24 890.98 181.11 891.37 188.04 C 892.72 188.64 894.07 189.25 895.41 189.88 C 891.98 189.96 888.56 189.99 885.13 189.92 C 886.44 189.26 887.76 188.62 889.09 188.00 C 889.47 180.38 889.30 172.72 889.26 165.09 C 887.84 164.42 886.42 163.73 885.02 163.03 Z" fill="#00457c" />
<path d="M 917.11 162.98 C 923.06 163.09 929.04 162.63 934.97 163.05 C 939.14 163.38 942.81 165.54 944.70 169.33 C 948.28 177.10 943.83 187.06 935.51 189.35 C 930.07 190.59 924.09 189.66 918.52 189.98 C 919.31 189.16 920.11 188.35 920.92 187.55 C 921.13 180.06 921.50 172.45 920.84 164.98 C 919.60 164.31 918.36 163.64 917.11 162.98 Z" fill="#00457c" />
<path d="M 984.44 163.09 C 990.25 163.05 996.21 162.57 1002.00 163.18 C 1005.89 163.71 1007.72 167.78 1006.28 171.26 C 1005.10 174.31 1002.06 175.21 999.39 176.60 C 1002.84 181.06 1006.20 185.52 1009.91 189.77 C 1008.22 189.95 1006.51 189.97 1004.81 190.03 C 1001.26 185.17 997.77 180.27 993.85 175.69 C 995.76 175.39 997.80 175.23 999.63 174.59 C 1003.23 173.17 1004.03 167.40 1000.64 165.31 C 998.48 164.01 995.21 164.59 992.79 164.66 C 992.51 172.58 992.40 180.54 992.82 188.46 C 994.00 188.56 995.19 188.67 996.38 188.77 L 996.39 189.99 C 992.33 189.91 988.17 190.06 984.16 189.60 C 985.67 189.09 987.20 188.60 988.73 188.14 C 989.06 180.42 989.03 172.65 988.76 164.93 C 987.31 164.35 985.86 163.75 984.44 163.09 Z" fill="#00457c" />
<path d="M 1025.86 161.74 C 1029.60 169.63 1032.65 177.82 1036.29 185.75 C 1037.14 187.70 1038.75 188.64 1040.30 189.99 C 1036.32 189.88 1032.44 190.00 1028.48 189.60 C 1030.01 189.06 1031.54 188.54 1033.07 188.04 C 1032.16 185.67 1031.22 183.30 1030.28 180.94 C 1026.61 180.94 1022.94 180.94 1019.27 180.94 C 1018.29 183.35 1017.33 185.76 1016.42 188.20 C 1017.62 188.40 1018.82 188.61 1020.02 188.81 L 1019.96 189.99 C 1017.01 189.91 1013.88 190.13 1011.01 189.47 C 1011.88 188.97 1012.77 188.49 1013.67 188.04 C 1018.25 179.52 1021.33 170.26 1025.86 161.74 Z" fill="#00457c" />
<path d="M 1040.72 163.04 C 1045.06 162.93 1049.42 162.90 1053.77 163.05 C 1052.29 163.69 1050.80 164.30 1049.30 164.90 C 1049.05 172.63 1048.99 180.40 1049.33 188.14 C 1050.85 188.60 1052.37 189.09 1053.87 189.60 C 1049.83 190.05 1045.68 189.91 1041.62 190.00 L 1041.63 188.78 C 1042.80 188.67 1043.98 188.56 1045.16 188.44 C 1045.56 180.60 1045.53 172.72 1045.20 164.87 C 1043.70 164.28 1042.20 163.67 1040.72 163.04 Z" fill="#00457c" />
<path d="M 1054.23 162.93 C 1056.69 162.93 1059.16 162.93 1061.62 162.91 C 1067.47 170.44 1073.60 177.76 1079.85 184.95 C 1079.88 178.24 1079.98 171.56 1079.64 164.86 C 1078.26 164.25 1076.88 163.62 1075.51 162.98 C 1078.96 162.91 1082.41 162.90 1085.86 163.04 C 1084.56 163.67 1083.24 164.28 1081.92 164.88 C 1081.40 173.67 1081.95 182.47 1081.58 191.26 C 1079.39 189.82 1077.41 188.26 1075.80 186.18 C 1070.70 179.78 1065.37 173.57 1060.13 167.28 C 1060.15 174.22 1059.99 181.11 1060.38 188.04 C 1061.73 188.64 1063.07 189.25 1064.40 189.89 C 1060.98 189.96 1057.55 189.99 1054.13 189.92 C 1055.44 189.26 1056.76 188.63 1058.09 188.01 C 1058.43 180.99 1058.51 173.90 1058.30 166.88 C 1058.63 164.63 1055.62 164.11 1054.23 162.93 Z" fill="#00457c" />
<path d="M 1147.02 163.04 C 1151.34 162.92 1155.66 162.92 1159.98 163.04 C 1158.51 163.70 1157.02 164.32 1155.53 164.94 C 1155.31 172.73 1155.26 180.56 1155.57 188.36 C 1156.75 188.52 1157.94 188.68 1159.12 188.84 L 1159.13 189.99 C 1155.09 189.90 1151.05 189.98 1147.01 189.88 C 1148.48 189.22 1149.97 188.59 1151.46 187.99 C 1151.78 180.31 1151.76 172.62 1151.50 164.94 C 1149.99 164.33 1148.50 163.70 1147.02 163.04 Z" fill="#00457c" />
<path d="M 1160.24 163.06 C 1167.47 162.91 1174.73 162.82 1181.96 162.95 C 1181.50 165.27 1181.05 167.58 1180.43 169.87 C 1180.06 168.26 1179.70 166.65 1179.35 165.04 C 1175.82 164.68 1172.33 164.56 1168.78 164.65 C 1168.70 168.16 1168.64 171.67 1168.61 175.18 C 1171.37 175.19 1174.13 175.16 1176.90 175.07 C 1177.51 173.69 1178.13 172.32 1178.79 170.96 C 1178.92 174.58 1178.95 178.13 1178.35 181.70 C 1177.85 180.18 1177.36 178.65 1176.90 177.12 C 1174.13 176.99 1171.36 176.93 1168.59 176.91 C 1168.53 180.62 1168.53 184.33 1168.60 188.04 C 1172.27 188.13 1175.93 188.13 1179.60 187.90 C 1180.41 185.99 1181.24 184.09 1182.14 182.21 C 1182.13 184.78 1182.03 187.33 1181.89 189.89 C 1174.80 190.09 1167.69 189.86 1160.59 189.90 C 1161.93 189.26 1163.27 188.63 1164.62 188.02 C 1165.00 180.32 1164.97 172.59 1164.67 164.89 C 1163.65 164.50 1162.64 164.09 1161.62 163.67 L 1160.24 163.06 Z" fill="#00457c" />
<path d="M 1184.30 162.94 C 1186.77 162.93 1189.24 162.92 1191.70 162.91 C 1197.55 170.43 1203.67 177.74 1209.92 184.93 C 1209.93 178.21 1210.05 171.58 1209.73 164.88 C 1208.38 164.26 1207.04 163.64 1205.70 163.00 C 1209.11 162.91 1212.52 162.90 1215.93 163.04 C 1214.63 163.67 1213.31 164.28 1212.00 164.88 C 1211.45 173.69 1212.04 182.49 1211.66 191.29 C 1209.46 189.82 1207.48 188.23 1205.85 186.13 C 1200.75 179.74 1195.43 173.54 1190.20 167.26 C 1190.20 174.19 1190.06 181.09 1190.47 188.02 C 1191.81 188.63 1193.15 189.25 1194.47 189.88 C 1191.34 189.95 1188.20 189.95 1185.07 189.98 L 1184.99 188.82 C 1186.05 188.69 1187.10 188.56 1188.15 188.43 C 1188.52 181.29 1188.55 174.03 1188.37 166.89 C 1188.74 164.62 1185.70 164.12 1184.30 162.94 Z" fill="#00457c" />
<path d="M 1245.01 162.90 C 1251.97 163.09 1258.92 162.75 1265.88 162.95 C 1265.43 165.26 1264.98 167.57 1264.40 169.85 C 1264.01 168.25 1263.64 166.65 1263.28 165.05 C 1259.75 164.67 1256.27 164.56 1252.72 164.65 C 1252.63 168.16 1252.57 171.67 1252.54 175.18 C 1255.29 175.19 1258.04 175.16 1260.79 175.07 C 1261.42 173.70 1262.06 172.34 1262.72 171.00 C 1262.84 174.59 1262.89 178.14 1262.30 181.69 C 1261.78 180.17 1261.27 178.64 1260.78 177.11 C 1258.02 176.99 1255.26 176.93 1252.50 176.91 C 1252.46 180.62 1252.46 184.32 1252.52 188.03 C 1256.19 188.13 1259.85 188.13 1263.52 187.90 C 1264.34 186.00 1265.19 184.11 1266.10 182.25 C 1266.07 184.80 1265.96 187.35 1265.81 189.89 C 1258.72 190.10 1251.62 189.84 1244.53 189.92 C 1245.86 189.26 1247.20 188.62 1248.55 188.00 C 1248.94 180.19 1248.91 172.35 1248.58 164.55 C 1247.39 164.39 1246.19 164.23 1244.99 164.07 L 1245.01 162.90 Z" fill="#00457c" />
<path d="M 1285.80 163.78 C 1285.49 165.87 1285.18 167.96 1284.85 170.05 C 1284.15 168.49 1283.71 166.66 1282.72 165.24 C 1280.76 163.74 1277.67 163.43 1275.43 164.45 C 1272.50 165.76 1271.26 170.24 1273.21 172.77 C 1276.66 175.09 1282.14 174.03 1285.47 176.50 C 1288.74 179.79 1287.33 185.29 1283.95 187.94 C 1279.48 191.60 1274.21 190.73 1269.06 189.33 C 1269.30 186.97 1269.54 184.61 1269.91 182.26 C 1270.58 183.88 1271.06 185.62 1271.90 187.16 C 1275.07 189.67 1280.67 189.65 1282.92 185.91 C 1284.09 183.99 1284.25 180.30 1282.10 178.98 C 1278.84 177.52 1274.06 178.03 1271.10 175.90 C 1267.49 172.57 1268.69 166.17 1272.85 163.84 C 1277.21 161.31 1281.30 162.54 1285.80 163.78 Z" fill="#00457c" />
<path d="M 410.42 164.46 C 415.06 163.20 420.49 164.71 422.80 169.19 C 424.98 173.29 425.08 179.82 422.95 183.95 C 420.20 189.51 412.15 190.30 407.83 186.18 C 404.45 182.97 403.37 177.43 403.88 172.96 C 404.31 169.06 406.50 165.58 410.42 164.46 Z" fill="#ffffff" />
<path d="M 508.40 164.44 C 513.06 163.22 518.49 164.76 520.74 169.29 C 522.97 173.71 523.03 180.19 520.53 184.51 C 517.58 189.58 509.90 190.11 505.79 186.23 C 502.35 183.04 501.27 177.44 501.78 172.96 C 502.22 169.04 504.45 165.53 508.40 164.44 Z" fill="#ffffff" />
<path d="M 924.96 164.74 C 928.77 164.60 933.50 164.10 936.95 166.04 C 940.21 167.88 941.60 171.37 941.73 174.97 C 941.87 179.15 940.89 183.74 937.26 186.27 C 933.79 188.66 928.96 188.17 924.96 188.09 C 924.76 180.31 924.75 172.52 924.96 164.74 Z" fill="#ffffff" />
<path d="M 868.92 167.91 C 870.49 171.69 872.05 175.47 873.61 179.24 C 870.46 179.25 867.30 179.25 864.14 179.24 C 865.73 175.47 867.33 171.69 868.92 167.91 Z" fill="#ffffff" />
<path d="M 1024.78 167.94 C 1026.36 171.70 1027.92 175.47 1029.48 179.24 C 1026.32 179.25 1023.16 179.25 1020.00 179.25 C 1021.59 175.47 1023.18 171.70 1024.78 167.94 Z" fill="#ffffff" />
<path d="M 965.88 173.66 C 968.73 173.85 972.47 173.51 974.99 175.03 C 978.28 177.20 978.16 182.97 975.77 185.77 C 973.42 188.60 969.23 187.92 965.96 188.10 C 965.87 183.29 965.86 178.47 965.88 173.66 Z" fill="#ffffff" />
</svg>