<?xml version="1.0" encoding="UTF-8"?>
<!-- Generator: Adobe Illustrator 23.0.0, SVG Export Plug-In . SVG Version: 6.00 Build 0)  -->
<svg version="1.1" id="Layer_1" xmlns="http://www.w3.org/2000/svg" xmlns:xlink="http://www.w3.org/1999/xlink" x="0px" y="0px" viewBox="0 0 630 630" style="enable-background:new 0 0 630 630;" xml:space="preserve">
<style type="text/css">
	.st0{clip-path:url(#SVGID_2_);fill:#FFFFFF;}
	.st1{clip-path:url(#SVGID_2_);fill:none;stroke:#003366;stroke-miterlimit:10;}
	.st2{clip-path:url(#SVGID_2_);fill:#003366;}
	.st3{clip-path:url(#SVGID_4_);fill:#FFFFFF;}
	.st4{fill:#003366;}
</style>
<g>
	<defs>
		<rect id="SVGID_1_" x="8.2" y="140.7" width="612.7" height="350.5"/>
	</defs>
	<clipPath id="SVGID_2_">
		<use xlink:href="#SVGID_1_" style="overflow:visible;"/>
	</clipPath>
	<path class="st0" d="M489.1,303.9c0-9.9-3.3-19.2-9.2-27.3c-1.2,0.6-2.4,1.2-3.6,1.8c0,0-6.6,3.6-17.3,9.3c6,6.5,9.5,14.3,9.5,22.8   c0,21.9-23.3,39.7-52,39.7c-18.1,0-34-7.1-43.4-17.7c-5.2,2.6-10.3,5.2-15.3,7.6c13.6,12.5,34.1,20.4,57.1,20.4   C455.8,360.6,489.1,335.2,489.1,303.9"/>
	<path class="st0" d="M318.7,334.3l-1.4,102.4c-13.2-19.3-22.3-39.5-22.3-57c0-12.6,4.1-23.7,10-33.1c-9.9,10-19,24.1-19,42.2   c0,22,15.3,45.1,31,62.6c16.4-17.6,32.5-40.6,32.5-62.6C349.5,360,318.7,334.3,318.7,334.3"/>
	<path class="st0" d="M156.3,278.4c-1.2-0.6-2.4-1.2-3.6-1.8c-5.8,8.1-9.2,17.4-9.2,27.3c0,31.3,33.3,56.7,74.3,56.7   c22.9,0,43.4-7.9,57.1-20.4c-5-2.5-10.1-5-15.3-7.6c-9.3,10.7-25.3,17.7-43.4,17.7c-28.7,0-52-17.8-52-39.7   c0-8.5,3.5-16.4,9.5-22.8C162.9,282,156.3,278.4,156.3,278.4"/>
	<path class="st0" d="M342.8,447.2c-10.1,10.9-20,19.4-26.2,24.6c-6.3-5.2-15.7-13.7-25.3-24.4C142.1,442,24.7,384.9,24.7,315.3   c0-32.5,25.6-62.3,68.2-85.4c-8.8-12.6-10.2-22.5-8.8-27.2c14,11.3,27.3,13,27.3,13c-16.3-17-13.6-46.6-10.3-51.8   c2.5,3.4,20.4,20.8,64.6,37.4l0.4,0.2c43.4-11.9,94.2-18.7,148.5-18.7c55.1,0,106.7,7,150.5,19.3l1.9-0.7   c44.2-16.6,62-34,64.6-37.4c3.3,5.2,6,34.8-10.3,51.8c0,0,13.3-1.8,27.3-13c1.4,4.9,0,15.3-9.8,28.6c41,22.9,65.6,52.1,65.6,84   C604.4,384.1,489.6,440.7,342.8,447.2 M569.5,234.2v-8.5c0-2.7-2.2-4.8-4.8-4.8h-7.5c8.8-20.9-2.3-38.4-2.3-38.4s-5.3,8.3-12.5,11   c6.7-26.6-10-50.3-10-50.3s-3.2,22.2-65.7,45.6c-45.8-12.4-98.2-19.2-152.2-19.2c-53.1,0-104.8,6.6-150.1,18.6   c-61-23.2-64.2-45.1-64.2-45.1s-16.6,23.6-10,50.3c-7.2-2.7-12.5-11-12.5-11s-12.4,18.8-1,40.7C35,247.5,9.2,279,9.2,315.3   c0,80.8,127.7,137.8,274.4,144.9c8.1,8.4,15.4,14.9,20.1,18.9l12.9,10.9l12.9-10.8c5-4.2,12.6-10.8,20.8-19.1   c144.6-8.1,269.6-64.7,269.6-144.6C619.9,284.3,601,256.7,569.5,234.2"/>
	<path class="st1" d="M342.8,447.2c-10.1,10.9-20,19.4-26.2,24.6c-6.3-5.2-15.7-13.7-25.3-24.4C142.1,442,24.7,384.9,24.7,315.3   c0-32.5,25.6-62.3,68.2-85.4c-8.8-12.6-10.2-22.5-8.8-27.2c14,11.3,27.3,13,27.3,13c-16.3-17-13.6-46.6-10.3-51.8   c2.5,3.4,20.4,20.8,64.6,37.4l0.4,0.2c43.4-11.9,94.2-18.7,148.5-18.7c55.1,0,106.7,7,150.5,19.3l1.9-0.7   c44.2-16.6,62-34,64.6-37.4c3.3,5.2,6,34.8-10.3,51.8c0,0,13.3-1.8,27.3-13c1.4,4.9,0,15.3-9.8,28.6c41,22.9,65.6,52.1,65.6,84   C604.4,384.1,489.6,440.7,342.8,447.2z"/>
	<path class="st2" d="M358.1,428.8c6.4-8.8,12.3-18.4,16.5-28.6l22.7,7.8l-10-19.4c69.2,14.7,159.2-27.4,153.1-77.8l-17.2,7.7   c1.6-5.8,2.5-11.8,2.5-18c0-15.5-5.4-30.1-14.8-42.7c1.8-1.3,3.6-2.6,5.2-3.9c22.9,17.8,36.1,38.8,36.1,61.3   C552.2,371.8,468.6,418.9,358.1,428.8 M373.1,332.5c9.3,10.7,25.3,17.7,43.4,17.7c28.7,0,52-17.8,52-39.7c0-8.5-3.5-16.4-9.5-22.8   c10.7-5.7,17.3-9.3,17.3-9.3c1.2-0.6,2.4-1.2,3.6-1.8c5.8,8.1,9.2,17.4,9.2,27.3c0,31.3-33.3,56.7-74.3,56.7   c-22.9,0-43.4-7.9-57.1-20.4C362.8,337.7,367.9,335.2,373.1,332.5 M317,451.5c-15.7-17.5-31-40.6-31-62.6c0-18.1,9.1-32.2,19-42.2   c-5.9,9.4-10,20.5-10,33.1c0,17.5,9.1,37.6,22.3,57l1.4-102.4c0,0,30.8,25.8,30.8,54.6C349.5,410.8,333.4,433.9,317,451.5    M76.9,315.2c0-23.1,13.9-44.6,37.9-62.6c2,1.6,4.1,3.2,6.3,4.9c-9.6,12.7-15.2,27.4-15.2,43.2c0,6.2,0.8,12.2,2.5,18l-17.2-7.7   c-6.1,50.5,84.1,92.6,153.3,77.8L234.4,408l25.7-8.8c4.2,10.7,10.1,20.9,16.6,30.1C163.4,420.5,76.9,372.7,76.9,315.2 M203.8,316.1   c0-3.7,1.8-7.2,4.9-9.8c10,5.2,20.7,10.8,31.5,16.4c-3.2,4.8-9.7,8.1-17.2,8.1C212.4,330.8,203.8,324.2,203.8,316.1 M216.2,350.3   c18.1,0,34-7,43.4-17.7c5.2,2.6,10.3,5.2,15.3,7.6c-13.6,12.5-34.1,20.4-57.1,20.4c-41,0-74.3-25.4-74.3-56.7   c0-9.9,3.3-19.2,9.2-27.3c1.2,0.6,2.4,1.2,3.6,1.8c0,0,6.6,3.6,17.3,9.3c-6,6.5-9.5,14.3-9.5,22.8   C164.1,332.5,187.4,350.3,216.2,350.3 M110.9,187.2c0,0,32.3,29.7,83.8,45.1c25.6,7.7,114.6,44.3,113.3,93.4   c-13.9-17.8-51.9-45.3-110.9-65.3C110.4,230.9,110.9,187.2,110.9,187.2 M428.8,316.1c0,8.1-8.6,14.7-19.2,14.7   c-7.5,0-14-3.3-17.2-8.1c10.9-5.6,21.6-11.1,31.5-16.4C427,308.9,428.8,312.4,428.8,316.1 M437.9,232.3   c51.5-15.4,83.8-45.1,83.8-45.1s0.5,43.7-86.2,73.2c-59,20.1-97,47.5-110.9,65.3C323.2,276.7,412.3,240,437.9,232.3 M538.7,231.3   c9.7-13.3,11.2-23.7,9.8-28.6c-14,11.3-27.3,13-27.3,13c16.3-17,13.6-46.6,10.3-51.8c-2.5,3.4-20.4,20.8-64.6,37.4l-1.9,0.7   c-43.9-12.2-95.4-19.3-150.5-19.3c-54.3,0-105.1,6.8-148.5,18.7l-0.4-0.2c-44.2-16.6-62-34-64.6-37.4c-3.3,5.2-6,34.8,10.3,51.8   c0,0-13.3-1.8-27.3-13c-1.4,4.7-0.1,14.6,8.8,27.2c-42.5,23.1-68.2,52.9-68.2,85.4c0,69.6,117.4,126.7,266.6,132.1   c9.7,10.7,19.1,19.2,25.3,24.4c6.2-5.2,16.1-13.7,26.2-24.6c146.8-6.5,261.5-63.1,261.5-131.9C604.4,283.4,579.8,254.2,538.7,231.3   "/>
</g>
<g>
	<defs>
		<rect id="SVGID_3_" x="8.2" y="140.7" width="612.7" height="350.5"/>
	</defs>
	<clipPath id="SVGID_4_">
		<use xlink:href="#SVGID_3_" style="overflow:visible;"/>
	</clipPath>
	<path class="st3" d="M197.2,260.4c59,20.1,97,47.5,110.9,65.3c1.3-49.1-87.7-85.7-113.3-93.4c-51.5-15.4-83.8-45.1-83.8-45.1   S110.4,230.9,197.2,260.4"/>
	<path class="st3" d="M435.5,260.4c86.7-29.5,86.2-73.2,86.2-73.2s-32.3,29.7-83.8,45.1c-25.6,7.7-114.7,44.3-113.3,93.4   C338.4,307.9,376.5,280.5,435.5,260.4"/>
	<path class="st3" d="M234.4,408l10.2-19.4c-69.2,14.8-159.4-27.3-153.3-77.8l17.2,7.7c-1.6-5.8-2.5-11.8-2.5-17.9   c0-15.7,5.5-30.5,15.2-43.2c-2.2-1.6-4.3-3.3-6.3-4.9c-24,18-37.9,39.5-37.9,62.6c0,57.6,86.5,105.3,199.8,114.1   c-6.5-9.2-12.4-19.4-16.6-30.1L234.4,408z"/>
	<path class="st3" d="M516.1,253.9c-1.7,1.3-3.4,2.6-5.2,3.9c9.4,12.6,14.8,27.2,14.8,42.7c0,6.2-0.8,12.2-2.5,18l17.2-7.7   c6.1,50.5-84,92.5-153.1,77.8l10,19.4l-22.7-7.8c-4.2,10.2-10.1,19.8-16.5,28.6c110.4-10,194.1-57.1,194.1-113.7   C552.2,292.7,539,271.7,516.1,253.9"/>
	<path class="st3" d="M240.2,322.7c-10.9-5.6-21.6-11.1-31.5-16.4c-3,2.6-4.9,6-4.9,9.8c0,8.1,8.6,14.7,19.2,14.7   C230.5,330.8,237,327.5,240.2,322.7"/>
	<path class="st3" d="M392.4,322.7c3.2,4.8,9.7,8.1,17.2,8.1c10.6,0,19.2-6.6,19.2-14.7c0-3.7-1.8-7.2-4.9-9.8   C414,311.6,403.3,317.2,392.4,322.7"/>
</g>
<g>
	<path class="st4" d="M563.9,235.8c-1.3,1.3-2.9,1.9-4.7,1.9c-1.9,0-3.5-0.7-4.8-2c-1.3-1.3-2-2.9-2-4.8c0-2,0.7-3.6,2.1-4.9   c1.3-1.2,2.9-1.8,4.7-1.8c1.9,0,3.5,0.7,4.8,2s2,2.9,2,4.8C565.9,232.8,565.3,234.5,563.9,235.8z M555.2,227   c-1.1,1.1-1.6,2.4-1.6,3.9c0,1.6,0.5,2.9,1.6,4c1.1,1.1,2.4,1.6,4,1.6c1.5,0,2.9-0.6,3.9-1.7c1.1-1.1,1.6-2.4,1.6-4   c0-1.5-0.5-2.8-1.6-3.9c-1.1-1.1-2.4-1.7-4-1.7C557.6,225.3,556.3,225.8,555.2,227z M556.2,234.7v-7.5c0.5,0,1.2,0,2.1,0   c0.9,0,1.4,0,1.6,0c0.6,0,1.1,0.2,1.5,0.4c0.7,0.4,1,1,1,1.8c0,0.6-0.2,1.1-0.5,1.4c-0.4,0.3-0.8,0.4-1.3,0.5   c0.5,0.1,0.8,0.2,1.1,0.4c0.4,0.4,0.7,0.9,0.7,1.7v0.7c0,0.1,0,0.1,0,0.2c0,0.1,0,0.1,0.1,0.2l0.1,0.2h-1.9c-0.1-0.2-0.1-0.6-0.1-1   c0-0.5-0.1-0.8-0.1-0.9c-0.1-0.3-0.3-0.4-0.6-0.6c-0.1-0.1-0.4-0.1-0.7-0.1l-0.4,0h-0.4v2.7H556.2z M559.8,228.6   c-0.3-0.1-0.7-0.2-1.1-0.2h-0.5v2.2h0.8c0.5,0,0.8-0.1,1.1-0.3c0.3-0.2,0.4-0.5,0.4-0.9S560.2,228.8,559.8,228.6z"/>
</g>
</svg>